<?xml version="1.0" standalone="no"?>
<!DOCTYPE svg PUBLIC "-//W3C//DTD SVG 1.1//EN" "http://www.w3.org/Graphics/SVG/1.1/DTD/svg11.dtd" >
<svg xmlns="http://www.w3.org/2000/svg" xmlns:xlink="http://www.w3.org/1999/xlink" version="1.1">
<metadata></metadata>
<defs>
<font id="acta_displaylight" horiz-adv-x="1576" >
<font-face units-per-em="2048" ascent="1536" descent="-512" />
<missing-glyph horiz-adv-x="471" />
<glyph unicode="&#xfb01;" horiz-adv-x="1239" d="M72 0v20h1q129 7 157 19q30 12 35 52q1 13 1 32v881h-194v10l194 10v82q0 52 13 103.5t43.5 104t76 92t117.5 64.5t160 25q145 0 241.5 -71t96.5 -154q0 -44 -25.5 -68t-62.5 -24q-36 0 -58 17t-22 46q0 19 25.5 51t25.5 49q0 44 -57.5 89t-153.5 45q-307 0 -307 -369 v-82h471l143 20h21v-921q0 -21 2 -34t5.5 -24.5t14.5 -17.5t22 -11t35.5 -7.5t48 -4.5t65.5 -4h1v-20h-501v20h1q129 7 157 19q30 12 35 52q1 13 1 32v778q0 63 -25.5 82.5t-121.5 20.5h-375v-881q0 -67 32 -81t183 -22v-20h-522z" />
<glyph unicode="&#xfb02;" horiz-adv-x="1239" d="M72 0v20h1q129 7 157 19q30 12 35 52q1 13 1 32v881h-194v10l194 10v82q0 52 13 103.5t43.5 104t76 92t117.5 64.5t160 25q148 0 248 -76l69 76h21v-1372q0 -21 2 -34t5.5 -24.5t14.5 -17.5t22 -11t35.5 -7.5t48 -4.5t65.5 -4h1v-20h-501v20h1q129 7 157 19q30 12 35 52 q1 13 1 32v1259q-75 93 -225 93q-71 0 -125 -22.5t-86 -58.5t-52 -86t-27 -98.5t-7 -103.5v-82h266v-20h-266v-881q0 -67 32 -81t183 -22v-20h-522z" />
<glyph unicode="&#xfb03;" horiz-adv-x="1873" d="M72 0v20h1q129 7 157 19q30 12 35 52q1 13 1 32v881h-194v10l194 10v82q0 52 13 103.5t43.5 104t76 92t117.5 64.5t160 25q105 0 187.5 -40t121.5 -99q109 139 326 139q145 0 241.5 -71t96.5 -154q0 -44 -25.5 -68t-62.5 -24q-36 0 -58 17t-22 46q0 19 25.5 51t25.5 49 q0 44 -57.5 89t-153.5 45q-307 0 -307 -369v-82h471l143 20h21v-921q0 -21 2 -34t5.5 -24.5t14.5 -17.5t22 -11t35.5 -7.5t48 -4.5t65.5 -4h1v-20h-502v20q130 7 158 19q31 12 36 52q1 13 1 32v778q0 30 -4 46.5t-13.5 29.5t-33.5 18t-55.5 7t-88.5 2h-327v-881 q0 -67 32 -81t183 -22v-20h-522v20h1q129 7 157 19q30 12 35 52q1 13 1 32v881h-194v10l194 10v82q0 111 49 199q-68 170 -274 170q-71 0 -125 -22.5t-86 -58.5t-52 -86t-27 -98.5t-7 -103.5v-82h215v-20h-215v-881q0 -67 32 -81t183 -22v-20h-522z" />
<glyph unicode="&#xfb04;" horiz-adv-x="1873" d="M72 0v20h1q129 7 157 19q30 12 35 52q1 13 1 32v881h-194v10l194 10v82q0 52 13 103.5t43.5 104t76 92t117.5 64.5t160 25q105 0 187.5 -40t121.5 -99q109 139 326 139q148 0 248 -76l69 76h21v-217v-8v-1147q0 -21 2 -34t5.5 -24.5t14.5 -17.5t22 -11t35.5 -7.5t48 -4.5 t65.5 -4h1v-20h-502v20q130 7 158 19q31 12 36 52q1 13 1 32v1259q-75 93 -225 93q-71 0 -125 -22.5t-86 -58.5t-52 -86t-27 -98.5t-7 -103.5v-82h266v-20h-266v-881q0 -67 32 -81t183 -22v-20h-522v20h1q129 7 157 19q30 12 35 52q1 13 1 32v881h-194v10l194 10v82 q0 111 49 199q-68 170 -274 170q-71 0 -125 -22.5t-86 -58.5t-52 -86t-27 -98.5t-7 -103.5v-82h215v-20h-215v-881q0 -67 32 -81t183 -22v-20h-522z" />
<glyph horiz-adv-x="0" />
<glyph horiz-adv-x="682" />
<glyph unicode=" "  horiz-adv-x="471" />
<glyph unicode="&#x09;" horiz-adv-x="471" />
<glyph unicode="&#xa0;" horiz-adv-x="471" />
<glyph unicode="!" horiz-adv-x="634" d="M205 102q0 47 32.5 80t79.5 33t80 -33t33 -80t-33 -79.5t-80 -32.5t-79.5 32.5t-32.5 79.5zM246 1413q0 16 2 27t8 25t22 22t41 8q74 0 74 -82q0 -53 -30.5 -471t-32.5 -614h-21q-4 191 -33.5 608t-29.5 477z" />
<glyph unicode="&#x22;" horiz-adv-x="843" d="M207 1495q-4 30 15 45.5t46 15.5t46.5 -15.5t15.5 -45.5l-51 -332h-21zM514 1495q-4 30 15 45.5t46 15.5t46.5 -15.5t15.5 -45.5l-51 -332h-21z" />
<glyph unicode="#" horiz-adv-x="1146" d="M88 477v21h291v346h-291v20h291v293h20v-293h346v293h21v-293h293v-20h-293v-346h293v-21h-293v-291h-21v291h-346v-291h-20v291h-291zM399 498h346v346h-346v-346z" />
<glyph unicode="$" horiz-adv-x="1046" d="M113 406h18q17 -113 58.5 -195.5t97 -126t111 -63t114.5 -21.5l6 641q-152 67 -207 101q-145 91 -166 228q-4 26 -4 54q0 65 24.5 122.5t70.5 103t120 73t166 29.5l2 184h25l-2 -184q181 -3 338 -86l20 -310h-20q-33 165 -126 266t-212 109l-6 -569q154 -71 208 -106 q152 -97 179 -238q6 -33 6 -70q0 -160 -107.5 -261t-291.5 -107v-185h-23v185q-214 3 -381 98zM254 1065q0 -55 20 -99t61 -79t80.5 -59t102.5 -54l4 557q-121 -3 -194.5 -80t-73.5 -186zM535 0q131 3 208.5 100.5t77.5 225.5q0 48 -16 89t-39 70t-64 57.5t-74.5 46.5 t-86.5 42z" />
<glyph unicode="%" horiz-adv-x="1544" d="M135 1137q3 135 86 226t211 91q122 0 203 -92t78 -225q-5 -135 -87.5 -226.5t-211.5 -91.5q-121 0 -201 92.5t-78 225.5zM217 1137q0 -138 56.5 -223t150.5 -85q93 0 149 84.5t56 223.5t-56 223t-149 84q-94 0 -150.5 -84.5t-56.5 -222.5zM428 0l662 1434h22l-659 -1434 h-25zM831 297q3 135 86 226t211 91q122 0 203 -92t78 -225q-5 -135 -87.5 -226t-211.5 -91q-121 0 -201 92t-78 225zM913 297q0 -138 56.5 -222.5t150.5 -84.5q93 0 149 84t56 223t-56 223t-149 84q-94 0 -150.5 -84.5t-56.5 -222.5z" />
<glyph unicode="&#x26;" horiz-adv-x="1490" d="M143 346q0 39 9 76.5t21 66.5t36.5 61.5t41.5 52t51.5 49.5t51 42.5t55 41.5t50.5 38q-95 112 -143 198t-48 175q0 135 99 221t241 86q137 0 218 -70.5t81 -197.5q0 -90 -85 -190t-249 -189l435 -522q122 182 176 336q28 77 -28 119.5t-185 58.5v20h438v-20 q-40 -5 -69 -14t-45.5 -16.5t-30.5 -27.5t-19 -30t-17 -42.5t-18 -47.5q-78 -193 -188 -349l125 -135q50 -58 90 -84t100 -33v-20h-233l-152 180q-193 -200 -430 -200q-171 0 -275 99.5t-104 266.5zM270 399q0 -171 74 -275t225 -104q82 0 191 47t178 130l-467 559 q-83 -55 -142 -158.5t-59 -198.5zM387 1210q0 -106 39 -187.5t135 -201.5q153 81 219 175.5t66 185.5q0 113 -56.5 182.5t-173.5 69.5q-58 0 -104 -22t-72 -56.5t-39.5 -72t-13.5 -73.5z" />
<glyph unicode="'" horiz-adv-x="536" d="M207 1495q-4 30 15 45.5t46 15.5t46.5 -15.5t15.5 -45.5l-51 -332h-21z" />
<glyph unicode="(" horiz-adv-x="684" d="M225 696q0 276 99.5 522t269.5 420h8q-140 -197 -197 -425t-57 -517t57 -517t197 -425h-8q-170 174 -269.5 420t-99.5 522z" />
<glyph unicode=")" horiz-adv-x="684" d="M82 -246q140 197 197 425t57 517t-57 517t-197 425h8q170 -174 269.5 -420t99.5 -522t-99.5 -522t-269.5 -420h-8z" />
<glyph unicode="*" horiz-adv-x="905" d="M164 1163q0 21 13.5 33t35.5 12q6 0 97.5 -18.5t119.5 -18.5q-21 21 -96.5 74t-81.5 58q-37 32 -4 65q14 15 33 15t32 -15q5 -5 57.5 -85t71.5 -99q0 31 -16 124t-16 99q0 47 43 47t43 -47q0 -6 -17.5 -99t-17.5 -124q20 19 73.5 99.5t57.5 84.5q14 15 33 15t32 -15 q33 -33 -4 -65q-6 -6 -82 -58.5t-98 -73.5q28 0 120.5 18.5t98.5 18.5q22 0 35.5 -12t13.5 -33t-13.5 -33t-35.5 -12q-6 0 -98.5 17.5t-120.5 17.5q22 -21 97.5 -72t82.5 -57q37 -33 4 -66q-13 -15 -32 -15t-33 15q-4 4 -57.5 85t-73.5 100q0 -32 17.5 -124.5t17.5 -98.5 q0 -48 -43 -48t-43 48q0 6 16 98.5t16 124.5q-19 -19 -71.5 -99.5t-57.5 -85.5q-13 -15 -32 -15t-33 15q-33 33 4 66q6 5 81.5 56.5t96.5 72.5q-28 0 -119.5 -17.5t-97.5 -17.5q-22 0 -35.5 12t-13.5 33z" />
<glyph unicode="+" horiz-adv-x="1146" d="M211 653v21h352v354h21v-354h352v-21h-352v-350h-21v350h-352z" />
<glyph unicode="," horiz-adv-x="614" d="M184 102q0 49 34 81t79 32q70 0 101.5 -47.5t31.5 -116.5q0 -233 -227 -338l-10 25q76 35 130 93t54 103q0 30 -26.5 43t-53.5 13q-50 0 -81.5 33.5t-31.5 78.5z" />
<glyph unicode="-" horiz-adv-x="888" d="M123 539v20h643v-20h-643z" />
<glyph unicode="." horiz-adv-x="593" d="M184 102q0 47 33 80t80 33t80 -33t33 -80t-33 -79.5t-80 -32.5t-80 32.5t-33 79.5z" />
<glyph unicode="/" horiz-adv-x="845" d="M143 -20l541 1474h18l-538 -1474h-21z" />
<glyph unicode="0" horiz-adv-x="1208" d="M133 666q0 177 54.5 331.5t164 254.5t252.5 100t252.5 -100t164 -254.5t54.5 -331.5t-54.5 -331.5t-164 -254.5t-252.5 -100t-252.5 100t-164 254.5t-54.5 331.5zM256 666q0 -308 93.5 -487t254.5 -179t254.5 179t93.5 487t-93.5 486.5t-254.5 178.5t-254.5 -178.5 t-93.5 -486.5z" />
<glyph unicode="1" horiz-adv-x="860" d="M61 1188l400 164h20v-1229q0 -60 73 -81q44 -12 203 -21q6 -1 11 -1v-20h-686v20q163 9 206 20q76 29 81 83v1171l-301 -123z" />
<glyph unicode="2" horiz-adv-x="1044" d="M113 0v20q355 278 515 507.5t160 465.5q0 64 -16 122.5t-48 107.5t-87 78.5t-125 29.5q-65 0 -118.5 -18.5t-84 -47t-47 -59.5t-16.5 -59q0 -17 11 -30.5t24.5 -21t24.5 -21t11 -30.5q0 -28 -22.5 -44.5t-48.5 -16.5q-10 0 -17 0.5t-20.5 5t-22 12t-15.5 24.5t-7 40 q0 123 108.5 205t270.5 82q57 0 109 -13.5t99.5 -43.5t83 -73.5t56 -107.5t20.5 -141q0 -143 -69 -275t-209 -268.5t-383 -316.5h682v-113h-819z" />
<glyph unicode="3" horiz-adv-x="1095" d="M113 266q0 23 7 40t15.5 24.5t22 12t20.5 5t17 0.5q26 0 48.5 -16.5t22.5 -44.5q0 -25 -35.5 -61t-35.5 -62q0 -20 19.5 -47t54 -53t91 -44.5t121.5 -19.5q153 -2 250.5 87t97.5 253q0 104 -28.5 175.5t-85 110t-127 54.5t-168.5 16v21q47 -3 93 3.5t93 27.5t82 56 t57.5 94t22.5 136q0 56 -14.5 107t-44 94.5t-80.5 69.5t-117 26q-65 0 -118.5 -18t-84 -45t-47 -53.5t-16.5 -47.5q0 -25 35.5 -61t35.5 -62q0 -28 -22.5 -44.5t-48.5 -16.5q-10 0 -17 0.5t-20.5 5t-22 12t-15.5 24.5t-7 40q0 117 110 202t269 85q165 0 256.5 -88t91.5 -230 q0 -122 -94 -205.5t-234 -117.5v-4q74 -10 140 -33.5t123.5 -62.5t91.5 -101t34 -139q0 -95 -42.5 -172.5t-109 -123.5t-141.5 -70.5t-147 -24.5q-164 0 -281.5 82.5t-117.5 203.5z" />
<glyph unicode="4" horiz-adv-x="1105" d="M61 387v23l738 942h20v-944h225v-21h-225v-387h-112v387h-646zM86 408h621v790z" />
<glyph unicode="5" horiz-adv-x="1095" d="M113 236q0 50 27 81t55 31q26 0 48.5 -16t22.5 -45q0 -25 -35.5 -59t-35.5 -64q0 -72 74 -118t192 -46q164 0 266 105.5t102 263.5q0 56 -16 106.5t-57 101.5t-104 88t-164.5 60t-231.5 23h-29l19 583h665v-112h-649l-12 -369q162 0 288 -27.5t202.5 -71.5t125.5 -105 t67.5 -121t18.5 -126q0 -188 -125 -303.5t-346 -115.5q-175 0 -271.5 75t-96.5 181z" />
<glyph unicode="6" horiz-adv-x="1155" d="M133 520q0 327 195 562.5t510 289.5l6 -14q-478 -136 -578 -670q169 141 357 141q181 0 290 -113t109 -286q0 -202 -126 -326t-314 -124q-112 0 -199.5 43t-141 117.5t-81 171t-27.5 208.5zM268 655q-21 -185 14 -335.5t114.5 -235t185.5 -84.5q132 0 219.5 117.5 t87.5 292.5q0 160 -82 274.5t-215 114.5q-84 0 -174.5 -41t-149.5 -103z" />
<glyph unicode="7" horiz-adv-x="991" d="M82 1022l10 309h838v-20l-547 -1311h-156l650 1219h-543q-46 0 -73 -1.5t-55 -8.5t-42.5 -19.5t-28.5 -35t-21 -54t-12 -78.5h-20z" />
<glyph unicode="8" horiz-adv-x="1116" d="M113 307q0 118 76.5 219.5t234.5 169.5q-59 30 -101 58.5t-80.5 65.5t-58.5 83.5t-20 100.5q0 65 25 122t67 98t96.5 70t113.5 43.5t118 14.5q158 0 273.5 -91.5t115.5 -226.5q0 -92 -67 -182t-197 -162q67 -32 113.5 -60.5t91 -68.5t67.5 -91t23 -112q0 -74 -27.5 -137 t-73 -107t-105.5 -74.5t-124.5 -45t-130.5 -14.5q-200 0 -315 95.5t-115 231.5zM215 328q0 -156 99.5 -242t258.5 -86q93 0 168 47.5t112.5 117t37.5 142.5q0 36 -11.5 69.5t-28.5 59t-47.5 52t-57.5 45t-70 41t-73.5 37t-79.5 37t-77 36.5q-107 -43 -169 -138t-62 -218z M287 1044q0 -30 6.5 -57t22.5 -51t31.5 -43t44.5 -39.5t49 -34t58.5 -33t60 -29.5t66 -30t64.5 -29q180 107 180 326q0 142 -78.5 224.5t-228.5 82.5q-66 0 -120 -26t-87.5 -68t-51 -92t-17.5 -101z" />
<glyph unicode="9" horiz-adv-x="1155" d="M133 901q0 202 126 326.5t314 124.5q112 0 199.5 -43t141 -118t81 -171.5t27.5 -208.5q0 -327 -195 -562.5t-510 -289.5l-6 14q478 136 578 670q-169 -141 -357 -141q-181 0 -290 113t-109 286zM266 922q0 -160 82 -275t215 -115q84 0 174.5 41t149.5 103 q21 185 -14 335.5t-114.5 235t-185.5 84.5q-132 0 -219.5 -117t-87.5 -292z" />
<glyph unicode=":" horiz-adv-x="593" d="M184 102q0 47 33 80t80 33t80 -33t33 -80t-33 -79.5t-80 -32.5t-80 32.5t-33 79.5zM184 686q0 47 33 80t80 33t80 -33t33 -80t-33 -80t-80 -33t-80 33t-33 80z" />
<glyph unicode=";" horiz-adv-x="614" d="M184 102q0 49 34 81t79 32q70 0 101.5 -47.5t31.5 -116.5q0 -233 -227 -338l-10 25q76 35 130 93t54 103q0 30 -26.5 43t-53.5 13q-50 0 -81.5 33.5t-31.5 78.5zM195 686q0 47 32.5 80t79.5 33t80 -33t33 -80t-33 -80t-80 -33t-79.5 33t-32.5 80z" />
<glyph unicode="&#x3c;" horiz-adv-x="983" d="M211 647v35l561 369v-23l-547 -362l547 -367v-23z" />
<glyph unicode="=" horiz-adv-x="1146" d="M211 516v21h725v-21h-725zM211 803v20h725v-20h-725z" />
<glyph unicode="&#x3e;" horiz-adv-x="983" d="M211 276v23l547 367l-547 362v23l561 -369v-35z" />
<glyph unicode="?" horiz-adv-x="993" d="M82 1208q0 123 108.5 205t270.5 82q71 0 135.5 -22t117 -64.5t84 -112.5t31.5 -159q0 -73 -30.5 -143t-76.5 -121.5t-105 -97t-109.5 -73.5t-97.5 -47l16 -327h-29l-16 334q63 30 118.5 73.5t103.5 101.5t76 136t28 164q0 87 -27.5 161t-92 125.5t-157.5 51.5 q-65 0 -118.5 -18t-84 -45t-47 -53.5t-16.5 -47.5q0 -24 11 -42t25 -27t25 -23t11 -31q0 -28 -23 -45t-49 -17q-10 0 -17 0.5t-20.5 5t-22 12t-15.5 24.5t-7 40zM307 102q0 47 33 80t80 33t79.5 -33t32.5 -80t-32.5 -79.5t-79.5 -32.5t-80 32.5t-33 79.5z" />
<glyph unicode="@" horiz-adv-x="1740" d="M164 313q0 169 65 321t172.5 258.5t250.5 169t294 62.5q130 0 243.5 -37.5t200.5 -108.5t137 -183t50 -252q0 -122 -36.5 -229t-95 -178t-131.5 -111.5t-147 -40.5q-78 0 -118 42.5t-45 108.5q-44 -78 -112 -116.5t-136 -38.5q-110 0 -169 80t-59 198q0 92 31.5 186.5 t85 171.5t132 126t165.5 49q125 0 207 -82l74 59h10l-107 -569q-5 -29 -7.5 -45t-4.5 -42.5t2.5 -42t14 -32t28.5 -24t47 -7.5q46 0 99.5 40t100.5 107.5t78.5 169.5t31.5 212q0 137 -47 247t-127.5 179.5t-182.5 106t-217 36.5q-132 0 -258 -67.5t-218 -176t-148 -252.5 t-56 -291q0 -288 163 -457t435 -169q130 0 269 43.5t237 122.5l8 -13q-111 -93 -255.5 -143.5t-301.5 -50.5q-198 0 -347 85.5t-227.5 235.5t-78.5 342zM662 268q0 -71 10.5 -128.5t39 -98.5t72.5 -41q71 0 139.5 65.5t88.5 163.5l94 476q-28 31 -69.5 49t-84.5 18 q-59 0 -108.5 -34.5t-82.5 -88.5t-56 -122.5t-33 -134t-10 -124.5z" />
<glyph unicode="A" horiz-adv-x="1413" d="M41 0v20q86 15 114.5 35t49.5 82l450 1307h60l479 -1307q11 -31 20 -47.5t28 -33t50 -24.5t80 -12v-20h-491v20q139 15 172 37q19 13 19 41q0 19 -9 45l-131 369h-578l-129 -375q-8 -24 -8 -41q-1 -32 25 -44q40 -18 209 -32v-20h-410zM360 532h564l-283 803h-4z" />
<glyph unicode="B" horiz-adv-x="1249" d="M92 0v20h1q130 8 158 19q31 13 35 54q1 12 1 30v1188q0 66 -29 80.5t-159 21.5h-7v21h533q225 0 348 -95.5t123 -253.5q0 -119 -109 -213t-270 -131v-4q211 -32 325.5 -132.5t114.5 -225.5q0 -173 -123 -276t-348 -103h-594zM399 20h277q86 0 151 23t103.5 59t62.5 86.5 t32.5 98.5t8.5 102q0 70 -25 129t-75.5 107t-137.5 75t-202 27h-195v-707zM399 748h174q198 0 299 88.5t101 228.5q0 51 -11.5 99t-38.5 94t-67.5 80t-102.5 54.5t-139 20.5h-215v-665z" />
<glyph unicode="C" horiz-adv-x="1310" d="M113 717q0 158 52 296t141 234.5t211.5 151.5t260.5 55q243 0 441 -123l20 -276h-20q-16 71 -52.5 137t-90.5 121t-131.5 88t-166.5 33q-113 0 -212.5 -50.5t-172.5 -142t-115 -227.5t-42 -297t42 -297t115 -227.5t172.5 -142t212.5 -50.5q83 0 153 24t118 61.5t86 89.5 t59.5 101.5t34.5 102.5h20l-30 -277q-196 -122 -441 -122q-138 0 -260.5 55t-211.5 151.5t-141 234.5t-52 296z" />
<glyph unicode="D" horiz-adv-x="1515" d="M92 0v20h1q130 8 158 19q31 13 35 54q1 12 1 30v1188q0 66 -29 80.5t-159 21.5h-7v21h635q143 0 268 -52t215 -144.5t141.5 -227.5t51.5 -293t-51.5 -293t-141.5 -227.5t-215 -144.5t-268 -52h-635zM399 20h328q109 0 209 49t176.5 137.5t122 221t45.5 289.5 q0 156 -46 289t-123 221t-176.5 137t-207.5 49h-328v-1393z" />
<glyph unicode="E" horiz-adv-x="1228" d="M92 0v20h1q130 8 158 19q31 13 35 54q1 12 1 30v1188q0 66 -29 80.5t-159 21.5h-7v21h1014l10 -328h-20q-34 148 -97.5 227.5t-179.5 79.5h-420v-676h256q106 0 159.5 52.5t66.5 173.5h20v-471h-20q-13 121 -66.5 173t-159.5 52h-256v-697h400q255 0 317 308h21l-21 -328 h-1024z" />
<glyph unicode="F" horiz-adv-x="1177" d="M92 0v20h1q130 8 158 19q31 13 35 54q1 12 1 30v1188q0 66 -29 80.5t-159 21.5h-7v21h1014l10 -328h-20q-34 148 -97.5 227.5t-179.5 79.5h-420v-717h256q106 0 159.5 52.5t66.5 173.5h20v-471h-20q-13 121 -66.5 173t-159.5 52h-256v-553q0 -25 1.5 -39t11 -26t19 -17.5 t36 -10t51 -6t75.5 -4.5h1v-20h-502z" />
<glyph unicode="G" horiz-adv-x="1454" d="M113 717q0 158 52 296t141 234.5t211.5 151.5t260.5 55q243 0 441 -123l20 -276h-20q-16 71 -52.5 137t-90.5 121t-131.5 88t-166.5 33q-113 0 -212.5 -50.5t-172.5 -142t-115 -227.5t-42 -297t42 -297t115 -227.5t172.5 -142t212.5 -50.5q125 0 218 63t151 164v285 q0 66 -29 80.5t-159 21.5h-7v21h461v-21q-34 -3 -45.5 -3.5t-34 -3.5t-28 -5.5t-18 -8t-14.5 -11.5t-7 -16.5t-5.5 -23t-0.5 -30.5v-522h-21l-29 176q-190 -186 -432 -186q-138 0 -260.5 55t-211.5 151.5t-141 234.5t-52 296z" />
<glyph unicode="H" horiz-adv-x="1587" d="M92 0v20h1q130 8 158 19q31 13 35 54q1 12 1 30v1188q0 66 -29 80.5t-159 21.5h-7v21h502v-21h-1h-1h-1h-1h-1h-2q-126 -8 -153 -19q-30 -13 -34 -54l-1 -29v-563h789v563q0 66 -29 80.5t-159 21.5h-7v21h502v-21h-1h-1h-1h-1h-1h-2q-126 -8 -153 -19q-30 -13 -34 -54 q-1 -12 -1 -29v-1188q0 -25 1.5 -39t11 -26t19 -17.5t36 -10t51 -6t75.5 -4.5h1v-20h-502v20q130 7 158 19q31 12 36 52q1 13 1 32v604h-789v-604q0 -25 1.5 -39t11 -26t19 -17.5t36 -10t51 -6t75.5 -4.5h1v-20h-502z" />
<glyph unicode="I" horiz-adv-x="686" d="M92 0v20h1q130 8 158 19q31 13 35 54q1 12 1 30v1188q0 66 -29 80.5t-159 21.5h-7v21h502v-21h-1h-1h-1h-1h-1h-2q-126 -8 -153 -19q-30 -13 -34 -54l-1 -29v-1188q0 -25 1.5 -39t11 -26t19 -17.5t36 -10t51 -6t75.5 -4.5h1v-20h-502z" />
<glyph unicode="J" horiz-adv-x="747" d="M20 51q0 62 82 62q18 0 39 -18t47.5 -36t57.5 -18q67 0 95 80.5t28 236.5v953q0 66 -29 80.5t-159 21.5h-7v21h502v-21h-1h-1h-1h-1h-1h-2q-126 -8 -153 -19q-30 -13 -34 -54l-1 -29v-901q0 -99 -32.5 -183t-84.5 -136.5t-113 -81.5t-122 -29q-109 0 -109 71z" />
<glyph unicode="K" horiz-adv-x="1454" d="M92 0v20h1q130 8 158 19q31 13 35 54q1 12 1 30v1188q0 66 -29 80.5t-159 21.5h-7v21h502v-21h-1h-1h-1h-1h-1h-2q-126 -8 -153 -19q-30 -13 -34 -54l-1 -29v-563q107 0 166.5 11.5t89.5 32.5t68 68l309 385q25 31 25 59.5t-22 51.5t-70 38t-115 19v21h471v-21 q-86 -7 -131.5 -34.5t-93.5 -88.5l-451 -553q70 -51 215 -225l230 -272q31 -37 48.5 -56.5t53 -53.5t65 -53t71.5 -36t85 -21v-20h-256q-47 44 -107.5 113.5t-108.5 128.5t-52 63l-258 305q-53 63 -107 89t-125 28v-604q0 -25 1.5 -39t11 -26t19 -17.5t36 -10t51 -6 t75.5 -4.5h1v-20h-502z" />
<glyph unicode="L" horiz-adv-x="1157" d="M92 0v20h1q130 8 158 19q31 13 35 54q1 12 1 30v1188q0 66 -29 80.5t-159 21.5h-7v21h502v-21h-1h-1h-1h-1h-1h-2q-126 -8 -153 -19q-30 -13 -34 -54l-1 -29v-1291h379q125 0 206 77.5t112 230.5h20l-20 -328h-1004z" />
<glyph unicode="M" horiz-adv-x="1781" d="M82 0v20h1q129 7 157 19q30 12 35 52q1 13 1 32v1188q0 58 -20 75q-22 17 -116 24q-15 1 -58 3v21h307l524 -1264l478 1264h299v-21h-1h-1h-1h-1h-1h-2q-126 -8 -153 -19q-30 -13 -34 -54q-1 -12 -1 -29v-1188q0 -25 1.5 -39t11 -26t19 -17.5t36 -10t51 -6t75.5 -4.5h1 v-20h-502v20h1q129 7 157 19q30 12 35 52q1 13 1 32v1229l-512 -1362h-10l-563 1351v-1218q0 -24 2.5 -38.5t14.5 -26.5t26 -17.5t49 -10t70 -6t102 -4.5h2v-20h-481z" />
<glyph unicode="N" horiz-adv-x="1484" d="M82 0v20q137 8 169 19q39 14 45 58q1 11 1 26v1188q0 64 -34.5 78.5t-167.5 22.5q-9 1 -13 1v21h307l799 -1233v1110q0 63 -40.5 78t-189.5 23q-11 1 -16 1v21h481v-21q-137 -8 -168 -18q-39 -14 -45 -56q-2 -12 -2 -28v-1321h-20l-871 1341v-1208q0 -64 41 -79t195 -23 q7 -1 10 -1v-20h-481z" />
<glyph unicode="O" d="M113 717q0 212 88 380.5t242 262.5t345 94t345 -94t242.5 -263t88.5 -380t-88.5 -380t-242.5 -263t-345 -94t-345 94t-242 262.5t-88 380.5zM236 717q0 -157 45.5 -292.5t121.5 -227.5t176 -144.5t209 -52.5t209 52.5t176.5 144t122 227.5t45.5 293t-45.5 293t-122 227.5 t-176.5 144t-209 52.5t-209 -52.5t-176 -144.5t-121.5 -227.5t-45.5 -292.5z" />
<glyph unicode="P" horiz-adv-x="1218" d="M92 0v20h1q130 8 158 19q31 13 35 54q1 12 1 30v1188q0 66 -29 80.5t-159 21.5h-7v21h592q224 0 348.5 -108t124.5 -282q0 -65 -17 -123t-58 -113t-103.5 -95t-161 -64t-223.5 -24h-195v-502q0 -25 1.5 -39t11 -26t19 -17.5t36 -10t51 -6t75.5 -4.5h1v-20h-502zM399 645 h195q98 0 175.5 22.5t126 59t80.5 86.5t45 102t13 109q0 53 -10.5 104t-38 103.5t-68.5 92t-109 64.5t-153 25h-256v-768z" />
<glyph unicode="Q" d="M113 717q0 212 88 380.5t242 262.5t345 94t345 -94t242.5 -263t88.5 -380q0 -156 -50 -291t-136.5 -231t-208 -152.5t-260.5 -60.5q196 -161 306 -222t177 -61q52 0 88.5 23.5t69.5 74.5l14 -12q-17 -42 -32 -71t-39 -60.5t-57 -47.5t-74 -16q-51 0 -99.5 26.5 t-135 107.5t-251.5 256q-188 3 -339 97.5t-237.5 262t-86.5 377.5zM236 717q0 -157 45.5 -292.5t121.5 -227.5t176 -144.5t209 -52.5t209 52.5t176.5 144t122 227.5t45.5 293t-45.5 293t-122 227.5t-176.5 144t-209 52.5t-209 -52.5t-176 -144.5t-121.5 -227.5t-45.5 -292.5 z" />
<glyph unicode="R" horiz-adv-x="1372" d="M92 0v20h1q130 8 158 19q31 13 35 54q1 12 1 30v1188q0 66 -29 80.5t-159 21.5h-7v21h572q224 0 348.5 -108t124.5 -282q0 -63 -16 -120t-55 -111.5t-99 -94.5t-153.5 -65.5t-211.5 -27.5q109 -40 168 -86t107 -109l188 -256q100 -136 266 -154v-20h-256q-35 32 -80 87.5 t-73 96.5l-136 195q-128 187 -223 246h-164v-502q0 -25 1.5 -39t11 -26t19 -17.5t36 -10t51 -6t75.5 -4.5h1v-20h-502zM399 645h174q98 0 175.5 22.5t126.5 59t81 86.5t45 102t13 109q0 53 -10.5 104t-38 103.5t-68.5 92t-109 64.5t-153 25h-236v-768z" />
<glyph unicode="S" horiz-adv-x="1095" d="M113 430h20q15 -100 49 -178t76.5 -124.5t95.5 -76t101 -40.5t98 -11q151 0 234 89.5t83 238.5q0 69 -25 125t-67 95t-96.5 72.5t-115 61.5t-120.5 56t-114.5 62.5t-96.5 75.5t-67 99.5t-25 130.5q0 146 110 247t310 101q199 0 369 -92l20 -328h-20q-38 183 -142 291.5 t-237 108.5q-137 0 -217 -70t-80 -186q0 -67 25 -122.5t67 -95t96.5 -74t115 -64t120.5 -60t114.5 -68t96.5 -81.5t67 -106.5t25 -137.5q0 -173 -119 -281t-321 -108q-221 0 -410 102z" />
<glyph unicode="T" horiz-adv-x="1177" d="M61 1106l11 328h1034l10 -328h-20q-34 148 -97.5 227.5t-179.5 79.5h-174v-1290q0 -25 1.5 -39t11 -26t19 -17.5t36 -10t51 -6t75.5 -4.5h1v-20h-502v20h1q129 7 157 19q30 12 35 52q1 13 1 32v1290h-174q-116 0 -179 -79.5t-97 -227.5h-21z" />
<glyph unicode="U" horiz-adv-x="1546" d="M72 1413v21h501v-21q-130 -7 -157 -18q-31 -12 -35 -51q-2 -12 -2 -33v-768q0 -250 111 -386.5t329 -136.5q205 0 328 137t123 386v768q0 65 -37.5 80t-198.5 22h-10v21h461v-21h-1h-1h-1h-1h-1h-2q-126 -8 -153 -19q-30 -13 -34 -54q-1 -12 -1 -29v-758 q0 -275 -140 -424t-392 -149q-492 0 -492 573v758q0 58 -20 75q-22 17 -116 24q-15 1 -58 3z" />
<glyph unicode="V" horiz-adv-x="1372" d="M20 1413v21h492v-21q-139 -15 -172 -37q-19 -13 -19 -41q0 -19 9 -45l422 -1192h4l411 1198q8 24 8 41q0 31 -25 43q-39 18 -208 33v21h410v-21q-86 -15 -114.5 -35t-49.5 -82l-451 -1306h-59l-479 1306q-21 60 -54 85t-125 32z" />
<glyph unicode="W" horiz-adv-x="2048" d="M20 1413v21h492v-21q-91 -10 -133.5 -27t-49.5 -45q-2 -9 -2 -18q0 -23 11 -53l377 -1157h4l340 983l-53 180q-17 62 -56 96t-131 41v21h492v-21q-91 -10 -132.5 -26.5t-48.5 -44.5q-2 -10 -2 -21q0 -22 9 -51l331 -1159h5l344 1114q18 49 18 83q1 8 -1 16 q-6 38 -54 58.5t-162 30.5v21h410v-21q-83 -15 -118.5 -43.5t-56.5 -93.5l-399 -1286h-59l-326 1075l-373 -1075h-59l-430 1286q-10 30 -21 50t-31 40.5t-53.5 31.5t-81.5 15z" />
<glyph unicode="X" horiz-adv-x="1372" d="M41 0v20q47 10 69.5 16t56.5 21t60.5 39t53.5 62l370 538l-315 539q-21 36 -34.5 56t-36 43.5t-47 36.5t-61.5 24.5t-85 17.5v21h532v-21q-118 -7 -152 -53q-15 -20 -16 -45q0 -31 25 -70l266 -457l317 463q13 19 20 31.5t13 30t3 29.5t-15 25.5t-35.5 22t-64 15 t-95.5 8.5v21h430v-21q-49 -7 -83.5 -20.5t-63.5 -39t-47.5 -49t-50.5 -69.5l-318 -467l359 -610q43 -74 86 -98t149 -40v-20h-563v20q136 18 178 62q19 21 20 49q0 33 -26 78l-276 469l-336 -490q-22 -33 -32.5 -56t-6.5 -40.5t16.5 -28.5t45 -19.5t70.5 -13.5t101 -10v-20 h-481z" />
<glyph unicode="Y" horiz-adv-x="1310" d="M20 1413v21h492v-21q-90 -10 -130 -28q-43 -19 -43 -51q0 -27 19 -64l373 -744h4l320 699q19 42 19 74q0 34 -22 56q-42 43 -171 58v21h409v-21q-82 -14 -121.5 -44t-68.5 -93l-352 -770v-383q0 -21 2 -34t5.5 -24.5t14.5 -17.5t22 -11t35.5 -7.5t48 -4.5t65.5 -4h1v-20 h-502v20q130 7 158 19q31 12 36 52q1 13 1 32v360l-408 793q-16 30 -29 48.5t-36.5 40t-58.5 33t-83 15.5z" />
<glyph unicode="Z" horiz-adv-x="1167" d="M61 0v20l900 1393h-558q-117 0 -182 -78.5t-98 -228.5h-21l11 328h972v-21l-897 -1393h600q118 0 199.5 89.5t97.5 218.5h21l-21 -328h-1024z" />
<glyph unicode="[" horiz-adv-x="655" d="M205 -205v1843h409v-22h-307v-1798h307v-23h-409z" />
<glyph unicode="\" horiz-adv-x="845" d="M143 1454h19l540 -1474h-20z" />
<glyph unicode="]" horiz-adv-x="655" d="M41 -182h307v1798h-307v22h410v-1843h-410v23z" />
<glyph unicode="^" horiz-adv-x="1019" d="M205 963l295 471h18l297 -471h-4l-301 309l-301 -309h-4z" />
<glyph unicode="_" horiz-adv-x="970" d="M123 -80h725v-20h-725v20z" />
<glyph unicode="`" horiz-adv-x="710" d="M205 1374q0 29 23 49.5t51 18.5q37 -4 57 -37l170 -266l-8 -9l-258 183q-35 23 -35 61z" />
<glyph unicode="a" horiz-adv-x="1034" d="M102 203q0 43 12.5 78.5t50 75.5t100 70t170 55.5t251.5 39.5v215q0 123 -63 195t-183 72q-95 0 -160 -49t-65 -103q0 -26 36 -58t36 -55q0 -28 -21 -45.5t-53 -17.5q-35 0 -57.5 20.5t-22.5 59.5q0 37 25 85t70.5 94t121.5 77.5t166 31.5q147 0 215 -79t68 -217v-635 q0 -72 69 -72q41 0 142 63l4 -12q-159 -112 -244 -112q-49 0 -66.5 32t-17.5 90v41h-4q-95 -81 -175.5 -122t-168.5 -41q-115 0 -175.5 63.5t-60.5 159.5zM215 225q0 -84 44.5 -134t139.5 -50q37 0 71.5 8.5t79.5 32.5t62.5 35t73.5 47v338q-138 -16 -232.5 -42.5 t-145.5 -63t-72 -77.5t-21 -94z" />
<glyph unicode="b" horiz-adv-x="1177" d="M20 1434v20l287 41h21l-11 -594h11q63 61 155 102t181 41q195 0 308 -148t113 -384q0 -123 -39 -225t-104.5 -168.5t-150 -102.5t-177.5 -36q-47 0 -98.5 8t-119 37.5t-109.5 76.5l-51 -112h-21v1341q0 25 -1.5 39t-11 26t-19 17.5t-36 10t-51 6t-75.5 4.5h-1zM328 307 q0 -84 25 -146.5t65.5 -96t84.5 -49t91 -15.5q120 0 205.5 71.5t124.5 185t39 255.5q0 223 -102 357.5t-249 134.5q-145 0 -284 -121v-576z" />
<glyph unicode="c" horiz-adv-x="983" d="M92 502q0 126 40.5 230.5t109.5 171.5t157 103.5t185 36.5q152 0 239.5 -75.5t87.5 -180.5q0 -49 -23.5 -70.5t-53.5 -21.5q-27 0 -46.5 12.5t-19.5 41.5q0 22 18 40.5t36 35t18 34.5q0 72 -70 118t-176 46q-165 0 -277 -138.5t-112 -332.5q0 -233 113.5 -372.5 t295.5 -139.5q152 0 279 96l8 -14q-158 -143 -338 -143q-112 0 -202.5 42.5t-148.5 115t-89 166t-31 198.5z" />
<glyph unicode="d" horiz-adv-x="1187" d="M92 512q0 123 39 225t104.5 168.5t150 102.5t177.5 36q160 0 287 -102v389q0 25 -1.5 39t-11 26t-19 17.5t-36 10t-51 6t-75.5 4.5h-1v20l287 41h21v-1352q0 -66 28.5 -80.5t159.5 -21.5h6v-21l-276 -40h-21v143h-10q-63 -61 -155 -102t-181 -41q-196 0 -309 148.5 t-113 383.5zM215 512q0 -223 101.5 -357.5t248.5 -134.5q141 0 285 125v572q0 84 -25 146.5t-65.5 96t-84.5 49t-91 15.5q-120 0 -205.5 -71.5t-124.5 -185t-39 -255.5z" />
<glyph unicode="e" horiz-adv-x="1013" d="M92 502q0 126 40.5 230.5t109.5 171.5t157 103.5t185 36.5q63 0 120 -16t107.5 -50.5t80.5 -97t30 -147.5q0 -65 -21 -123h-694q-2 -18 -2 -57q0 -233 113.5 -372.5t295.5 -139.5q149 0 279 96l8 -14q-158 -143 -338 -143q-112 0 -202.5 42.5t-148.5 115t-89 166 t-31 198.5zM209 631h567q12 49 12 151q-6 242 -215 242q-133 0 -237 -111.5t-127 -281.5z" />
<glyph unicode="f" horiz-adv-x="696" d="M72 0v20h1q129 7 157 19q30 12 35 52q1 13 1 32v881h-194v10l194 10v82q0 53 9 104t33 103.5t59.5 92t94 64.5t132.5 25q86 0 145.5 -43t59.5 -111q0 -49 -23.5 -70.5t-54.5 -21.5q-27 0 -46.5 12.5t-19.5 41.5q0 13 15.5 27.5t31 32.5t15.5 40q0 35 -37.5 53.5 t-95.5 18.5q-205 0 -205 -369v-82h266v-20h-266v-881q0 -67 34.5 -81t200.5 -22v-20h-542z" />
<glyph unicode="g" horiz-adv-x="1095" d="M61 -205q0 63 56 118.5t168 125.5q-131 24 -131 133q0 46 33.5 90.5t123.5 97.5q-92 44 -145 126.5t-53 193.5q0 164 112.5 264t286.5 100q133 0 233 -67l269 47v-113l-254 56q68 -51 104.5 -127t36.5 -154q0 -174 -107 -271.5t-282 -97.5q-105 0 -186 37 q-18 -21 -34 -64t-16 -75q0 -40 31 -53.5t107 -18.5l331 -20q120 -7 204.5 -65.5t84.5 -159.5q0 -71 -33.5 -127.5t-88 -93.5t-128.5 -61.5t-152 -35t-161 -10.5q-213 0 -311.5 59.5t-98.5 165.5zM180 -184q0 -94 75 -160t226 -66q55 0 111.5 8.5t113.5 28t100.5 48.5 t71 73.5t27.5 99.5q0 77 -64.5 116t-164.5 46l-373 27q-63 -65 -93 -115.5t-30 -105.5zM246 696q0 -152 80.5 -255t195.5 -103q66 0 115 27.5t76.5 75.5t41 104t13.5 121q0 149 -75 253.5t-191 104.5q-122 0 -189 -92t-67 -236z" />
<glyph unicode="h" horiz-adv-x="1259" d="M72 0v20h1q129 7 157 19q30 12 35 52q1 13 1 32v1208q0 21 -2 34t-5.5 24.5t-14.5 17.5t-22 11t-35.5 7.5t-48 4.5t-65.5 4h-1v20l286 41h21l-10 -666h10q81 96 187 155.5t214 59.5q112 0 183 -74t71 -233v-614q0 -25 1.5 -39t11 -26t19 -17.5t36 -10t51 -6t75.5 -4.5h1 v-20h-461v20q26 2 37 3t30 3t25.5 3.5t19 4.5t16 6.5t10.5 9.5t8.5 12t4 15.5t3 20.5t0.5 25v620q0 47 -11.5 86.5t-36 73t-70 52t-108.5 18.5q-149 0 -317 -164v-686q0 -21 2 -34t5.5 -24.5t14.5 -17.5t22 -11t35.5 -7.5t48 -4.5t65.5 -4h1v-20h-501z" />
<glyph unicode="i" horiz-adv-x="604" d="M72 0v20h1q129 7 157 19q30 12 35 52q1 13 1 32v758q0 66 -28.5 80.5t-159.5 21.5h-6v21l286 40h21v-921q0 -21 2 -34t5.5 -24.5t14.5 -17.5t22 -11t35.5 -7.5t48 -4.5t65.5 -4h1v-20h-501zM215 1288q0 42 29.5 71.5t72.5 29.5t73 -30t30 -71q0 -42 -30 -71t-73 -29 t-72.5 28.5t-29.5 71.5z" />
<glyph unicode="j" horiz-adv-x="563" d="M0 -356q0 28 20 48.5t52 20.5q26 0 69 -35.5t54 -35.5q17 0 26.5 9.5t17 47t7.5 106.5v1076q0 66 -29 80.5t-159 21.5h-7v21l287 40h20v-1003q0 -219 -78.5 -345t-187.5 -126q-92 0 -92 74zM195 1288q0 42 29.5 71.5t72.5 29.5t72.5 -29.5t29.5 -71.5q0 -43 -29.5 -71.5 t-72.5 -28.5t-72.5 28.5t-29.5 71.5z" />
<glyph unicode="k" horiz-adv-x="1198" d="M72 0v20h1q129 7 157 19q30 12 35 52q1 13 1 32v1208q0 21 -2 34t-5.5 24.5t-14.5 17.5t-22 11t-35.5 7.5t-48 4.5t-65.5 4h-1v20l286 41h21v-942h1h1h1h1h1h1h1h1h1h1h1h1h1h1h1h1h1h1h2q124 0 162 11q46 13 100 71l15 16l158 189q29 33 37.5 58.5t-3.5 47.5t-57 36.5 t-123 21.5v20h428v-20q-23 -3 -43 -7.5t-38 -11.5t-30.5 -11.5t-27 -16t-21.5 -15.5t-21 -19.5t-17.5 -19t-18.5 -22t-18 -21.5l-252 -295l405 -467l9 -10q9 -11 13 -15t14.5 -14t20.5 -15.5t25 -12.5t33 -11t39 -6v-14h-236l-387 469q-33 38 -71.5 50.5t-114.5 12.5v-409 q0 -21 2 -34t5.5 -24.5t14.5 -17.5t22 -11t35.5 -7.5t48 -4.5t65.5 -4h1v-20h-501z" />
<glyph unicode="l" horiz-adv-x="604" d="M72 0v20h1q129 7 157 19q30 12 35 52q1 13 1 32v1208q0 21 -2 34t-5.5 24.5t-14.5 17.5t-22 11t-35.5 7.5t-48 4.5t-65.5 4h-1v20l286 41h21v-1372q0 -21 2 -34t5.5 -24.5t14.5 -17.5t22 -11t35.5 -7.5t48 -4.5t65.5 -4h1v-20h-501z" />
<glyph unicode="m" horiz-adv-x="1873" d="M72 0v20h1q129 7 157 19q30 12 35 52q1 13 1 32v758q0 66 -28.5 80.5t-159.5 21.5h-6v21l286 40h21l-10 -215h10q181 215 381 215q98 0 162.5 -54.5t87.5 -158.5h6q183 213 379 213q112 0 183 -74t71 -233v-614q0 -21 2 -34t5.5 -24.5t14.5 -17.5t22 -11t35.5 -7.5 t48 -4.5t65.5 -4h1v-20h-440v20q36 3 50 4.5t34 6t25.5 10t13.5 17t9 26.5t1 39v651q0 92 -47 145.5t-137 53.5q-89 0 -177 -46t-161 -118v-686q0 -21 2 -34t5.5 -24.5t14.5 -17.5t22 -11t35.5 -7.5t48 -4.5t65.5 -4h1v-20h-440v20q36 3 50 4.5t34 6t25.5 10t13.5 17t9 26.5 t1 39v651q0 92 -47 145.5t-137 53.5q-92 0 -180 -47t-158 -117v-686q0 -21 2 -34t5.5 -24.5t14.5 -17.5t22 -11t35.5 -7.5t48 -4.5t65.5 -4h1v-20h-501z" />
<glyph unicode="n" horiz-adv-x="1259" d="M72 0v20h1q129 7 157 19q30 12 35 52q1 13 1 32v758q0 66 -28.5 80.5t-159.5 21.5h-6v21l286 40h21l-10 -215h10q81 96 187 155.5t214 59.5q112 0 183 -74t71 -233v-614q0 -25 1.5 -39t11 -26t19 -17.5t36 -10t51 -6t75.5 -4.5h1v-20h-461v20q26 2 37 3t30 3t25.5 3.5 t19 4.5t16 6.5t10.5 9.5t8.5 12t4 15.5t3 20.5t0.5 25v620q0 47 -11.5 86.5t-36 73t-70 52t-108.5 18.5q-149 0 -317 -164v-686q0 -21 2 -34t5.5 -24.5t14.5 -17.5t22 -11t35.5 -7.5t48 -4.5t65.5 -4h1v-20h-501z" />
<glyph unicode="o" horiz-adv-x="1126" d="M92 512q0 149 57 269.5t165.5 191.5t248.5 71t248.5 -71t165.5 -191.5t57 -269.5t-57 -269.5t-165.5 -191.5t-248.5 -71t-248.5 71t-165.5 191.5t-57 269.5zM215 512q0 -232 94 -372t254 -140t254 140t94 372t-94 372t-254 140t-254 -140t-94 -372z" />
<glyph unicode="p" horiz-adv-x="1208" d="M51 -389q131 8 158 18q31 12 36 52q1 13 1 32v1168q0 66 -29 80.5t-159 21.5h-7v21l287 40h20l-10 -143h10q63 61 155 102t181 41q196 0 309 -148.5t113 -383.5q0 -123 -39 -225t-104.5 -168.5t-150 -102.5t-177.5 -36q-71 0 -154.5 20t-132.5 61v-348q0 -66 29 -80.5 t159 -21.5h7v-21h-502v21zM358 307q0 -84 25 -146.5t66 -96t85 -49t91 -15.5q91 0 162.5 41t115.5 112t67 162.5t23 196.5q0 223 -101.5 357.5t-248.5 134.5q-143 0 -285 -123v-574z" />
<glyph unicode="q" horiz-adv-x="1167" d="M92 512q0 123 39 225t104.5 168.5t150 102.5t177.5 36q80 0 173.5 -27.5t154.5 -94.5l51 112h21v-1321q0 -66 28.5 -80.5t159.5 -21.5h6v-21h-502v21h1h1h1h1h1h1q126 8 153 19q29 12 34 53q2 12 2 30l10 410h-10q-63 -61 -155 -102t-181 -41q-196 0 -309 148.5 t-113 383.5zM215 512q0 -223 101.5 -357.5t248.5 -134.5q141 0 285 125v572q0 84 -25 146.5t-65.5 96t-84.5 49t-91 15.5q-120 0 -205.5 -71.5t-124.5 -185t-39 -255.5z" />
<glyph unicode="r" horiz-adv-x="839" d="M72 0v20h1q129 7 157 19q30 12 35 52q1 13 1 32v758q0 66 -28.5 80.5t-159.5 21.5h-6v21l286 40h21l-10 -235h10q176 235 338 235q45 0 73.5 -23t28.5 -63q0 -31 -21 -54t-53 -23q-18 0 -38.5 17.5t-46 35.5t-56.5 18q-51 0 -105 -41t-120 -123v-665q0 -67 34.5 -81 t200.5 -22v-20h-542z" />
<glyph unicode="s" horiz-adv-x="870" d="M92 328h21q18 -88 53 -154t79 -102.5t89 -54t92 -17.5q114 0 177 63.5t63 157.5q0 50 -19.5 89.5t-52 66.5t-74.5 49.5t-89 41.5l-94 38t-89 43t-74.5 53.5t-52 73.5t-19.5 98q0 122 95 196t243 74q149 0 281 -63l16 -264h-20q-6 119 -99.5 213t-193.5 94 q-106 0 -162.5 -51.5t-56.5 -136.5q0 -48 19.5 -87t53 -65t76 -47.5t90.5 -40t95.5 -37.5t90 -44t76 -55.5t53 -76t19.5 -102.5q0 -142 -99.5 -221.5t-258.5 -79.5t-301 71z" />
<glyph unicode="t" horiz-adv-x="727" d="M51 1004v10l195 10l92 307h20v-307h297v-20h-297v-791q0 -108 35.5 -152.5t98.5 -44.5q34 0 74.5 16.5t58 28t55.5 37.5l6 -16q-130 -102 -250 -102q-98 0 -144 58t-46 187v779h-195z" />
<glyph unicode="u" horiz-adv-x="1239" d="M51 983v21l287 40h20v-794q0 -92 47.5 -145.5t137.5 -53.5q100 0 194.5 47.5t163.5 116.5v666q0 30 -4 45t-15.5 27t-38.5 16.5t-66 7.5t-105 6h-6v21l327 40h21v-901q0 -66 28.5 -80.5t159.5 -21.5h6v-21l-276 -40h-21v215h-10q-81 -96 -187 -155.5t-214 -59.5 q-112 0 -183 74t-71 233v594q0 66 -29 80.5t-159 21.5h-7z" />
<glyph unicode="v" horiz-adv-x="1105" d="M10 1004v20h461v-20q-90 -10 -132 -28t-46 -46q-1 -5 -1 -10q0 -25 15 -60l316 -758h4l293 758q15 37 15 62q0 28 -19 42q-35 26 -189 40v20h369v-20q-60 -7 -90 -32.5t-52 -84.5l-348 -897h-63l-381 876q-59 138 -152 138z" />
<glyph unicode="w" horiz-adv-x="1720" d="M10 1004v20h461v-20q-90 -10 -131 -27t-45 -45q-1 -6 -1 -12q0 -25 13 -60l271 -762h4l350 936h31l309 -936h4l258 762q11 32 11 55q0 33 -22 47q-38 26 -182 42v20h369v-20q-60 -7 -90 -33t-51 -84l-307 -897h-64l-307 876l-326 -876h-63l-340 876q-13 34 -21.5 51 t-25.5 39.5t-42.5 33.5t-62.5 14z" />
<glyph unicode="x" horiz-adv-x="1146" d="M51 0v20q80 14 117 38t80 81l272 361l-246 381q-38 60 -74 84.5t-128 38.5v20h448v-20q-45 -8 -71 -18t-39 -26.5t-8 -40.5t28 -59l191 -297l210 287q26 35 33 61t-5 46t-49 31.5t-101 15.5v20h366v-20q-78 -14 -113.5 -38.5t-80.5 -84.5l-250 -336l260 -402 q35 -54 78 -81t125 -42v-20h-469v20q103 15 125 55q7 13 7 28q0 34 -32 81l-193 297l-247 -327q-19 -24 -23 -45.5t7.5 -40.5t49.5 -31.5t101 -16.5v-20h-369z" />
<glyph unicode="y" horiz-adv-x="1105" d="M10 1004v20h461v-20q-90 -10 -132 -27.5t-46 -46.5q-1 -5 -1 -10q0 -26 15 -60l316 -758h4l293 758q16 41 17 64t-21.5 39.5t-64.5 24.5t-124 16v20h369v-20q-60 -7 -90 -32.5t-52 -84.5l-340 -877q-41 -107 -96.5 -189t-108 -128.5t-111 -75.5t-101.5 -38t-84 -9 q-93 0 -93 74q0 31 19.5 50t54.5 19q20 0 57 -5t62 -5q127 0 205.5 50.5t144.5 191.5l-401 921q-26 61 -61 98t-91 40z" />
<glyph unicode="z" horiz-adv-x="972" d="M61 0v20l680 984h-424q-80 0 -125.5 -69.5t-78.5 -217.5h-21l21 307h757v-20l-680 -984h476q86 0 140.5 67.5t84.5 219.5h20l-30 -307h-820z" />
<glyph unicode="{" horiz-adv-x="745" d="M41 715v6q270 26 270 242q0 73 -24.5 197t-24.5 194q0 144 116 214t327 70v-20q-67 -2 -117.5 -13.5t-92.5 -37t-64.5 -73.5t-22.5 -116q0 -34 13 -183t13 -214q0 -47 -21 -86.5t-45.5 -63t-74 -48t-74.5 -33.5t-79 -26q-10 -3 -15 -5q134 -43 189 -76q119 -73 120 -188 q0 -65 -13 -215.5t-13 -184.5q0 -57 15.5 -99.5t41 -68t65 -41.5t80.5 -22.5t95 -7.5v-21q-211 0 -327 70.5t-116 214.5q0 70 24.5 195t24.5 198q0 216 -270 242z" />
<glyph unicode="|" horiz-adv-x="481" d="M229 -205v1884h21v-1884h-21z" />
<glyph unicode="}" horiz-adv-x="745" d="M41 -184q54 1 95 7.5t80.5 22.5t65 41.5t41 68t15.5 99.5q0 34 -13.5 184.5t-13.5 215.5q0 47 21.5 87t46.5 64t75 48.5t76 34t79 26.5q8 3 12 4q-131 42 -183 72q-127 71 -127 190q0 65 13.5 214t13.5 183q0 68 -22.5 116t-64.5 73.5t-92.5 37t-117.5 13.5v20 q211 0 326.5 -70t115.5 -214q0 -70 -24.5 -194t-24.5 -197q0 -216 271 -242v-6q-271 -26 -271 -242q0 -73 24.5 -198t24.5 -195q0 -144 -116 -214.5t-326 -70.5v21z" />
<glyph unicode="~" horiz-adv-x="1101" d="M205 1077q55 113 84 152q51 67 102 67q35 0 173.5 -43t185.5 -43q74 0 135 93l10 -9q-19 -38 -34.5 -65t-40.5 -61t-54 -52t-59 -18q-43 0 -173.5 41t-173.5 41q-42 0 -73.5 -23.5t-73.5 -83.5z" />
<glyph unicode="&#xa1;" horiz-adv-x="634" d="M205 932q0 47 32.5 79.5t79.5 32.5t80 -32.5t33 -79.5t-33 -80t-80 -33t-79.5 33t-32.5 80zM246 -348q0 60 29.5 462t33.5 593h21q2 -196 32.5 -599t30.5 -456q0 -82 -74 -82q-25 0 -41 8t-22 22t-8 25t-2 27z" />
<glyph unicode="&#xa2;" horiz-adv-x="915" d="M113 913q0 188 114 311t285 128v82h20v-82q133 -2 254 -74l13 -170h-13q-21 89 -88.5 158t-165.5 73v-856q57 1 104 23.5t77 58.5t49 73t29 77h12l-17 -170q-113 -72 -254 -74v-82h-20v82q-170 3 -284.5 128t-114.5 314zM213 913q0 -197 84 -311t215 -119v856 q-130 -5 -214.5 -118.5t-84.5 -307.5z" />
<glyph unicode="&#xa3;" horiz-adv-x="1216" d="M113 23q0 35 29.5 59t74 34t75 13.5t52.5 3.5h8q54 81 71 162t17 176q0 89 -45 184h-256v21h248q-16 32 -62 111t-67.5 134.5t-21.5 112.5q0 137 101 227.5t288 90.5t344 -86l20 -305h-18q-37 169 -133 269.5t-220 100.5q-122 0 -196 -78t-74 -188q0 -62 22 -125 t59.5 -139.5t53.5 -124.5h320v-21h-314q23 -82 23 -139q0 -95 -38 -198.5t-99 -184.5q95 -3 263.5 -32t221.5 -29q166 0 223 235h21q-1 -2 -10 -38.5t-14 -53t-19 -55.5t-27.5 -60.5t-36.5 -52t-48.5 -47t-62 -29t-77.5 -12.5q-52 0 -107 20.5t-97.5 47t-108 54t-131.5 38.5 q-48 -64 -103.5 -101.5t-105.5 -37.5q-18 0 -30.5 12.5t-12.5 30.5z" />
<glyph unicode="&#xa4;" horiz-adv-x="1130" d="M205 928l16 16l152 -184q87 74 194 74t191 -74l151 184l17 -16l-150 -183q96 -96 96 -235q0 -141 -96 -234l148 -176l-17 -18l-149 178q-82 -72 -191 -72t-194 72l-146 -178l-18 18l147 176q-94 94 -94 234q0 139 94 233zM287 510q0 -122 82.5 -209.5t197.5 -87.5 q114 0 197.5 88t83.5 209t-83.5 210t-197.5 89q-115 0 -197.5 -88.5t-82.5 -210.5z" />
<glyph unicode="&#xa5;" horiz-adv-x="1409" d="M113 1313v18h460v-18q-82 -9 -119.5 -26t-38.5 -44t19 -65l344 -703h4l293 662q25 54 23.5 90t-45 56.5t-140.5 29.5v18h383v-18q-75 -13 -112.5 -42t-65.5 -87l-319 -715h307v-20h-311v-336q0 -61 26.5 -74t151.5 -21v-18h-471v18q125 8 151.5 21t26.5 74v336h-305v20 h297l-369 715q-16 29 -27.5 45.5t-33 37t-53.5 31.5t-76 15z" />
<glyph unicode="&#xa6;" horiz-adv-x="481" d="M229 -205v737h21v-737h-21zM229 942v737h21v-737h-21z" />
<glyph unicode="&#xa7;" horiz-adv-x="911" d="M82 246q0 23 7 40t15.5 24.5t22 12t20.5 5t17 0.5q26 0 49 -17t23 -45q0 -26 -36 -51t-36 -51q0 -21 16.5 -50.5t47 -60.5t84 -52t118.5 -21q70 0 125 32.5t87 85.5t48.5 114.5t16.5 125.5q0 86 -33 195t-85 212t-111.5 195.5t-117.5 159.5l9 6q42 -43 93 -101 t118.5 -146.5t121 -174t90.5 -179.5t37 -167q0 -77 -20.5 -141t-56 -107.5t-83 -73.5t-99.5 -43.5t-109 -13.5q-162 0 -270.5 82t-108.5 205zM82 1096q0 96 31.5 171t84.5 119t117.5 66.5t135.5 22.5q161 0 269.5 -82t108.5 -205q0 -23 -7 -40t-15.5 -24.5t-22 -12t-20 -5 t-16.5 -0.5q-27 0 -49.5 16.5t-22.5 44.5q0 17 11 30.5t25 21t25 21t11 30.5q0 21 -16.5 50.5t-47 60t-84.5 52t-119 21.5q-56 0 -103 -21.5t-78.5 -57t-53.5 -82.5t-31.5 -96.5t-9.5 -100.5q0 -113 56.5 -264t133.5 -278.5t156 -219.5l-8 -6q-43 43 -93.5 101t-118.5 146.5 t-121 174t-90.5 179.5t-37.5 167z" />
<glyph unicode="&#xa8;" horiz-adv-x="950" d="M205 1219q0 41 26 67.5t66 26.5q39 0 66.5 -26.5t27.5 -67.5q0 -40 -27.5 -66.5t-66.5 -26.5q-40 0 -66 26t-26 67zM561 1219q0 41 27 67.5t67 26.5q39 0 64.5 -26.5t25.5 -67.5t-25.5 -67t-64.5 -26q-40 0 -67 26t-27 67z" />
<glyph unicode="&#xa9;" horiz-adv-x="1402" d="M82 836q0 126 49 240.5t132 197t198 131.5t241 49q168 0 310.5 -82.5t225.5 -225t83 -310.5t-83 -311t-225.5 -226.5t-310.5 -83.5t-311 83.5t-226 226.5t-83 311zM96 836q0 -123 48 -235.5t129.5 -194t193.5 -129.5t235 -48q164 0 304 81.5t221.5 221.5t81.5 304 q0 123 -48 235t-129.5 193.5t-194 129.5t-235.5 48t-235 -48t-193.5 -129.5t-129.5 -193.5t-48 -235zM385 840q0 159 96 263.5t236 104.5q121 0 221 -61l10 -139h-10q-17 76 -76 133t-145 57q-116 0 -193.5 -98.5t-77.5 -259.5q0 -162 77 -260.5t194 -98.5q51 0 92 17.5 t67 47t42 60t24 64.5h10l-14 -138q-93 -61 -221 -61q-140 0 -236 105t-96 264z" />
<glyph unicode="&#xaa;" horiz-adv-x="839" d="M102 682v20h635v-20h-635zM154 942q0 33 13.5 60.5t48.5 55.5t107 48t177 29v129q0 70 -37 112.5t-107 42.5q-54 0 -91.5 -28t-37.5 -60q0 -18 23.5 -39t23.5 -35q0 -17 -13.5 -28.5t-35.5 -11.5q-23 0 -38 13t-15 38q0 55 66.5 116.5t171.5 61.5q93 0 137.5 -48.5 t44.5 -131.5v-377q0 -41 39 -41q22 0 78 35l2 -9q-95 -67 -152 -67q-59 0 -59 76v22h-2q-54 -49 -102 -73.5t-101 -24.5q-68 0 -104.5 38.5t-36.5 96.5zM246 963q0 -109 102 -109q26 0 54.5 10t47.5 21.5t50 32.5v204q-143 -16 -198.5 -54.5t-55.5 -104.5z" />
<glyph unicode="&#xab;" horiz-adv-x="1482" d="M205 532v35l561 369v-25l-375 -360l375 -367v-22zM717 532v35l561 369v-25l-375 -360l375 -367v-22z" />
<glyph unicode="&#xac;" horiz-adv-x="1222" d="M205 563v21h813v-404h-21v383h-792z" />
<glyph unicode="&#xad;" horiz-adv-x="888" d="M123 539v20h643v-20h-643z" />
<glyph unicode="&#xae;" horiz-adv-x="1402" d="M82 836q0 126 49 240.5t132 197t198 131.5t241 49q168 0 310.5 -82.5t225.5 -225t83 -310.5t-83 -311t-225.5 -226.5t-310.5 -83.5t-311 83.5t-226 226.5t-83 311zM96 836q0 -123 48 -235.5t129.5 -194t193.5 -129.5t235 -48q164 0 304 81.5t221.5 221.5t81.5 304 q0 123 -48 235t-129.5 193.5t-194 129.5t-235.5 48t-235 -48t-193.5 -129.5t-129.5 -193.5t-48 -235zM406 498v10q69 3 83.5 10t14.5 41v594q0 33 -14.5 39.5t-83.5 11.5v10h286q113 0 174.5 -53.5t61.5 -140.5q0 -40 -13.5 -75t-42.5 -65.5t-82.5 -49.5t-125.5 -21 q53 -20 82 -42t53 -54l94 -129q51 -69 133 -76v-10h-129q-45 42 -76 92l-67 96q-66 95 -113 123h-82v-250q0 -34 14.5 -41t83.5 -10v-10h-251zM559 819h88q115 0 167 56t52 135q0 34 -9 65.5t-29 61.5t-59 48.5t-91 18.5h-119v-385z" />
<glyph unicode="&#xaf;" horiz-adv-x="972" d="M205 1141v20h563v-20h-563z" />
<glyph unicode="&#xb0;" horiz-adv-x="509" d="M82 1178q0 72 50 123t122 51t123 -51t51 -123t-51 -122t-123 -50t-122 50t-50 122zM96 1178q0 -68 45 -113t113 -45q69 0 114.5 45t45.5 113q0 69 -45.5 114t-114.5 45q-68 0 -113 -45t-45 -114z" />
<glyph unicode="&#xb1;" horiz-adv-x="1146" d="M211 313v21h350v325h-350v21h350v354h21v-354h354v-21h-354v-325h354v-21h-725z" />
<glyph unicode="&#xb2;" horiz-adv-x="626" d="M61 840v12q210 177 301 312t91 274q0 80 -40 139t-118 59q-71 0 -110.5 -34.5t-39.5 -71.5q0 -18 24 -35.5t24 -32.5q0 -18 -16 -28.5t-34 -10.5q-55 0 -55 52q0 74 66.5 125t164.5 51t165 -58.5t67 -169.5q0 -123 -91 -234.5t-308 -264.5h413v-84h-504z" />
<glyph unicode="&#xb3;" horiz-adv-x="636" d="M61 1004q0 51 56 51q17 0 32 -10t15 -29q0 -15 -21.5 -39t-21.5 -41q0 -29 45 -62t115 -34q86 0 140 52t54 152q0 119 -58.5 166t-170.5 47v13q28 -2 54.5 2.5t53 17.5t46 34t32 55.5t12.5 78.5q0 72 -36.5 125t-108.5 53q-70 0 -109.5 -32t-39.5 -62q0 -18 22.5 -41.5 t22.5 -38.5q0 -18 -16 -28.5t-34 -10.5q-53 0 -53 52q0 72 67 124t165 52q103 0 159 -52.5t56 -138.5q0 -74 -58.5 -125t-154.5 -69v-2q108 -11 178.5 -62.5t70.5 -140.5q0 -75 -43.5 -130t-104 -79.5t-124.5 -24.5q-99 0 -170.5 52t-71.5 125z" />
<glyph unicode="&#xb4;" horiz-adv-x="710" d="M205 1139l170 266q20 33 57 37q28 2 51 -18.5t23 -49.5q0 -38 -35 -61l-258 -183z" />
<glyph unicode="&#xb5;" horiz-adv-x="1239" d="M0 -356q0 28 20 48.5t52 20.5q26 0 69 -35.5t54 -35.5q17 0 26.5 9.5t17 47t7.5 106.5v1076q0 66 -29 80.5t-159 21.5h-7v21l287 40h20v-794q0 -92 47.5 -145.5t137.5 -53.5q100 0 194.5 47.5t163.5 116.5v666q0 30 -4 45t-15.5 27t-38.5 16.5t-66 7.5t-105 6h-6v21 l327 40h21v-901q0 -66 28.5 -80.5t159.5 -21.5h6v-21l-276 -40h-21v215h-10q-81 -96 -187 -155.5t-214 -59.5q-90 0 -152 45q-3 -214 -76.5 -334.5t-179.5 -120.5q-92 0 -92 74z" />
<glyph unicode="&#xb6;" horiz-adv-x="1331" d="M164 1044q0 169 110 279.5t279 110.5h195v-1434h-308v20q130 7 158 19q31 12 36 52q1 13 1 32v491q-118 0 -211 38t-148 100.5t-83.5 137t-28.5 154.5zM860 0v1434h307v-21q-130 -7 -157 -18q-31 -12 -35 -51q-2 -12 -2 -33v-1188q0 -21 2 -34t5.5 -24.5t14.5 -17.5 t22 -11t35.5 -7.5t48 -4.5t65.5 -4h1v-20h-307z" />
<glyph unicode="&#xb7;" horiz-adv-x="612" d="M205 707q0 45 28.5 74.5t71.5 29.5t73 -29.5t30 -74.5q0 -44 -30 -72.5t-73 -28.5t-71.5 28.5t-28.5 72.5z" />
<glyph unicode="&#xb8;" horiz-adv-x="716" d="M217 -430q191 42 191 147q0 51 -30 81.5t-99 47.5l6 154h14v-68q40 -8 74 -20t67 -31.5t52.5 -50.5t19.5 -70q0 -80 -87 -133.5t-202 -68.5z" />
<glyph unicode="&#xb9;" horiz-adv-x="675" d="M61 1546l318 105h12v-740q0 -38 37 -46t186 -13v-12h-540v12q162 5 192 14q32 15 33 45v697l-233 -72z" />
<glyph unicode="&#xba;" horiz-adv-x="839" d="M102 682v20h635v-20h-635zM135 1126q0 137 80 228.5t209 91.5t209 -91.5t80 -228.5q0 -136 -80 -227.5t-209 -91.5t-209 91.5t-80 227.5zM233 1126q0 -143 51 -225t140 -82q88 0 139 82.5t51 224.5t-51 225t-139 83q-89 0 -140 -82.5t-51 -225.5z" />
<glyph unicode="&#xbb;" horiz-adv-x="1482" d="M205 162v22l375 367l-375 360v25l561 -369v-35zM717 162v22l375 367l-375 360v25l561 -369v-35z" />
<glyph unicode="&#xbc;" horiz-adv-x="1740" d="M61 1341l318 105h12v-739q0 -38 37.5 -46.5t185.5 -13.5v-12h-540v12q150 5 187.5 13.5t37.5 46.5v696l-233 -72zM635 -20l541 1474h18l-539 -1474h-20zM1083 227h377v-227h94v227h125v13h-125v571h-12l-459 -571v-13zM1098 240l362 452v-452h-362z" />
<glyph unicode="&#xbd;" horiz-adv-x="1740" d="M61 1341l318 105h12v-739q0 -38 37.5 -46.5t185.5 -13.5v-12h-540v12q150 5 187.5 13.5t37.5 46.5v696l-233 -72zM635 -20l541 1474h18l-539 -1474h-20zM1176 0v12q209 177 300 311.5t91 274.5q0 80 -40 139.5t-118 59.5q-71 0 -110 -35t-39 -72q0 -18 23.5 -35t23.5 -32 q0 -18 -16 -28.5t-34 -10.5q-55 0 -55 51q0 74 67 125t165 51t164.5 -58t66.5 -169q0 -124 -91 -236t-308 -264h413v-84h-503z" />
<glyph unicode="&#xbe;" horiz-adv-x="1740" d="M61 799q0 -73 71.5 -124.5t170.5 -51.5q37 0 74.5 9t73.5 28t63.5 45.5t44 65.5t16.5 85q0 89 -70.5 140.5t-178.5 62.5v2q96 18 154.5 69t58.5 125q0 86 -56 138.5t-159 52.5q-98 0 -165 -52t-67 -124q0 -51 53 -51q18 0 34 10t16 28q0 15 -22.5 38.5t-22.5 41.5 q0 30 39.5 62.5t109.5 32.5q72 0 108.5 -53.5t36.5 -125.5q0 -44 -12.5 -78.5t-32 -55.5t-46 -34t-53 -17.5t-54.5 -2.5v-12q112 0 170.5 -47t58.5 -166q0 -100 -54 -152.5t-140 -52.5q-70 1 -115 34t-45 62q0 17 21.5 41t21.5 39q0 19 -15 29t-32 10q-56 0 -56 -51z M635 -20l541 1474h18l-539 -1474h-20zM1083 227h377v-227h94v227h125v13h-125v571h-12l-459 -571v-13zM1098 240l362 452v-452h-362z" />
<glyph unicode="&#xbf;" horiz-adv-x="993" d="M164 -72q0 73 31 143t76.5 121.5t105 97t110 73.5t97.5 47l-17 297h29l16 -304q-63 -30 -118 -73.5t-103 -102t-76 -136t-28 -163.5q0 -64 16 -122.5t48 -107.5t87 -78.5t125 -29.5q65 0 118.5 18t84 45t47 53.5t16.5 47.5q0 24 -11 42t-24.5 27t-24.5 23t-11 31 q0 29 22.5 45.5t48.5 16.5q10 0 17 -0.5t20.5 -5t22 -12t15.5 -24.5t7 -40q0 -123 -108.5 -205t-270.5 -82q-71 0 -135.5 22t-117 64.5t-84 112.5t-31.5 159zM461 932q0 47 32.5 79.5t79.5 32.5t80 -32.5t33 -79.5t-33 -80t-80 -33t-79.5 33t-32.5 80z" />
<glyph unicode="&#xc0;" horiz-adv-x="1413" d="M41 0v20q86 15 114.5 35t49.5 82l450 1307h60l479 -1307q11 -31 20 -47.5t28 -33t50 -24.5t80 -12v-20h-491v20q139 15 172 37t10 86l-131 369h-578l-129 -375q-22 -66 17.5 -84.5t208.5 -32.5v-20h-410zM360 532h564l-283 803h-4zM375 1790q0 32 25.5 54t56.5 20 q40 -4 61 -41l178 -303l-4 -4l-278 206q-39 27 -39 68z" />
<glyph unicode="&#xc1;" horiz-adv-x="1413" d="M41 0v20q86 15 114.5 35t49.5 82l450 1307h60l479 -1307q11 -31 20 -47.5t28 -33t50 -24.5t80 -12v-20h-491v20q139 15 172 37t10 86l-131 369h-578l-129 -375q-22 -66 17.5 -84.5t208.5 -32.5v-20h-410zM360 532h564l-283 803h-4zM692 1520l178 303q21 37 62 41 q31 2 56.5 -20t25.5 -54q0 -41 -39 -68l-279 -206z" />
<glyph unicode="&#xc2;" horiz-adv-x="1413" d="M41 0v20q86 15 114.5 35t49.5 82l450 1307h60l479 -1307q11 -31 20 -47.5t28 -33t50 -24.5t80 -12v-20h-491v20q139 15 172 37t10 86l-131 369h-578l-129 -375q-22 -66 17.5 -84.5t208.5 -32.5v-20h-410zM360 532h564l-283 803h-4zM422 1516l254 368h18l256 -368h-4 l-260 206l-260 -206h-4z" />
<glyph unicode="&#xc3;" horiz-adv-x="1413" d="M41 0v20q86 15 114.5 35t49.5 82l450 1307h60l479 -1307q11 -31 20 -47.5t28 -33t50 -24.5t80 -12v-20h-491v20q139 15 172 37t10 86l-131 369h-578l-129 -375q-22 -66 17.5 -84.5t208.5 -32.5v-20h-410zM342 1569q55 113 84 152q51 67 102 67q35 0 173.5 -43t185.5 -43 q75 0 135 92l10 -8q-15 -30 -26.5 -51t-31.5 -51t-38 -48.5t-42.5 -32.5t-49.5 -14q-43 0 -173 41t-173 41q-42 0 -74 -23.5t-74 -82.5zM360 532h564l-283 803h-4z" />
<glyph unicode="&#xc4;" horiz-adv-x="1413" d="M41 0v20q86 15 114.5 35t49.5 82l450 1307h60l479 -1307q11 -31 20 -47.5t28 -33t50 -24.5t80 -12v-20h-491v20q139 15 172 37t10 86l-131 369h-578l-129 -375q-22 -66 17.5 -84.5t208.5 -32.5v-20h-410zM360 532h564l-283 803h-4zM379 1649q0 45 28.5 74.5t71.5 29.5 t73 -29.5t30 -74.5q0 -44 -30 -72.5t-73 -28.5t-71.5 28.5t-28.5 72.5zM774 1649q0 45 30 74.5t73 29.5t71.5 -29.5t28.5 -74.5q0 -44 -28.5 -72.5t-71.5 -28.5t-73 28.5t-30 72.5z" />
<glyph unicode="&#xc5;" horiz-adv-x="1413" d="M41 0v20q86 15 114.5 35t49.5 82l444 1290q-59 12 -97 59.5t-38 110.5q0 73 50 124t122 51t123 -51t51 -124q0 -64 -40 -111t-101 -59l475 -1290q11 -31 20 -47.5t28 -33t50 -24.5t80 -12v-20h-491v20q139 15 172 37t10 86l-131 369h-578l-129 -375q-22 -66 17.5 -84.5 t208.5 -32.5v-20h-410zM360 532h564l-283 803h-4zM528 1597q0 -67 45 -112t113 -45q69 0 114.5 44.5t45.5 112.5q0 69 -45.5 114.5t-114.5 45.5q-68 0 -113 -45.5t-45 -114.5z" />
<glyph unicode="&#xc6;" horiz-adv-x="1890" d="M41 0v20q182 32 240 138l680 1276h806l11 -328h-21q-34 148 -97 227.5t-179 79.5h-420v-676h256q105 0 158.5 52t66.5 174h21v-471h-21q-13 121 -66 173t-159 52h-256v-697h399q125 0 206 77.5t112 230.5h20l-20 -328h-1024v20h1q129 7 157 19q30 12 35 52q1 13 1 32v409 h-446l-170 -323q-57 -101 -33 -137.5t152 -51.5v-20h-410zM514 553h434v813h-4z" />
<glyph unicode="&#xc7;" horiz-adv-x="1310" d="M113 717q0 158 52 296t141 234.5t211.5 151.5t260.5 55q243 0 441 -123l20 -276h-20q-16 71 -52.5 137t-90.5 121t-131.5 88t-166.5 33q-113 0 -212.5 -50.5t-172.5 -142t-115 -227.5t-42 -297t42 -297t115 -227.5t172.5 -142t212.5 -50.5q83 0 153 24t118 61.5t86 89.5 t59.5 101.5t34.5 102.5h20l-30 -277q-192 -120 -435 -122v-48q39 -7 75.5 -21.5t71.5 -38t56 -60t21 -80.5q0 -60 -52.5 -109t-122 -75.5t-143.5 -36.5l-6 12q103 29 158 71.5t55 112.5q0 106 -133 139l6 134q-182 2 -332 96t-237.5 262.5t-87.5 378.5z" />
<glyph unicode="&#xc8;" horiz-adv-x="1228" d="M72 0v20h1q129 7 157 19q30 12 35 52q1 13 1 32v1188q0 58 -20 75q-22 17 -116 24q-15 1 -58 3v21h1013l11 -328h-21q-34 148 -97 227.5t-179 79.5h-420v-676h256q105 0 158.5 52t66.5 174h21v-471h-21q-13 121 -66 173t-159 52h-256v-697h399q125 0 206 77.5t112 230.5 h20l-20 -328h-1024zM362 1790q0 32 25.5 54t56.5 20q41 -4 62 -41l178 -303l-4 -4l-279 206q-39 27 -39 68z" />
<glyph unicode="&#xc9;" horiz-adv-x="1228" d="M72 0v20h1q129 7 157 19q30 12 35 52q1 13 1 32v1188q0 58 -20 75q-22 17 -116 24q-15 1 -58 3v21h1013l11 -328h-21q-34 148 -97 227.5t-179 79.5h-420v-676h256q105 0 158.5 52t66.5 174h21v-471h-21q-13 121 -66 173t-159 52h-256v-697h399q125 0 206 77.5t112 230.5 h20l-20 -328h-1024zM643 1520l178 303q21 37 62 41q31 2 56.5 -20t25.5 -54q0 -41 -39 -68l-279 -206z" />
<glyph unicode="&#xca;" horiz-adv-x="1228" d="M72 0v20h1q129 7 157 19q30 12 35 52q1 13 1 32v1188q0 58 -20 75q-22 17 -116 24q-15 1 -58 3v21h1013l11 -328h-21q-34 148 -97 227.5t-179 79.5h-420v-676h256q105 0 158.5 52t66.5 174h21v-471h-21q-13 121 -66 173t-159 52h-256v-697h399q125 0 206 77.5t112 230.5 h20l-20 -328h-1024zM401 1516l254 368h19l256 -368h-4l-260 206l-260 -206h-5z" />
<glyph unicode="&#xcb;" horiz-adv-x="1228" d="M72 0v20h1q129 7 157 19q30 12 35 52q1 13 1 32v1188q0 58 -20 75q-22 17 -116 24q-15 1 -58 3v21h1013l11 -328h-21q-34 148 -97 227.5t-179 79.5h-420v-676h256q105 0 158.5 52t66.5 174h21v-471h-21q-13 121 -66 173t-159 52h-256v-697h399q125 0 206 77.5t112 230.5 h20l-20 -328h-1024zM346 1649q0 45 28.5 74.5t71.5 29.5t73 -29.5t30 -74.5q0 -44 -30 -72.5t-73 -28.5t-71.5 28.5t-28.5 72.5zM741 1649q0 45 30 74.5t73 29.5t71.5 -29.5t28.5 -74.5q0 -44 -28.5 -72.5t-71.5 -28.5t-73 28.5t-30 72.5z" />
<glyph unicode="&#xcc;" horiz-adv-x="686" d="M39 1790q0 32 25.5 54t56.5 20q40 -4 61 -41l178 -303l-4 -4l-278 206q-39 27 -39 68zM92 0v20h1q130 8 158 19q31 13 35 54q1 12 1 30v1188q0 66 -29 80.5t-159 21.5h-7v21h502v-21h-1h-1h-1h-1h-1h-2q-126 -8 -153 -19q-30 -13 -34 -54l-1 -29v-1188q0 -25 1.5 -39 t11 -26t19 -17.5t36 -10t51 -6t75.5 -4.5h1v-20h-502z" />
<glyph unicode="&#xcd;" horiz-adv-x="686" d="M92 0v20h1q130 8 158 19q31 13 35 54q1 12 1 30v1188q0 66 -29 80.5t-159 21.5h-7v21h502v-21h-1h-1h-1h-1h-1h-2q-126 -8 -153 -19q-30 -13 -34 -54l-1 -29v-1188q0 -25 1.5 -39t11 -26t19 -17.5t36 -10t51 -6t75.5 -4.5h1v-20h-502zM322 1520l178 303q21 37 61 41 q31 2 56.5 -20t25.5 -54q0 -41 -39 -68l-278 -206z" />
<glyph unicode="&#xce;" horiz-adv-x="686" d="M78 1516l254 368h18l256 -368h-4l-260 206l-260 -206h-4zM100 0v20h1q130 8 158 19q31 13 35 54q1 12 1 30v1188q0 66 -29 80.5t-159 21.5h-7v21h502v-21q-130 -7 -157 -18q-31 -12 -35 -51q-2 -12 -2 -33v-1188q0 -21 2 -34t5.5 -24.5t14.5 -17.5t22 -11t35.5 -7.5 t48 -4.5t65.5 -4h1v-20h-502z" />
<glyph unicode="&#xcf;" horiz-adv-x="686" d="M43 1649q0 45 28.5 74.5t71.5 29.5t73 -29.5t30 -74.5q0 -44 -30 -72.5t-73 -28.5t-71.5 28.5t-28.5 72.5zM92 0v20h1q130 8 158 19q31 13 35 54q1 12 1 30v1188q0 66 -29 80.5t-159 21.5h-7v21h502v-21h-1h-1h-1h-1h-1h-2q-126 -8 -153 -19q-30 -13 -34 -54l-1 -29 v-1188q0 -25 1.5 -39t11 -26t19 -17.5t36 -10t51 -6t75.5 -4.5h1v-20h-502zM438 1649q0 45 30 74.5t73 29.5t71.5 -29.5t28.5 -74.5q0 -44 -28.5 -72.5t-71.5 -28.5t-73 28.5t-30 72.5z" />
<glyph unicode="&#xd0;" horiz-adv-x="1515" d="M92 0v20h1q130 8 158 19q31 13 35 54q1 12 1 30v586h-195v20h195v582q0 66 -29 80.5t-159 21.5h-7v21h635q143 0 268 -52t215 -144.5t141.5 -227.5t51.5 -293t-51.5 -293t-141.5 -227.5t-215 -144.5t-268 -52h-635zM399 20h328q109 0 209 49t176.5 137.5t122 221 t45.5 289.5q0 156 -46 289t-123 221t-176.5 137t-207.5 49h-328v-684h271v-20h-271v-689z" />
<glyph unicode="&#xd1;" horiz-adv-x="1495" d="M92 0v20q137 8 169 19q39 14 45 58q1 11 1 26v1188q0 64 -34.5 78.5t-167.5 22.5q-9 1 -13 1v21h307l799 -1233v1110q0 63 -40.5 78t-189.5 23q-11 1 -16 1v21h482v-21q-137 -8 -168 -18q-39 -14 -45 -56q-2 -12 -2 -28v-1321h-21l-870 1341v-1208q0 -34 10 -53 t38.5 -28.5t71 -13.5t115.5 -8h10v-20h-481zM463 1569q55 113 84 152q51 67 102 67q35 0 173.5 -43t185.5 -43q75 0 135 92l10 -8q-15 -30 -26.5 -51t-31.5 -51t-38 -48.5t-42.5 -32.5t-49.5 -14q-43 0 -173.5 41t-173.5 41q-42 0 -73.5 -23t-73.5 -83z" />
<glyph unicode="&#xd2;" d="M113 717q0 212 88 380.5t242 262.5t345 94t345 -94t242.5 -263t88.5 -380t-88.5 -380t-242.5 -263t-345 -94t-345 94t-242 262.5t-88 380.5zM236 717q0 -157 45.5 -292.5t121.5 -227.5t176 -144.5t209 -52.5t209 52.5t176.5 144t122 227.5t45.5 293t-45.5 293t-122 227.5 t-176.5 144t-209 52.5t-209 -52.5t-176 -144.5t-121.5 -227.5t-45.5 -292.5zM500 1790q0 32 25.5 54t56.5 20q40 -4 61 -41l178 -303l-4 -4l-278 206q-39 27 -39 68z" />
<glyph unicode="&#xd3;" d="M113 717q0 -212 88 -380.5t242 -262.5t345 -94t345 94t242.5 263t88.5 380t-88.5 380t-242.5 263t-345 94t-345 -94t-242 -262.5t-88 -380.5zM236 717q0 157 45.5 292.5t121.5 227.5t176 144.5t209 52.5t209 -52.5t176.5 -144t122 -227.5t45.5 -293t-45.5 -293 t-122 -227.5t-176.5 -144t-209 -52.5t-209 52.5t-176 144.5t-121.5 227.5t-45.5 292.5zM791 1520l178 303q21 37 61 41q31 2 56.5 -20t25.5 -54q0 -41 -39 -68l-278 -206z" />
<glyph unicode="&#xd4;" d="M113 717q0 -212 88 -380.5t242 -262.5t345 -94t345 94t242.5 263t88.5 380t-88.5 380t-242.5 263t-345 94t-345 -94t-242 -262.5t-88 -380.5zM236 717q0 157 45.5 292.5t121.5 227.5t176 144.5t209 52.5t209 -52.5t176.5 -144t122 -227.5t45.5 -293t-45.5 -293 t-122 -227.5t-176.5 -144t-209 -52.5t-209 52.5t-176 144.5t-121.5 227.5t-45.5 292.5zM524 1516l254 368h19l256 -368h-4l-261 206l-260 -206h-4z" />
<glyph unicode="&#xd5;" d="M113 717q0 -212 88 -380.5t242 -262.5t345 -94t345 94t242.5 263t88.5 380t-88.5 380t-242.5 263t-345 94t-345 -94t-242 -262.5t-88 -380.5zM236 717q0 157 45.5 292.5t121.5 227.5t176 144.5t209 52.5t209 -52.5t176.5 -144t122 -227.5t45.5 -293t-45.5 -293 t-122 -227.5t-176.5 -144t-209 -52.5t-209 52.5t-176 144.5t-121.5 227.5t-45.5 292.5zM463 1569q55 113 84 152q51 67 102 67q35 0 173.5 -43t185.5 -43q75 0 135 92l10 -8q-15 -30 -26.5 -51t-31.5 -51t-38 -48.5t-42.5 -32.5t-49.5 -14q-43 0 -173.5 41t-173.5 41 q-42 0 -73.5 -23t-73.5 -83z" />
<glyph unicode="&#xd6;" d="M113 717q0 -212 88 -380.5t242 -262.5t345 -94t345 94t242.5 263t88.5 380t-88.5 380t-242.5 263t-345 94t-345 -94t-242 -262.5t-88 -380.5zM236 717q0 157 45.5 292.5t121.5 227.5t176 144.5t209 52.5t209 -52.5t176.5 -144t122 -227.5t45.5 -293t-45.5 -293 t-122 -227.5t-176.5 -144t-209 -52.5t-209 52.5t-176 144.5t-121.5 227.5t-45.5 292.5zM489 1649q0 45 29 74.5t72 29.5t72.5 -29.5t29.5 -74.5q0 -44 -29.5 -72.5t-72.5 -28.5t-72 28.5t-29 72.5zM885 1649q0 45 29.5 74.5t72.5 29.5t71.5 -29.5t28.5 -74.5 q0 -44 -28.5 -72.5t-71.5 -28.5t-72.5 28.5t-29.5 72.5z" />
<glyph unicode="&#xd7;" horiz-adv-x="1126" d="M225 983l15 16l323 -323l324 323l16 -14l-323 -326l321 -321l-16 -14l-322 319l-321 -319l-15 16l322 319z" />
<glyph unicode="&#xd8;" d="M113 717q0 212 88 380.5t242 262.5t345 94q146 0 275 -57l49 119h21l-54 -127q176 -86 280.5 -264t104.5 -408q0 -211 -88.5 -380t-242.5 -263t-345 -94q-146 0 -270 53l-47 -115h-22l51 125q-177 85 -282 264t-105 410zM236 717q0 -211 76.5 -375.5t205.5 -253.5 l526 1266q-122 80 -256 80q-109 0 -209 -52.5t-176 -144.5t-121.5 -227.5t-45.5 -292.5zM537 76q118 -76 251 -76q109 0 209 52.5t176.5 144t122 227.5t45.5 293q0 209 -76 372t-204 254z" />
<glyph unicode="&#xd9;" horiz-adv-x="1546" d="M72 1413v21h501v-21q-130 -7 -157 -18q-31 -12 -35 -51q-2 -12 -2 -33v-768q0 -250 111 -386.5t329 -136.5q205 0 328 137t123 386v768q0 65 -37.5 80t-198.5 22h-10v21h461v-21h-1h-1h-1h-1h-1h-2q-126 -8 -153 -19q-30 -13 -34 -54q-1 -12 -1 -29v-758 q0 -275 -140 -424t-392 -149q-492 0 -492 573v758q0 58 -20 75q-22 17 -116 24q-15 1 -58 3zM575 1790q0 32 25.5 54t56.5 20q41 -4 62 -41l178 -303l-4 -4l-279 206q-39 27 -39 68z" />
<glyph unicode="&#xda;" horiz-adv-x="1546" d="M72 1413v21h501v-21q-130 -7 -157 -18q-31 -12 -35 -51q-2 -12 -2 -33v-768q0 -250 111 -386.5t329 -136.5q205 0 328 137t123 386v768q0 65 -37.5 80t-198.5 22h-10v21h461v-21h-1h-1h-1h-1h-1h-2q-126 -8 -153 -19q-30 -13 -34 -54q-1 -12 -1 -29v-758 q0 -275 -140 -424t-392 -149q-492 0 -492 573v758q0 58 -20 75q-22 17 -116 24q-15 1 -58 3zM772 1520l178 303q21 37 62 41q31 2 56.5 -20t25.5 -54q0 -41 -39 -68l-279 -206z" />
<glyph unicode="&#xdb;" horiz-adv-x="1546" d="M72 1413v21h501v-21q-130 -7 -157 -18q-31 -12 -35 -51q-2 -12 -2 -33v-768q0 -250 111 -386.5t329 -136.5q205 0 328 137t123 386v768q0 65 -37.5 80t-198.5 22h-10v21h461v-21h-1h-1h-1h-1h-1h-2q-126 -8 -153 -19q-30 -13 -34 -54q-1 -12 -1 -29v-758 q0 -275 -140 -424t-392 -149q-492 0 -492 573v758q0 58 -20 75q-22 17 -116 24q-15 1 -58 3zM535 1516l253 368h19l256 -368h-4l-260 206l-260 -206h-4z" />
<glyph unicode="&#xdc;" horiz-adv-x="1546" d="M72 1413v21h501v-21q-130 -7 -157 -18q-31 -12 -35 -51q-2 -12 -2 -33v-768q0 -250 111 -386.5t329 -136.5q205 0 328 137t123 386v768q0 65 -37.5 80t-198.5 22h-10v21h461v-21h-1h-1h-1h-1h-1h-2q-126 -8 -153 -19q-30 -13 -34 -54q-1 -12 -1 -29v-758 q0 -275 -140 -424t-392 -149q-492 0 -492 573v758q0 58 -20 75q-22 17 -116 24q-15 1 -58 3zM510 1649q0 45 28.5 74.5t71.5 29.5t73 -29.5t30 -74.5q0 -44 -30 -72.5t-73 -28.5t-71.5 28.5t-28.5 72.5zM905 1649q0 45 30 74.5t73 29.5t71.5 -29.5t28.5 -74.5 q0 -44 -28.5 -72.5t-71.5 -28.5t-73 28.5t-30 72.5z" />
<glyph unicode="&#xdd;" horiz-adv-x="1310" d="M20 1413v21h492v-21q-90 -10 -130.5 -28t-42.5 -46t19 -69l373 -744h4l320 699q39 87 -3 130t-171 58v21h409v-21q-82 -14 -121.5 -44t-68.5 -93l-352 -770v-383q0 -21 2 -34t5.5 -24.5t14.5 -17.5t22 -11t35.5 -7.5t48 -4.5t65.5 -4h1v-20h-502v20q130 7 158 19 q31 12 36 52q1 13 1 32v360l-408 793q-16 30 -29 48.5t-36.5 40t-58.5 33t-83 15.5zM653 1520l178 303q21 37 62 41q31 2 56.5 -20t25.5 -54q0 -41 -39 -68l-279 -206z" />
<glyph unicode="&#xde;" horiz-adv-x="1249" d="M92 0v20h1q130 8 158 19q31 13 35 54q1 12 1 30v1188q0 66 -29 80.5t-159 21.5h-7v21h502v-21h-1h-1h-1h-1h-1h-2q-126 -8 -153 -19q-30 -13 -34 -54l-1 -29v-164h285q224 0 348.5 -107.5t124.5 -281.5q0 -65 -17 -123t-58 -113t-103.5 -95t-161 -64.5t-223.5 -24.5h-195 v-215q0 -25 1.5 -39t11 -26t19 -17.5t36 -10t51 -6t75.5 -4.5h1v-20h-502zM399 358h195q98 0 175.5 22.5t126 59t80.5 86.5t45 102t13 109q0 53 -10.5 104t-38 103.5t-68.5 92t-109 64.5t-153 25h-256v-768z" />
<glyph unicode="&#xdf;" horiz-adv-x="1280" d="M72 0v20h1q129 7 157 19q30 12 35 52q1 13 1 32v881h-194v10l194 10v20q0 78 31.5 158.5t85.5 145.5t134 106t169 41q116 0 191 -63t75 -162q0 -46 -25 -93t-60.5 -84t-71.5 -71.5t-61 -69.5t-25 -65q0 -37 26.5 -75.5t68.5 -73.5t93 -72.5t102.5 -79.5t93.5 -86.5 t68.5 -101.5t26.5 -117q0 -141 -97 -221t-241 -80q-69 0 -128.5 16.5t-131.5 54.5l-27 277h21q65 -328 268 -328q101 0 162 73.5t61 168.5q0 61 -23.5 114t-61.5 91t-84 72t-92 65t-84 61.5t-61.5 68.5t-23.5 81q0 37 21 80t51 85.5t60.5 88t51.5 103.5t21 118q0 91 -49 148 t-125 57q-135 0 -216 -112.5t-81 -318.5v-1044h-307z" />
<glyph unicode="&#xe0;" horiz-adv-x="1034" d="M102 203q0 43 12.5 78.5t50 75.5t100 70t170 55.5t251.5 39.5v215q0 123 -63 195t-183 72q-95 0 -160 -49t-65 -103q0 -26 36 -58t36 -55q0 -28 -21 -45.5t-53 -17.5q-35 0 -57.5 20.5t-22.5 59.5q0 37 25 85t70.5 94t121.5 77.5t166 31.5q147 0 215 -79t68 -217v-635 q0 -72 69 -72q41 0 142 63l4 -12q-159 -112 -244 -112q-49 0 -66.5 32t-17.5 90v41h-4q-95 -81 -175.5 -122t-168.5 -41q-115 0 -175.5 63.5t-60.5 159.5zM215 225q0 -84 44.5 -134t139.5 -50q37 0 71.5 8.5t79.5 32.5t62.5 35t73.5 47v338q-138 -16 -232.5 -42.5 t-145.5 -63t-72 -77.5t-21 -94zM223 1374q0 29 23 49.5t51 18.5q37 -4 57 -37l170 -266l-8 -9l-258 183q-35 23 -35 61z" />
<glyph unicode="&#xe1;" horiz-adv-x="1034" d="M102 203q0 43 12.5 78.5t50 75.5t100 70t170 55.5t251.5 39.5v215q0 123 -63 195t-183 72q-95 0 -160 -49t-65 -103q0 -26 36 -58t36 -55q0 -28 -21 -45.5t-53 -17.5q-35 0 -57.5 20.5t-22.5 59.5q0 37 25 85t70.5 94t121.5 77.5t166 31.5q147 0 215 -79t68 -217v-635 q0 -72 69 -72q41 0 142 63l4 -12q-159 -112 -244 -112q-49 0 -66.5 32t-17.5 90v41h-4q-95 -81 -175.5 -122t-168.5 -41q-115 0 -175.5 63.5t-60.5 159.5zM215 225q0 -84 44.5 -134t139.5 -50q37 0 71.5 8.5t79.5 32.5t62.5 35t73.5 47v338q-138 -16 -232.5 -42.5 t-145.5 -63t-72 -77.5t-21 -94zM440 1139l170 266q20 33 58 37q28 2 50.5 -18.5t22.5 -49.5q0 -38 -34 -61l-258 -183z" />
<glyph unicode="&#xe2;" horiz-adv-x="1034" d="M102 203q0 43 12.5 78.5t50 75.5t100 70t170 55.5t251.5 39.5v215q0 123 -63 195t-183 72q-95 0 -160 -49t-65 -103q0 -26 36 -58t36 -55q0 -28 -21 -45.5t-53 -17.5q-35 0 -57.5 20.5t-22.5 59.5q0 37 25 85t70.5 94t121.5 77.5t166 31.5q147 0 215 -79t68 -217v-635 q0 -72 69 -72q41 0 142 63l4 -12q-159 -112 -244 -112q-49 0 -66.5 32t-17.5 90v41h-4q-95 -81 -175.5 -122t-168.5 -41q-115 0 -175.5 63.5t-60.5 159.5zM215 225q0 -84 44.5 -134t139.5 -50q37 0 71.5 8.5t79.5 32.5t62.5 35t73.5 47v338q-138 -16 -232.5 -42.5 t-145.5 -63t-72 -77.5t-21 -94zM250 1126l231 332h19l231 -332h-4l-238 185l-235 -185h-4z" />
<glyph unicode="&#xe3;" horiz-adv-x="1034" d="M102 203q0 43 12.5 78.5t50 75.5t100 70t170 55.5t251.5 39.5v215q0 123 -63 195t-183 72q-95 0 -160 -49t-65 -103q0 -26 36 -58t36 -55q0 -28 -21 -45.5t-53 -17.5q-35 0 -57.5 20.5t-22.5 59.5q0 37 25 85t70.5 94t121.5 77.5t166 31.5q147 0 215 -79t68 -217v-635 q0 -72 69 -72q41 0 142 63l4 -12q-159 -112 -244 -112q-49 0 -66.5 32t-17.5 90v41h-4q-95 -81 -175.5 -122t-168.5 -41q-115 0 -175.5 63.5t-60.5 159.5zM172 1118q51 104 80 140q46 54 96 55q37 0 168.5 -37t167.5 -37q12 0 20.5 1.5t23.5 7.5t30.5 22t32.5 41l10 -8 q-47 -94 -70 -123q-45 -53 -98 -54q-43 0 -172 37t-172 37q-24 0 -47.5 -16.5t-61.5 -69.5zM215 225q0 -84 44.5 -134t139.5 -50q37 0 71.5 8.5t79.5 32.5t62.5 35t73.5 47v338q-138 -16 -232.5 -42.5t-145.5 -63t-72 -77.5t-21 -94z" />
<glyph unicode="&#xe4;" horiz-adv-x="1034" d="M102 203q0 43 12.5 78.5t50 75.5t100 70t170 55.5t251.5 39.5v215q0 123 -63 195t-183 72q-95 0 -160 -49t-65 -103q0 -26 36 -58t36 -55q0 -28 -21 -45.5t-53 -17.5q-35 0 -57.5 20.5t-22.5 59.5q0 37 25 85t70.5 94t121.5 77.5t166 31.5q147 0 215 -79t68 -217v-635 q0 -72 69 -72q41 0 142 63l4 -12q-159 -112 -244 -112q-49 0 -66.5 32t-17.5 90v41h-4q-95 -81 -175.5 -122t-168.5 -41q-115 0 -175.5 63.5t-60.5 159.5zM215 225q0 -84 44.5 -134t139.5 -50q37 0 71.5 8.5t79.5 32.5t62.5 35t73.5 47v338q-138 -16 -232.5 -42.5 t-145.5 -63t-72 -77.5t-21 -94zM217 1219q0 41 26 67.5t66 26.5q39 0 66.5 -26.5t27.5 -67.5q0 -40 -27.5 -66.5t-66.5 -26.5q-40 0 -66 26t-26 67zM573 1219q0 41 27.5 67.5t67.5 26.5q39 0 64.5 -26.5t25.5 -67.5t-25.5 -67t-64.5 -26q-40 0 -67.5 26t-27.5 67z" />
<glyph unicode="&#xe5;" horiz-adv-x="1034" d="M102 203q0 43 12.5 78.5t50 75.5t100 70t170 55.5t251.5 39.5v215q0 123 -63 195t-183 72q-95 0 -160 -49t-65 -103q0 -26 36 -58t36 -55q0 -28 -21 -45.5t-53 -17.5q-35 0 -57.5 20.5t-22.5 59.5q0 37 25 85t70.5 94t121.5 77.5t166 31.5q147 0 215 -79t68 -217v-635 q0 -72 69 -72q41 0 142 63l4 -12q-159 -112 -244 -112q-49 0 -66.5 32t-17.5 90v41h-4q-95 -81 -175.5 -122t-168.5 -41q-115 0 -175.5 63.5t-60.5 159.5zM215 225q0 -84 44.5 -134t139.5 -50q37 0 71.5 8.5t79.5 32.5t62.5 35t73.5 47v338q-138 -16 -232.5 -42.5 t-145.5 -63t-72 -77.5t-21 -94zM326 1282q0 67 45 112.5t110 45.5q66 0 112 -45.5t46 -112.5q0 -65 -46 -110.5t-112 -45.5q-64 0 -109.5 45.5t-45.5 110.5zM340 1282q0 -60 40.5 -100.5t100.5 -40.5q63 0 103.5 40.5t40.5 100.5q0 63 -40.5 103t-103.5 40q-61 0 -101 -40.5 t-40 -102.5z" />
<glyph unicode="&#xe6;" horiz-adv-x="1607" d="M102 205q0 42 12.5 77.5t50.5 75t100.5 69.5t170 55.5t250.5 39.5v195q0 140 -61.5 213.5t-184.5 73.5q-96 0 -160.5 -48.5t-64.5 -103.5q0 -24 36 -56.5t36 -58.5t-21 -43.5t-55 -17.5q-33 0 -55.5 21t-22.5 61q0 36 24.5 82.5t69.5 93t123 78.5t172 32q219 0 266 -198 q68 96 170.5 147t219.5 51q63 0 120 -16t107.5 -50.5t80.5 -97t30 -147.5q0 -65 -21 -123h-694q-2 -18 -2 -57q0 -233 113.5 -372.5t295.5 -139.5q149 0 279 96l8 -14q-158 -143 -338 -143q-133 0 -232.5 57t-160.5 158q-154 -121 -246 -168t-180 -47q-115 0 -175.5 63.5 t-60.5 161.5zM215 225q0 -83 45 -133.5t139 -50.5q133 0 355 174q-68 124 -68 287q-137 -16 -232 -42.5t-146 -63.5t-72 -78t-21 -93zM803 631h567q12 49 12 151q-3 117 -52.5 179.5t-162.5 62.5q-136 0 -239 -113t-125 -280z" />
<glyph unicode="&#xe7;" horiz-adv-x="983" d="M92 502q0 126 40.5 230.5t109.5 171.5t157 103.5t185 36.5q152 0 239.5 -75.5t87.5 -180.5q0 -49 -23.5 -70.5t-53.5 -21.5q-27 0 -46.5 12.5t-19.5 41.5q0 22 18 40.5t36 35t18 34.5q0 72 -70 118t-176 46q-165 0 -277 -138.5t-112 -332.5q0 -233 113.5 -372.5 t295.5 -139.5q152 0 279 96l8 -14q-153 -139 -330 -143v-48q40 -8 74 -20t67 -31.5t52.5 -50.5t19.5 -70q0 -80 -86.5 -133.5t-201.5 -68.5l-7 12q191 42 191 147q0 51 -30 81.5t-99 47.5l4 134q-110 1 -199 44.5t-146 115.5t-87.5 165t-30.5 197z" />
<glyph unicode="&#xe8;" horiz-adv-x="1013" d="M92 502q0 126 40.5 230.5t109.5 171.5t157 103.5t185 36.5q63 0 120 -16t107.5 -50.5t80.5 -97t30 -147.5q0 -65 -21 -123h-694q-2 -18 -2 -57q0 -233 113.5 -372.5t295.5 -139.5q149 0 279 96l8 -14q-158 -143 -338 -143q-112 0 -202.5 42.5t-148.5 115t-89 166 t-31 198.5zM209 631h567q12 49 12 151q-6 242 -215 242q-133 0 -237 -111.5t-127 -281.5zM330 1374q0 29 22.5 49.5t50.5 18.5q38 -4 58 -37l170 -266l-8 -9l-258 183q-35 23 -35 61z" />
<glyph unicode="&#xe9;" horiz-adv-x="1013" d="M92 502q0 126 40.5 230.5t109.5 171.5t157 103.5t185 36.5q63 0 120 -16t107.5 -50.5t80.5 -97t30 -147.5q0 -65 -21 -123h-694q-2 -18 -2 -57q0 -233 113.5 -372.5t295.5 -139.5q149 0 279 96l8 -14q-158 -143 -338 -143q-112 0 -202.5 42.5t-148.5 115t-89 166 t-31 198.5zM209 631h567q12 49 12 151q-6 242 -215 242q-133 0 -237 -111.5t-127 -281.5zM502 1139l170 266q20 33 57 37q28 2 51 -18.5t23 -49.5q0 -38 -35 -61l-258 -183z" />
<glyph unicode="&#xea;" horiz-adv-x="1013" d="M92 502q0 126 40.5 230.5t109.5 171.5t157 103.5t185 36.5q63 0 120 -16t107.5 -50.5t80.5 -97t30 -147.5q0 -65 -21 -123h-694q-2 -18 -2 -57q0 -233 113.5 -372.5t295.5 -139.5q149 0 279 96l8 -14q-158 -143 -338 -143q-112 0 -202.5 42.5t-148.5 115t-89 166 t-31 198.5zM209 631h567q12 49 12 151q-6 242 -215 242q-133 0 -237 -111.5t-127 -281.5zM319 1126l232 332h18l232 -332h-4l-238 185l-235 -185h-5z" />
<glyph unicode="&#xeb;" horiz-adv-x="1013" d="M92 502q0 126 40.5 230.5t109.5 171.5t157 103.5t185 36.5q63 0 120 -16t107.5 -50.5t80.5 -97t30 -147.5q0 -65 -21 -123h-694q-2 -18 -2 -57q0 -233 113.5 -372.5t295.5 -139.5q149 0 279 96l8 -14q-158 -143 -338 -143q-112 0 -202.5 42.5t-148.5 115t-89 166 t-31 198.5zM209 631h567q12 49 12 151q-6 242 -215 242q-133 0 -237 -111.5t-127 -281.5zM274 1219q0 41 26.5 67.5t66.5 26.5q39 0 66.5 -26.5t27.5 -67.5q0 -40 -27.5 -66.5t-66.5 -26.5q-40 0 -66.5 26t-26.5 67zM631 1219q0 41 27 67.5t67 26.5q39 0 64.5 -26.5 t25.5 -67.5t-25.5 -67t-64.5 -26q-40 0 -67 26t-27 67z" />
<glyph unicode="&#xec;" horiz-adv-x="604" d="M33 1374q0 29 22.5 49.5t50.5 18.5q38 -4 58 -37l170 -266l-8 -9l-258 183q-35 23 -35 61zM72 0v20h1q129 7 157 19q30 12 35 52q1 13 1 32v758q0 66 -28.5 80.5t-159.5 21.5h-6v21l286 40h21v-921q0 -21 2 -34t5.5 -24.5t14.5 -17.5t22 -11t35.5 -7.5t48 -4.5t65.5 -4h1 v-20h-501z" />
<glyph unicode="&#xed;" horiz-adv-x="604" d="M72 0v20h1q129 7 157 19q30 12 35 52q1 13 1 32v758q0 66 -28.5 80.5t-159.5 21.5h-6v21l286 40h21v-921q0 -21 2 -34t5.5 -24.5t14.5 -17.5t22 -11t35.5 -7.5t48 -4.5t65.5 -4h1v-20h-501zM301 1139l170 266q20 33 57 37q28 2 51 -18.5t23 -49.5q0 -38 -35 -61 l-258 -183z" />
<glyph unicode="&#xee;" horiz-adv-x="604" d="M72 0v20h1q129 7 157 19q30 12 35 52q1 13 1 32v758q0 66 -28.5 80.5t-159.5 21.5h-6v21l286 40h21v-921q0 -21 2 -34t5.5 -24.5t14.5 -17.5t22 -11t35.5 -7.5t48 -4.5t65.5 -4h1v-20h-501zM76 1126l231 332h19l231 -332h-4l-238 185l-235 -185h-4z" />
<glyph unicode="&#xef;" horiz-adv-x="604" d="M39 1219q0 41 26 67.5t66 26.5q39 0 66.5 -26.5t27.5 -67.5q0 -40 -27.5 -66.5t-66.5 -26.5q-40 0 -66 26t-26 67zM72 0v20h1q129 7 157 19q30 12 35 52q1 13 1 32v758q0 66 -28.5 80.5t-159.5 21.5h-6v21l286 40h21v-921q0 -21 2 -34t5.5 -24.5t14.5 -17.5t22 -11 t35.5 -7.5t48 -4.5t65.5 -4h1v-20h-501zM395 1219q0 41 27 67.5t67 26.5q39 0 65 -26.5t26 -67.5t-26 -67t-65 -26q-40 0 -67 26t-27 67z" />
<glyph unicode="&#xf0;" horiz-adv-x="1075" d="M92 430q0 97 29 178t77 136t112 93.5t133 56t141 17.5q128 0 229 -37q-83 237 -238 394l-237 -97v25l219 90q-140 137 -330 191l9 18q213 -50 378 -186l226 92v-25l-205 -84q162 -141 255 -339t93 -410q0 -121 -27.5 -222t-81.5 -178t-141.5 -120t-200.5 -43 q-188 0 -314 124t-126 326zM225 410q0 -175 87.5 -292.5t219.5 -117.5q135 0 226.5 144t91.5 376q0 57 -9.5 161t-21.5 169q-105 24 -233 24q-159 0 -260 -126t-101 -338z" />
<glyph unicode="&#xf1;" horiz-adv-x="1259" d="M72 0v20h1q129 7 157 19q30 12 35 52q1 13 1 32v758q0 66 -28.5 80.5t-159.5 21.5h-6v21l286 40h21l-10 -215h10q81 96 187 155.5t214 59.5q112 0 183 -74t71 -233v-614q0 -25 1.5 -39t11 -26t19 -17.5t36 -10t51 -6t75.5 -4.5h1v-20h-461v20q26 2 37 3t30 3t25.5 3.5 t19 4.5t16 6.5t10.5 9.5t8.5 12t4 15.5t3 20.5t0.5 25v620q0 47 -11.5 86.5t-36 73t-70 52t-108.5 18.5q-149 0 -317 -164v-686q0 -21 2 -34t5.5 -24.5t14.5 -17.5t22 -11t35.5 -7.5t48 -4.5t65.5 -4h1v-20h-501zM324 1118q51 104 80 140q46 54 96 55q37 0 168.5 -37 t167.5 -37q12 0 20.5 1.5t23 7.5t30 22t32.5 41l10 -8q-47 -94 -70 -123q-45 -53 -98 -54q-43 0 -172 37t-172 37q-24 0 -47 -16.5t-61 -69.5z" />
<glyph unicode="&#xf2;" horiz-adv-x="1126" d="M92 512q0 149 57 269.5t165.5 191.5t248.5 71t248.5 -71t165.5 -191.5t57 -269.5t-57 -269.5t-165.5 -191.5t-248.5 -71t-248.5 71t-165.5 191.5t-57 269.5zM215 512q0 -232 94 -372t254 -140t254 140t94 372t-94 372t-254 140t-254 -140t-94 -372zM272 1374 q0 29 23 49.5t51 18.5q37 -4 57 -37l170 -266l-8 -9l-258 183q-35 23 -35 61z" />
<glyph unicode="&#xf3;" horiz-adv-x="1126" d="M92 512q0 -149 57 -269.5t165.5 -191.5t248.5 -71t248.5 71t165.5 191.5t57 269.5t-57 269.5t-165.5 191.5t-248.5 71t-248.5 -71t-165.5 -191.5t-57 -269.5zM215 512q0 232 94 372t254 140t254 -140t94 -372t-94 -372t-254 -140t-254 140t-94 372zM514 1139l170 266 q20 33 57 37q28 2 51 -18.5t23 -49.5q0 -38 -35 -61l-258 -183z" />
<glyph unicode="&#xf4;" horiz-adv-x="1126" d="M92 512q0 -149 57 -269.5t165.5 -191.5t248.5 -71t248.5 71t165.5 191.5t57 269.5t-57 269.5t-165.5 191.5t-248.5 71t-248.5 -71t-165.5 -191.5t-57 -269.5zM215 512q0 232 94 372t254 140t254 -140t94 -372t-94 -372t-254 -140t-254 140t-94 372zM324 1126l231 332h18 l232 -332h-4l-238 185l-235 -185h-4z" />
<glyph unicode="&#xf5;" horiz-adv-x="1126" d="M92 512q0 -149 57 -269.5t165.5 -191.5t248.5 -71t248.5 71t165.5 191.5t57 269.5t-57 269.5t-165.5 191.5t-248.5 71t-248.5 -71t-165.5 -191.5t-57 -269.5zM215 512q0 232 94 372t254 140t254 -140t94 -372t-94 -372t-254 -140t-254 140t-94 372zM250 1118 q51 104 80 140q46 54 96 55q37 0 168.5 -37t167.5 -37q12 0 20.5 1.5t23 7.5t30 22t32.5 41l11 -8q-47 -94 -70 -123q-45 -53 -98 -54q-43 0 -172 37t-172 37q-24 0 -47.5 -16.5t-61.5 -69.5z" />
<glyph unicode="&#xf6;" horiz-adv-x="1126" d="M92 512q0 -149 57 -269.5t165.5 -191.5t248.5 -71t248.5 71t165.5 191.5t57 269.5t-57 269.5t-165.5 191.5t-248.5 71t-248.5 -71t-165.5 -191.5t-57 -269.5zM215 512q0 232 94 372t254 140t254 -140t94 -372t-94 -372t-254 -140t-254 140t-94 372zM293 1219 q0 41 26 67.5t66 26.5q39 0 66.5 -26.5t27.5 -67.5q0 -40 -27.5 -66.5t-66.5 -26.5q-40 0 -66 26t-26 67zM649 1219q0 41 27 67.5t67 26.5q39 0 65 -26.5t26 -67.5t-26 -67t-65 -26q-40 0 -67 26t-27 67z" />
<glyph unicode="&#xf7;" horiz-adv-x="1146" d="M211 655v21h725v-21h-725zM496 362q0 39 25.5 65t62.5 26t62.5 -26t25.5 -65q0 -36 -25.5 -59.5t-62.5 -23.5t-62.5 23.5t-25.5 59.5zM496 961q0 39 25.5 64.5t62.5 25.5t62.5 -25.5t25.5 -64.5q0 -36 -25.5 -60t-62.5 -24t-62.5 24t-25.5 60z" />
<glyph unicode="&#xf8;" horiz-adv-x="1126" d="M92 512q0 149 57 269.5t165.5 191.5t248.5 71q96 0 182 -36l39 98h21l-41 -107q126 -61 198 -191.5t72 -295.5q0 -149 -57 -269.5t-165.5 -191.5t-248.5 -71q-93 0 -178 32l-37 -94h-22l39 102q-127 61 -200 193.5t-73 298.5zM215 512q0 -156 43 -272.5t123 -178.5 l352 910q-74 53 -170 53q-160 0 -254 -140t-94 -372zM397 47q71 -47 166 -47q160 0 254 140t94 372q0 153 -42.5 268.5t-120.5 177.5z" />
<glyph unicode="&#xf9;" horiz-adv-x="1239" d="M51 983v21l287 40h20v-794q0 -92 47.5 -145.5t137.5 -53.5q100 0 194.5 47.5t163.5 116.5v666q0 30 -4 45t-15.5 27t-38.5 16.5t-66 7.5t-105 6h-6v21l327 40h21v-901q0 -66 28.5 -80.5t159.5 -21.5h6v-21l-276 -40h-21v215h-10q-81 -96 -187 -155.5t-214 -59.5 q-112 0 -183 74t-71 233v594q0 66 -29 80.5t-159 21.5h-7zM266 1374q0 29 23 49.5t51 18.5q37 -4 57 -37l170 -266l-8 -9l-258 183q-35 23 -35 61z" />
<glyph unicode="&#xfa;" horiz-adv-x="1239" d="M51 983v21l287 40h20v-794q0 -92 47.5 -145.5t137.5 -53.5q100 0 194.5 47.5t163.5 116.5v666q0 30 -4 45t-15.5 27t-38.5 16.5t-66 7.5t-105 6h-6v21l327 40h21v-901q0 -66 28.5 -80.5t159.5 -21.5h6v-21l-276 -40h-21v215h-10q-81 -96 -187 -155.5t-214 -59.5 q-112 0 -183 74t-71 233v594q0 66 -29 80.5t-159 21.5h-7zM559 1139l170 266q20 33 57 37q28 2 51 -18.5t23 -49.5q0 -38 -35 -61l-258 -183z" />
<glyph unicode="&#xfb;" horiz-adv-x="1239" d="M51 983v21l287 40h20v-794q0 -92 47.5 -145.5t137.5 -53.5q100 0 194.5 47.5t163.5 116.5v666q0 30 -4 45t-15.5 27t-38.5 16.5t-66 7.5t-105 6h-6v21l327 40h21v-901q0 -66 28.5 -80.5t159.5 -21.5h6v-21l-276 -40h-21v215h-10q-81 -96 -187 -155.5t-214 -59.5 q-112 0 -183 74t-71 233v594q0 66 -29 80.5t-159 21.5h-7zM358 1126l232 332h18l232 -332h-4l-238 185l-236 -185h-4z" />
<glyph unicode="&#xfc;" horiz-adv-x="1239" d="M51 983v21l287 40h20v-794q0 -92 47.5 -145.5t137.5 -53.5q100 0 194.5 47.5t163.5 116.5v666q0 30 -4 45t-15.5 27t-38.5 16.5t-66 7.5t-105 6h-6v21l327 40h21v-901q0 -66 28.5 -80.5t159.5 -21.5h6v-21l-276 -40h-21v215h-10q-81 -96 -187 -155.5t-214 -59.5 q-112 0 -183 74t-71 233v594q0 66 -29 80.5t-159 21.5h-7zM326 1219q0 41 26 67.5t66 26.5q39 0 66.5 -26.5t27.5 -67.5q0 -40 -27.5 -66.5t-66.5 -26.5q-40 0 -66 26t-26 67zM682 1219q0 41 27 67.5t67 26.5q39 0 64.5 -26.5t25.5 -67.5t-25.5 -67t-64.5 -26q-40 0 -67 26 t-27 67z" />
<glyph unicode="&#xfd;" horiz-adv-x="1105" d="M10 1004v20h461v-20q-90 -10 -132 -27.5t-46 -46t14 -70.5l316 -758h4l293 758q16 41 17 64t-21.5 39.5t-64.5 24.5t-124 16v20h369v-20q-60 -7 -90 -32.5t-52 -84.5l-340 -877q-41 -107 -96.5 -189t-108 -128.5t-111 -75.5t-101.5 -38t-84 -9q-93 0 -93 74q0 31 19.5 50 t54.5 19q20 0 57 -5t62 -5q127 0 205.5 50.5t144.5 191.5l-401 921q-26 61 -61 98t-91 40zM575 1139l170 266q20 33 58 37q28 2 51 -18.5t23 -49.5q0 -38 -35 -61l-258 -183z" />
<glyph unicode="&#xfe;" horiz-adv-x="1177" d="M20 -389q131 8 158 18q31 12 36 52q1 13 1 32v1618q0 25 -1.5 39t-11 26t-19 17.5t-36 10t-51 6t-75.5 4.5h-1v20l287 41h21l-11 -594h11q63 61 155 102t181 41q195 0 308 -148t113 -384q0 -123 -39 -225t-104.5 -168.5t-150 -102.5t-177.5 -36q-71 0 -154 20t-132 61 v-348q0 -66 28.5 -80.5t159.5 -21.5h6v-21h-502v21zM328 307q0 -84 25 -146.5t65.5 -96t84.5 -49t91 -15.5q120 0 205.5 71.5t124.5 185t39 255.5q0 223 -102 357.5t-249 134.5q-142 0 -284 -123v-574z" />
<glyph unicode="&#xff;" horiz-adv-x="1105" d="M10 1004v20h461v-20q-90 -10 -132 -27.5t-46 -46t14 -70.5l316 -758h4l293 758q16 41 17 64t-21.5 39.5t-64.5 24.5t-124 16v20h369v-20q-60 -7 -90 -32.5t-52 -84.5l-340 -877q-41 -107 -96.5 -189t-108 -128.5t-111 -75.5t-101.5 -38t-84 -9q-93 0 -93 74q0 31 19.5 50 t54.5 19q20 0 57 -5t62 -5q127 0 205.5 50.5t144.5 191.5l-401 921q-26 61 -61 98t-91 40zM356 1219q0 41 26.5 67.5t66.5 26.5q39 0 66.5 -26.5t27.5 -67.5q0 -40 -27.5 -66.5t-66.5 -26.5q-40 0 -66.5 26t-26.5 67zM713 1219q0 41 27 67.5t67 26.5q39 0 64.5 -26.5 t25.5 -67.5t-25.5 -67t-64.5 -26q-40 0 -67 26t-27 67z" />
<glyph unicode="&#x152;" horiz-adv-x="1976" d="M113 717q0 212 88 380.5t242 262.5t345 94q85 0 173 -20h892l11 -328h-21q-34 148 -97 227.5t-179 79.5h-420v-676h256q105 0 158.5 52t66.5 174h21v-471h-21q-13 121 -66 173t-159 52h-256v-697h399q125 0 206 77.5t112 230.5h20l-20 -328h-910q-88 -20 -166 -20 q-191 0 -345 94t-242 262.5t-88 380.5zM236 717q0 -157 45.5 -292.5t121.5 -227.5t176 -144.5t209 -52.5q239 0 246 229v983q-2 63 -24 108.5t-58 69t-76.5 34t-87.5 10.5q-109 0 -209 -52.5t-176 -144.5t-121.5 -227.5t-45.5 -292.5z" />
<glyph unicode="&#x153;" horiz-adv-x="1853" d="M92 512q0 149 57 269.5t165.5 191.5t248.5 71q145 0 255 -76t167 -206q62 134 180 208t258 74q63 0 120 -16t107.5 -50.5t80.5 -97t30 -147.5q0 -68 -20 -123h-694q-3 -27 -3 -57q0 -232 114 -372t296 -140q149 0 279 96l8 -14q-158 -143 -338 -143q-151 0 -259 73.5 t-163 198.5q-59 -126 -167 -199t-251 -73q-140 0 -248.5 71t-165.5 191.5t-57 269.5zM215 512q0 -232 94 -372t254 -140t254 140t94 372t-94 372t-254 140t-254 -140t-94 -372zM1049 631h567q12 49 12 151q-6 242 -215 242q-133 0 -237 -111.5t-127 -281.5z" />
<glyph unicode="&#x178;" horiz-adv-x="1310" d="M20 1413v21h492v-21q-90 -10 -130.5 -28t-42.5 -46t19 -69l373 -744h4l320 699q39 87 -3 130t-171 58v21h409v-21q-82 -14 -121.5 -44t-68.5 -93l-352 -770v-383q0 -21 2 -34t5.5 -24.5t14.5 -17.5t22 -11t35.5 -7.5t48 -4.5t65.5 -4h1v-20h-502v20q130 7 158 19 q31 12 36 52q1 13 1 32v360l-408 793q-16 30 -29 48.5t-36.5 40t-58.5 33t-83 15.5zM395 1649q0 45 29 74.5t72 29.5t72.5 -29.5t29.5 -74.5q0 -44 -29.5 -72.5t-72.5 -28.5t-72 28.5t-29 72.5zM791 1649q0 45 29.5 74.5t72.5 29.5t71.5 -29.5t28.5 -74.5q0 -44 -28.5 -72.5 t-71.5 -28.5t-72.5 28.5t-29.5 72.5z" />
<glyph unicode="&#x2c6;" horiz-adv-x="890" d="M205 1126l231 332h19l231 -332h-4l-238 185l-235 -185h-4z" />
<glyph unicode="&#x2dc;" horiz-adv-x="1038" d="M205 1118q51 104 80 140q46 54 96 55q37 0 168.5 -37t167.5 -37q12 0 20.5 1.5t23 7.5t30 22t32.5 41l11 -8q-47 -94 -70 -123q-45 -53 -98 -54q-43 0 -172 37t-172 37q-24 0 -47.5 -16.5t-61.5 -69.5z" />
<glyph unicode="&#x2000;" horiz-adv-x="942" />
<glyph unicode="&#x2001;" horiz-adv-x="1884" />
<glyph unicode="&#x2002;" horiz-adv-x="942" />
<glyph unicode="&#x2003;" horiz-adv-x="1884" />
<glyph unicode="&#x2004;" horiz-adv-x="628" />
<glyph unicode="&#x2005;" horiz-adv-x="471" />
<glyph unicode="&#x2006;" horiz-adv-x="314" />
<glyph unicode="&#x2007;" horiz-adv-x="314" />
<glyph unicode="&#x2008;" horiz-adv-x="235" />
<glyph unicode="&#x2009;" horiz-adv-x="376" />
<glyph unicode="&#x200a;" horiz-adv-x="104" />
<glyph unicode="&#x2010;" horiz-adv-x="888" d="M123 539v20h643v-20h-643z" />
<glyph unicode="&#x2011;" horiz-adv-x="888" d="M123 539v20h643v-20h-643z" />
<glyph unicode="&#x2012;" horiz-adv-x="888" d="M123 539v20h643v-20h-643z" />
<glyph unicode="&#x2013;" horiz-adv-x="1093" d="M123 539v20h848v-20h-848z" />
<glyph unicode="&#x2014;" horiz-adv-x="1298" d="M123 539v20h1053v-20h-1053z" />
<glyph unicode="&#x2018;" horiz-adv-x="614" d="M184 1116q0 232 228 338l10 -24q-76 -35 -130 -93.5t-54 -103.5q0 -30 26 -42.5t53 -12.5q50 0 81.5 -34t31.5 -79q0 -49 -34 -81t-79 -32q-70 0 -101.5 47.5t-31.5 116.5z" />
<glyph unicode="&#x2019;" horiz-adv-x="614" d="M184 1341q0 49 34 81t79 32q70 0 101.5 -47.5t31.5 -116.5q0 -233 -227 -338l-10 25q76 35 130 93.5t54 103.5q0 30 -26.5 42.5t-53.5 12.5q-50 0 -81.5 33.5t-31.5 78.5z" />
<glyph unicode="&#x201a;" horiz-adv-x="614" d="M184 102q0 49 34 81t79 32q70 0 101.5 -47.5t31.5 -116.5q0 -233 -227 -338l-10 25q76 35 130 93t54 103q0 30 -26.5 43t-53.5 13q-50 0 -81.5 33.5t-31.5 78.5z" />
<glyph unicode="&#x201c;" horiz-adv-x="942" d="M184 1116q0 232 228 338l10 -24q-76 -35 -130 -93.5t-54 -103.5q0 -30 26 -42.5t53 -12.5q50 0 81.5 -34t31.5 -79q0 -49 -34 -81t-79 -32q-70 0 -101.5 47.5t-31.5 116.5zM512 1116q0 233 227 338l11 -24q-76 -35 -130.5 -93.5t-54.5 -103.5q0 -30 26.5 -42.5 t53.5 -12.5q50 0 81.5 -34t31.5 -79q0 -49 -34 -81t-79 -32q-70 0 -101.5 47.5t-31.5 116.5z" />
<glyph unicode="&#x201d;" horiz-adv-x="942" d="M184 1341q0 49 34 81t79 32q70 0 101.5 -47.5t31.5 -116.5q0 -233 -227 -338l-10 25q76 35 130 93.5t54 103.5q0 30 -26.5 42.5t-53.5 12.5q-50 0 -81.5 33.5t-31.5 78.5zM512 1341q0 49 34 81t79 32q70 0 101.5 -47.5t31.5 -116.5q0 -232 -228 -338l-10 25 q76 35 130.5 93.5t54.5 103.5q0 30 -26.5 42.5t-53.5 12.5q-50 0 -81.5 33.5t-31.5 78.5z" />
<glyph unicode="&#x201e;" horiz-adv-x="942" d="M184 102q0 49 34 81t79 32q70 0 101.5 -47.5t31.5 -116.5q0 -233 -227 -338l-10 25q76 35 130 93t54 103q0 30 -26.5 43t-53.5 13q-50 0 -81.5 33.5t-31.5 78.5zM512 102q0 49 34 81t79 32q70 0 101.5 -47.5t31.5 -116.5q0 -232 -228 -338l-10 25q76 35 130.5 93 t54.5 103q0 30 -26.5 43t-53.5 13q-50 0 -81.5 33.5t-31.5 78.5z" />
<glyph unicode="&#x2022;" horiz-adv-x="694" d="M184 668q0 69 47 116t115 47q69 0 116.5 -47t47.5 -116q0 -68 -47.5 -115t-116.5 -47q-68 0 -115 47t-47 115z" />
<glyph unicode="&#x2026;" horiz-adv-x="1290" d="M184 102q0 47 33 80t80 33t80 -33t33 -80t-33 -79.5t-80 -32.5t-80 32.5t-33 79.5zM532 102q0 47 33 80t80 33t80 -33t33 -80t-33 -79.5t-80 -32.5t-80 32.5t-33 79.5zM881 102q0 47 32.5 80t79.5 33t80 -33t33 -80t-33 -79.5t-80 -32.5t-79.5 32.5t-32.5 79.5z" />
<glyph unicode="&#x202f;" horiz-adv-x="376" />
<glyph unicode="&#x2039;" horiz-adv-x="970" d="M205 532v35l561 369v-25l-375 -360l375 -367v-22z" />
<glyph unicode="&#x203a;" horiz-adv-x="970" d="M205 162v22l375 367l-375 360v25l561 -369v-35z" />
<glyph unicode="&#x205f;" horiz-adv-x="471" />
<glyph unicode="&#x20ac;" horiz-adv-x="1409" d="M113 514v21h133q-10 54 -10 133q0 63 10 135h-133v20h137q46 236 215 382.5t395 146.5q225 0 408 -113l18 -260h-20q-15 67 -48.5 128t-83 112t-120.5 81.5t-154 30.5q-178 0 -313.5 -142.5t-175.5 -365.5h426l-11 -20h-417q-11 -79 -11 -135q0 -54 11 -133h428l-11 -21 h-415q39 -226 174.5 -370t314.5 -144q95 0 171 32.5t124 87t77 111.5t44 121h20l-28 -258q-177 -114 -408 -114q-228 0 -397 147.5t-213 386.5h-137z" />
<glyph unicode="&#x2122;" horiz-adv-x="1570" d="M82 1270l4 164h518l4 -164h-10q-17 73 -48.5 113t-88.5 40h-88v-645q0 -34 14.5 -41t83.5 -10v-10h-252v10q69 3 83.5 10t14.5 41v645h-88q-57 0 -88.5 -40t-48.5 -113h-10zM686 717v10q67 3 81.5 10t14.5 41v594q0 33 -14.5 39.5t-81.5 11.5v11h154l262 -633l237 633 h150v-11q-67 -5 -81.5 -11.5t-14.5 -39.5v-594q0 -34 14.5 -41t81.5 -10v-10h-250v10q67 3 81.5 10t14.5 41v615l-256 -682h-4l-282 675v-608q0 -34 20.5 -41t112.5 -10v-10h-240z" />
<glyph unicode="&#x25fc;" horiz-adv-x="1024" d="M0 0v1024h1024v-1024h-1024z" />
</font>
</defs>
</svg>
