<?xml version="1.0" standalone="no"?>
<!DOCTYPE svg PUBLIC "-//W3C//DTD SVG 1.1//EN" "http://www.w3.org/Graphics/SVG/1.1/DTD/svg11.dtd" >
<svg xmlns="http://www.w3.org/2000/svg" xmlns:xlink="http://www.w3.org/1999/xlink" version="1.1">
<metadata></metadata>
<defs>
<font id="mallorybook" horiz-adv-x="1615" >
<font-face units-per-em="2048" ascent="1638" descent="-410" />
<missing-glyph horiz-adv-x="442" />
<glyph unicode="&#xfb01;" horiz-adv-x="1372" d="M82 866v158h182v162q0 170 92.5 267t251.5 97q49 0 90 -8t84 -29l31 -190l-4 -2q-57 33 -100 46t-88 13q-80 0 -126 -50t-46 -138v-168h337v-158h-337v-866h-185v866h-182zM969 1391q0 53 36.5 90t89.5 37t90 -37t37 -90t-36.5 -90t-90.5 -37q-53 0 -89.5 36.5 t-36.5 90.5zM1003 0v1024h185v-1024h-185z" />
<glyph unicode="&#xfb02;" horiz-adv-x="1372" d="M82 866v158h182v162q0 170 92.5 267t251.5 97q49 0 90 -8t84 -29l31 -190l-4 -2q-57 33 -100 46t-88 13q-80 0 -126 -50t-46 -138v-168h337v-158h-337v-866h-185v866h-182zM1003 0v1487l185 67v-1554h-185z" />
<glyph unicode="&#xfb03;" horiz-adv-x="2193" d="M82 866v158h182v162q0 170 92.5 267t251.5 97q49 0 90 -8t84 -29l31 -190l-4 -2q-57 33 -100 46t-88 13q-80 0 -126 -50t-46 -138v-168h337v-158h-337v-866h-185v866h-182zM901 866v158h182v162q0 170 92.5 267t251.5 97q49 0 90 -8t84 -29l31 -190l-4 -2q-57 33 -100 46 t-88 13q-80 0 -126 -50t-46 -138v-168h337v-158h-337v-866h-185v866h-182zM1790 1391q0 53 36.5 90t89.5 37t90 -37t37 -90t-36.5 -90t-90.5 -37q-53 0 -89.5 36.5t-36.5 90.5zM1824 0v1024h185v-1024h-185z" />
<glyph unicode="&#xfb04;" horiz-adv-x="2193" d="M82 866v158h182v162q0 170 92.5 267t251.5 97q49 0 90 -8t84 -29l31 -190l-4 -2q-57 33 -100 46t-88 13q-80 0 -126 -50t-46 -138v-168h337v-158h-337v-866h-185v866h-182zM901 866v158h182v162q0 170 92.5 267t251.5 97q49 0 90 -8t84 -29l31 -190l-4 -2q-57 33 -100 46 t-88 13q-80 0 -126 -50t-46 -138v-168h337v-158h-337v-866h-185v866h-182zM1824 0v1487l185 67v-1554h-185z" />
<glyph horiz-adv-x="0" />
<glyph horiz-adv-x="0" />
<glyph horiz-adv-x="682" />
<glyph unicode=" "  horiz-adv-x="442" />
<glyph unicode="&#x09;" horiz-adv-x="442" />
<glyph unicode="&#xa0;" horiz-adv-x="442" />
<glyph unicode="!" horiz-adv-x="530" d="M127 121q0 57 41 98t98 41t97 -41t40 -98t-40 -98t-97 -41t-98 40.5t-41 98.5zM166 1206v228h201v-228l-62 -747h-80z" />
<glyph unicode="&#x22;" horiz-adv-x="899" d="M86 872l166 562h227l-319 -588zM475 872l166 562h227l-317 -588z" />
<glyph unicode="#" horiz-adv-x="1372" d="M61 362v170h271l88 369h-256v170h295l86 367h127l-86 -367h387l86 367h127l-86 -367h211v-170h-250l-88 -369h235v-170h-274l-86 -366h-127l86 366h-387l-86 -366h-127l86 366h-232zM459 532h387l88 369h-387z" />
<glyph unicode="$" horiz-adv-x="1200" d="M92 365l4 2q106 -78 205.5 -126t190.5 -67l47 481q-227 57 -317.5 150.5t-90.5 249.5q0 172 133 277.5t344 105.5l25 248h141l-24 -259q74 -12 141 -36.5t123 -59.5v-213h-4q-70 49 -142.5 83t-142.5 50l-43 -456q229 -63 316 -154.5t87 -245.5q0 -176 -128 -282.5 t-347 -116.5l-26 -272h-142l29 280q-90 12 -177 47t-159 88zM307 1065q0 -86 54.5 -138.5t193.5 -97.5l43 441h-5h-7q-125 0 -202 -56.5t-77 -148.5zM621 164q135 6 211.5 65.5t76.5 157.5q0 86 -55 139.5t-188 96.5z" />
<glyph unicode="%" horiz-adv-x="1900" d="M92 1049q0 182 99.5 297.5t254.5 115.5q154 0 252.5 -114.5t98.5 -294.5q0 -184 -99.5 -300t-255.5 -116q-154 0 -252 114.5t-98 297.5zM250 1051q0 -123 54 -199t142 -76q86 0 139.5 76t53.5 197q0 123 -54.5 198.5t-142.5 75.5q-86 0 -139 -76t-53 -196zM383 -4 l514 756l453 686h168l-514 -756l-453 -686h-168zM1104 381q0 184 99.5 300t254.5 116q154 0 252 -115t98 -297t-99 -298t-255 -116q-154 0 -252 115t-98 295zM1262 385q0 -123 54 -198.5t142 -75.5q86 0 139.5 75.5t53.5 196.5q0 123 -54.5 198.5t-142.5 75.5 q-86 0 -139 -75.5t-53 -196.5z" />
<glyph unicode="&#x26;" horiz-adv-x="1435" d="M92 346q0 127 83 227.5t261 186.5q-72 109 -102.5 188.5t-30.5 153.5q0 158 108.5 259t280.5 101q147 0 244.5 -93t97.5 -234q0 -119 -89 -227.5t-263 -200.5q45 -57 104.5 -124t141.5 -151q51 59 109.5 137t127.5 179h199v-5q-115 -162 -187.5 -259t-132.5 -167 q86 -82 173.5 -158.5t175.5 -154.5v-4h-246q-66 57 -118 105.5t-95 91.5q-115 -111 -223.5 -161t-231.5 -50q-172 0 -279.5 101t-107.5 259zM279 356q0 -86 60 -145t153 -59q82 0 159.5 38.5t163.5 120.5q-100 102 -170 180.5t-119 141.5q-131 -72 -189 -137.5t-58 -139.5z M485 1104q0 -61 26 -126t83 -153q127 74 192.5 150t65.5 149q0 80 -49 133.5t-121 53.5q-88 0 -142.5 -57.5t-54.5 -149.5z" />
<glyph unicode="'" horiz-adv-x="507" d="M86 872l166 562h227l-319 -588z" />
<glyph unicode="(" horiz-adv-x="837" d="M154 625q0 266 139 486t442 425l53 -61q-227 -182 -341.5 -396t-114.5 -454t114.5 -454t341.5 -396l-53 -62q-303 205 -442 425t-139 487z" />
<glyph unicode=")" horiz-adv-x="837" d="M49 -225q227 182 342 396t115 454t-115 453.5t-342 396.5l53 61q303 -205 442.5 -425t139.5 -486t-139 -486.5t-443 -425.5z" />
<glyph unicode="*" horiz-adv-x="1062" d="M90 1047l66 196l307 -190l-14 -35zM195 723l276 233l29 -22l-135 -332zM428 1442h207l-86 -350h-35zM565 934l27 22l276 -233l-168 -121zM602 1053l307 190l64 -196l-359 -29z" />
<glyph unicode="+" horiz-adv-x="1228" d="M102 649v166h424v428h176v-428h424v-166h-424v-432h-176v432h-424z" />
<glyph unicode="," horiz-adv-x="419" d="M-25 -295q98 131 129 221t31 234v67h191q0 -176 -55.5 -293.5t-239.5 -275.5z" />
<glyph unicode="-" horiz-adv-x="796" d="M131 475v174h535v-174h-535z" />
<glyph unicode="." horiz-adv-x="419" d="M72 121q0 57 41 98t98 41t97 -41t40 -98t-40 -98t-97 -41t-98 40.5t-41 98.5z" />
<glyph unicode="/" horiz-adv-x="931" d="M-12 -266l721 1782h159l-721 -1782h-159z" />
<glyph unicode="0" horiz-adv-x="1380" d="M127 715q0 328 156.5 537.5t408.5 209.5q250 0 405.5 -209t155.5 -534q0 -330 -156.5 -539t-408.5 -209t-406.5 208t-154.5 536zM317 719q0 -252 104.5 -413t270.5 -161q164 0 267.5 159t103.5 411t-105.5 412.5t-269.5 160.5t-267.5 -159.5t-103.5 -409.5z" />
<glyph unicode="1" horiz-adv-x="888" d="M90 924v200l528 336l35 -10v-1450h-190v1157l-369 -235z" />
<glyph unicode="2" horiz-adv-x="1181" d="M100 37l504 612q123 147 163 229.5t40 168.5q0 100 -65.5 166.5t-168.5 66.5q-106 0 -206.5 -69.5t-204.5 -217.5l-4 2l-31 213q96 123 210 184.5t249 61.5q184 0 296.5 -107.5t112.5 -283.5q0 -115 -49 -218.5t-184 -264.5l-346 -410h676l-97 -170h-878z" />
<glyph unicode="3" horiz-adv-x="1122" d="M104 319l5 3q129 -94 223 -132t196 -38q123 0 204 65.5t81 167.5q0 123 -113.5 195.5t-357.5 107.5v74q238 76 338 149.5t100 175.5q0 88 -62.5 141.5t-164.5 53.5q-88 0 -182.5 -40t-214.5 -130h-4v211q123 78 215 105.5t198 27.5q188 0 299 -94t111 -254 q0 -111 -71 -200.5t-208 -155.5q150 -43 232 -141.5t82 -227.5q0 -174 -138.5 -290t-336.5 -116q-109 0 -194 24t-202 95z" />
<glyph unicode="4" horiz-adv-x="1275" d="M49 379l727 1065h15h178v-955h233v-155h-233v-334h-181v334h-731zM309 489h484v715z" />
<glyph unicode="5" horiz-adv-x="1183" d="M131 268l4 2q111 -63 211 -94t195 -31q145 0 238 85t93 216t-86 206t-237 75q-80 0 -170 -19.5t-168 -54.5l-31 15l53 766h768v-174h-602l-28 -394q59 18 111.5 26.5t107.5 8.5q215 0 347 -122t132 -324q0 -209 -144.5 -344.5t-375.5 -135.5q-106 0 -203.5 22.5 t-183.5 68.5z" />
<glyph unicode="6" horiz-adv-x="1226" d="M119 481q0 143 62.5 284.5t226.5 367.5l219 301h223l-270 -365q-45 -61 -78 -109.5t-58 -89.5q66 25 124 35t126 10q182 0 307 -125.5t125 -322.5q0 -209 -148.5 -352.5t-367.5 -143.5q-225 0 -358 138.5t-133 371.5zM309 485q0 -158 84 -252t221 -94q141 0 231.5 90 t90.5 228q0 145 -88 222t-250 77q-55 0 -110 -7.5t-121 -21.5q-31 -63 -44.5 -121.5t-13.5 -120.5z" />
<glyph unicode="7" horiz-adv-x="1179" d="M102 1434h1004l18 -29l-680 -1405h-206l628 1264h-727z" />
<glyph unicode="8" horiz-adv-x="1253" d="M121 379q0 115 65.5 206t182.5 144q-98 53 -152.5 140t-54.5 192q0 170 133 283.5t334 113.5t332 -113.5t131 -283.5q0 -104 -54.5 -191.5t-152.5 -138.5q117 -53 182.5 -145t65.5 -207q0 -174 -144.5 -289t-363.5 -115t-361.5 115t-142.5 289zM307 395q0 -113 91 -183.5 t231 -70.5q139 0 228 71t89 183q0 106 -95 179t-226 73t-224.5 -72.5t-93.5 -179.5zM350 1055q0 -104 80 -176t199 -72q117 0 195.5 71.5t78.5 176.5q0 102 -77.5 169.5t-200.5 67.5t-199 -66.5t-76 -170.5z" />
<glyph unicode="9" horiz-adv-x="1226" d="M100 958q0 213 147.5 358.5t368.5 145.5q225 0 358.5 -138.5t133.5 -371.5q0 -143 -62.5 -284.5t-226.5 -366.5l-219 -301h-223l268 365q33 43 63.5 88t61.5 90q-61 -23 -116.5 -32t-121.5 -9q-186 0 -309 128t-123 328zM291 969q0 -152 87 -229.5t253 -77.5 q53 0 106.5 7t114.5 21q33 70 49.5 131.5t16.5 126.5q0 156 -84.5 251t-221.5 95q-141 0 -231 -92t-90 -233z" />
<glyph unicode=":" horiz-adv-x="458" d="M92 121q0 57 40 98t97 41t98.5 -41t41.5 -98t-41.5 -98t-98.5 -41t-97 40.5t-40 98.5zM92 903q0 57 40 98t97 41t98.5 -40.5t41.5 -98.5q0 -57 -41.5 -98t-98.5 -41t-97 41t-40 98z" />
<glyph unicode=";" horiz-adv-x="458" d="M-14 -295q98 131 128.5 221t30.5 234v67h191q0 -176 -55.5 -293.5t-239.5 -275.5zM96 903q0 57 41 98t99 41q57 0 98 -40.5t41 -98.5q0 -57 -41 -98t-98 -41t-98.5 41t-41.5 98z" />
<glyph unicode="&#x3c;" horiz-adv-x="1228" d="M109 707v51l991 491v-182l-692 -334l692 -334v-186z" />
<glyph unicode="=" horiz-adv-x="1228" d="M123 442v166h983v-166h-983zM123 854v168h983v-168h-983z" />
<glyph unicode="&#x3e;" horiz-adv-x="1228" d="M129 213v182l694 336l-694 334v184l991 -491v-51z" />
<glyph unicode="?" horiz-adv-x="989" d="M90 1063v213q96 90 200.5 134t221.5 44q170 0 273.5 -92t103.5 -248q0 -109 -53.5 -183.5t-200.5 -154.5q-109 -61 -142.5 -93t-33.5 -69q0 -31 12 -64.5t43 -88.5h-113q-68 82 -87 123t-19 88q0 61 42 107t173 116q117 63 157 110.5t40 110.5q0 74 -57.5 120t-147.5 46 q-100 0 -194.5 -50t-213.5 -169h-4zM303 121q0 57 41 98t98 41t97.5 -41t40.5 -98t-40.5 -98t-97.5 -41t-98 40.5t-41 98.5z" />
<glyph unicode="@" horiz-adv-x="2097" d="M92 416q0 213 85 416.5t241 361.5q156 160 356.5 246t419.5 86q365 0 588 -209t223 -551q0 -283 -139.5 -466t-364.5 -183q-102 0 -175 45t-91 119q-92 -84 -179 -123t-179 -39q-139 0 -223.5 92t-84.5 248q0 111 46.5 217t129.5 190q84 82 189.5 127t220.5 45 q61 0 122.5 -14t121.5 -41l131 41l20 -4l-149 -617q-6 -31 -8 -45t-2 -28q0 -63 42 -100t111 -37q166 0 278.5 166.5t112.5 404.5q0 319 -201.5 508.5t-543.5 189.5q-201 0 -388.5 -82t-332.5 -231q-145 -150 -225 -340.5t-80 -388.5q0 -348 212 -541.5t591 -193.5 q166 0 308.5 26.5t283.5 81.5v-69q-147 -53 -290 -78t-306 -25q-403 0 -637 212t-234 583zM733 473q0 -100 52.5 -154.5t144.5 -54.5q74 0 145.5 32t159.5 105l113 453q-49 20 -97.5 30.5t-103.5 10.5q-172 0 -293 -126t-121 -296z" />
<glyph unicode="A" d="M59 0l668 1442h182l643 -1442h-213l-159 369h-750l-166 -369h-205zM508 543h596l-293 674z" />
<glyph unicode="B" horiz-adv-x="1263" d="M205 0v1434h432q211 0 332 -99.5t121 -275.5q0 -102 -57 -182.5t-161 -131.5q135 -41 208 -128t73 -211q0 -184 -143.5 -295t-376.5 -111h-428zM395 170h248q143 0 228 65.5t85 174.5q0 113 -85 175t-238 62h-238v-477zM395 815h209q129 0 209 64.5t80 167.5 q0 100 -72.5 158.5t-195.5 58.5h-230v-449z" />
<glyph unicode="C" horiz-adv-x="1476" d="M113 717q0 152 56 287t161 239q104 102 240.5 158.5t285.5 56.5q139 0 259 -45t220 -133v-240h-4q-119 119 -238.5 176.5t-246.5 57.5q-217 0 -374 -162t-157 -389q0 -242 154 -402.5t371 -160.5q137 0 267 58t251 175l4 -2l-29 -231q-119 -94 -244 -139.5t-262 -45.5 q-305 0 -509.5 209t-204.5 533z" />
<glyph unicode="D" horiz-adv-x="1603" d="M205 0v1434h473q373 0 592 -192.5t219 -520.5q0 -322 -226.5 -521.5t-584.5 -199.5h-473zM403 180h279q266 0 435 148.5t169 388.5q0 248 -166 392t-446 144h-271v-1073z" />
<glyph unicode="E" horiz-adv-x="1196" d="M205 0v1434h807l59 -179h-668v-438h560v-176h-560v-463h674l-59 -178h-813z" />
<glyph unicode="F" horiz-adv-x="1110" d="M205 0v1434h844l-62 -179h-584v-462h517v-179h-517v-614h-198z" />
<glyph unicode="G" horiz-adv-x="1628" d="M113 713q0 324 222 532.5t564 208.5q139 0 260 -29.5t242 -93.5v-219h-4q-135 80 -257 118t-247 38q-246 0 -412 -159t-166 -392q0 -248 151.5 -400.5t393.5 -152.5q111 0 204 22.5t179 71.5v307h-412v180h607v-587q-141 -94 -282.5 -136t-305.5 -42q-328 0 -532.5 201.5 t-204.5 531.5z" />
<glyph unicode="H" horiz-adv-x="1671" d="M205 0v1434h198v-611h865v611h196v-1434h-196v641h-865v-641h-198z" />
<glyph unicode="I" horiz-adv-x="628" d="M215 0v1434h199v-1434h-199z" />
<glyph unicode="J" horiz-adv-x="940" d="M63 274l5 2q72 -57 135.5 -84.5t126.5 -27.5q102 0 159.5 62.5t57.5 176.5v1031h198v-1055q0 -186 -103 -292.5t-282 -106.5q-70 0 -132 17t-117 54z" />
<glyph unicode="K" horiz-adv-x="1413" d="M205 0v1434h198v-617h50l673 617h258v-4l-774 -693l783 -733v-4h-263l-679 647h-48v-647h-198z" />
<glyph unicode="L" horiz-adv-x="1099" d="M205 0v1434h198v-1256h617v-178h-815z" />
<glyph unicode="M" horiz-adv-x="2107" d="M205 0v1434h293l553 -1102l551 1102h299v-1434h-193v1245l-643 -1268h-31l-643 1258v-1235h-186z" />
<glyph unicode="N" horiz-adv-x="1685" d="M205 0v1434h182l905 -1031v1031h187v-1444h-68l-1018 1159v-1149h-188z" />
<glyph unicode="O" horiz-adv-x="1722" d="M113 715q0 315 217 531t534 216q315 0 530.5 -215t215.5 -528q0 -315 -217.5 -531.5t-532.5 -216.5q-317 0 -532 215t-215 529zM315 719q0 -238 158 -400.5t387 -162.5q225 0 386 162.5t161 396.5q0 236 -161 399.5t-390 163.5q-225 0 -383 -163t-158 -396z" />
<glyph unicode="P" horiz-adv-x="1212" d="M205 0v1434h409q236 0 374 -119t138 -328q0 -215 -145 -343t-383 -128h-195v-516h-198zM401 694h197q150 0 239 79t89 212q0 123 -86 196.5t-232 73.5h-207v-561z" />
<glyph unicode="Q" horiz-adv-x="1722" d="M113 715q0 315 217 531t534 216q315 0 530.5 -215t215.5 -528q0 -254 -147.5 -450.5t-385.5 -266.5q70 -70 136.5 -99.5t152.5 -29.5q49 0 96 8t92 27l5 -4l-66 -191q-35 -10 -72 -15t-73 -5q-158 0 -277 64.5t-244 213.5q-305 14 -509.5 227.5t-204.5 516.5zM315 719 q0 -238 158 -400.5t387 -162.5q225 0 386 163t161 396q0 236 -161 399.5t-390 163.5q-225 0 -383 -163t-158 -396z" />
<glyph unicode="R" horiz-adv-x="1300" d="M205 0v1434h418q217 0 349 -115t132 -309q0 -145 -90 -254t-244 -150l541 -606h-248l-504 573h-156v-573h-198zM399 748h207q131 0 214 73.5t83 188.5q0 111 -80 179t-207 68h-217v-509z" />
<glyph unicode="S" horiz-adv-x="1134" d="M80 383l4 2q113 -104 237.5 -164.5t235.5 -60.5q119 0 190.5 56t71.5 151q0 80 -62.5 139t-246.5 141q-211 94 -291 189.5t-80 232.5q0 176 120 282.5t316 106.5q106 0 196.5 -25.5t180.5 -82.5v-222h-4q-98 74 -193.5 110t-187.5 36q-109 0 -173 -50t-64 -137 q0 -82 59.5 -137t249.5 -141q203 -92 288 -190.5t85 -235.5q0 -182 -129 -295t-336 -113q-115 0 -221.5 36t-198.5 106z" />
<glyph unicode="T" horiz-adv-x="1464" d="M72 1255v179h1321v-179h-564v-1255h-196v1255h-561z" />
<glyph unicode="U" d="M186 627v807h199v-811q0 -219 112.5 -342t313.5 -123t313.5 122.5t112.5 348.5v805h190v-807q0 -305 -164.5 -478.5t-455.5 -173.5q-289 0 -455 174.5t-166 477.5z" />
<glyph unicode="V" horiz-adv-x="1579" d="M63 1434h222l503 -1110l519 1110h213l-717 -1467h-45z" />
<glyph unicode="W" horiz-adv-x="2408" d="M76 1434h215l385 -1184l516 1200h35l499 -1200l402 1184h209l-516 -1442h-193l-426 1042l-442 -1042h-191z" />
<glyph unicode="X" horiz-adv-x="1513" d="M72 0l565 727l-549 707h234l438 -568l438 568h227l-551 -707l568 -727h-234l-456 592l-451 -592h-229z" />
<glyph unicode="Y" horiz-adv-x="1368" d="M27 1434h235l426 -619l426 619h227l-559 -793v-641h-196v641z" />
<glyph unicode="Z" horiz-adv-x="1429" d="M80 29l917 1226h-852v179h1176l14 -29l-919 -1227h936l-97 -178h-1161z" />
<glyph unicode="[" horiz-adv-x="839" d="M219 -266v1782h524l27 -115h-379v-1553h379l-27 -114h-524z" />
<glyph unicode="\" horiz-adv-x="931" d="M66 1516h159l719 -1782h-160z" />
<glyph unicode="]" horiz-adv-x="839" d="M70 -152h379v1553h-379l26 115h525v-1782h-525z" />
<glyph unicode="^" horiz-adv-x="1228" d="M98 686l494 799h45l493 -799h-190l-328 537l-327 -537h-187z" />
<glyph unicode="_" horiz-adv-x="1228" d="M-4 -160h1237v-127h-1237v127z" />
<glyph unicode="`" horiz-adv-x="1024" d="M137 1577v4h250l172 -346h-88z" />
<glyph unicode="a" horiz-adv-x="1161" d="M106 258q0 176 176.5 261t540.5 89v4q0 127 -60.5 193.5t-174.5 66.5q-86 0 -177.5 -36.5t-187.5 -110.5l-4 2l39 207q82 55 171 81.5t187 26.5q188 0 290 -108t102 -311v-598l-185 -41v182q-115 -92 -216 -137t-197 -45q-135 0 -219.5 74.5t-84.5 199.5zM293 266 q0 -57 41 -91t112 -34q72 0 164 35t213 109v204q-266 -16 -398 -70.5t-132 -152.5z" />
<glyph unicode="b" horiz-adv-x="1261" d="M174 0v1487l184 67v-680q90 90 176.5 130t184.5 40q190 0 320 -144t130 -359q0 -244 -161.5 -400.5t-401.5 -156.5q-70 0 -137.5 14t-138.5 45l-133 -43h-23zM358 197q61 -25 121 -37.5t123 -12.5q164 0 271.5 108.5t107.5 272.5q0 156 -89 253.5t-228 97.5 q-80 0 -152 -31t-154 -98v-553z" />
<glyph unicode="c" horiz-adv-x="1103" d="M90 510q0 229 154.5 384t390.5 155q102 0 186 -30t158 -93v-228h-4q-92 94 -175 137.5t-169 43.5q-150 0 -250 -106.5t-100 -260.5q0 -160 95 -263.5t245 -103.5q90 0 190 44t186 118l4 -2l-32 -213q-84 -57 -174 -87t-183 -30q-231 0 -376.5 149.5t-145.5 385.5z" />
<glyph unicode="d" horiz-adv-x="1269" d="M90 492q0 236 151.5 392t364.5 156q80 0 155 -25.5t150 -80.5v553l187 67v-1554h-187v147q-88 -88 -171 -127.5t-183 -39.5q-197 0 -332 146t-135 366zM281 506q0 -158 93 -259.5t232 -101.5q80 0 151.5 31t153.5 98v517q-72 45 -137 65.5t-137 20.5q-154 0 -255 -104.5 t-101 -266.5z" />
<glyph unicode="e" horiz-adv-x="1144" d="M88 512q0 225 143.5 383t356.5 158t340 -148.5t127 -382.5q0 -20 -2 -44.5t-4 -37.5h-770q20 -139 115 -217t245 -78q90 0 189.5 34t191.5 93l4 -2l-68 -202q-90 -49 -167.5 -70t-170.5 -21q-244 0 -387 145.5t-143 389.5zM274 578h594q-12 147 -87.5 230t-198.5 83 q-125 0 -210 -88t-98 -225z" />
<glyph unicode="f" horiz-adv-x="819" d="M82 866v158h182v162q0 170 92.5 267t251.5 97q49 0 90 -8t84 -29l31 -190l-4 -2q-57 33 -100 46t-88 13q-80 0 -126 -50t-46 -138v-168h337v-158h-337v-866h-185v866h-182z" />
<glyph unicode="g" horiz-adv-x="1269" d="M90 506q0 233 163 383.5t400 150.5q70 0 137.5 -14t145.5 -47l137 45h25v-926q0 -233 -142.5 -366t-388.5 -133q-104 0 -202.5 22.5t-198.5 71.5l-39 207l4 2q123 -70 228.5 -101.5t215.5 -31.5q152 0 244 89t92 240v92q-92 -90 -180 -130t-188 -40q-197 0 -325 137.5 t-128 348.5zM281 516q0 -150 88 -242t229 -92q78 0 152.5 32t160.5 103v508q-68 29 -129.5 43.5t-124.5 14.5q-162 0 -269 -104.5t-107 -262.5z" />
<glyph unicode="h" horiz-adv-x="1236" d="M174 0v1487l184 67v-723q88 113 174 163t191 50q162 0 261 -108.5t99 -290.5v-645h-184v627q0 119 -60.5 185.5t-166.5 66.5q-80 0 -150.5 -42t-163.5 -143v-694h-184z" />
<glyph unicode="i" horiz-adv-x="552" d="M150 1391q0 53 36.5 90t89.5 37t90 -37t37 -90t-36.5 -90t-90.5 -37q-53 0 -89.5 36.5t-36.5 90.5zM184 0v1024h185v-1024h-185z" />
<glyph unicode="j" horiz-adv-x="557" d="M-68 -229l5 2q27 -8 48 -11.5t44 -3.5q78 0 118.5 46t40.5 135v1085h185v-1083q0 -164 -82 -253t-230 -89q-23 0 -49 3t-47 9zM154 1391q0 53 37 90t90 37t90 -37t37 -90t-37 -90t-90 -37t-90 36.5t-37 90.5z" />
<glyph unicode="k" horiz-adv-x="1128" d="M174 0v1487l184 67v-964h58l428 434h233v-4l-502 -494l537 -522v-4h-244l-450 451h-60v-451h-184z" />
<glyph unicode="l" horiz-adv-x="552" d="M184 0v1487l185 67v-1554h-185z" />
<glyph unicode="m" horiz-adv-x="1886" d="M174 0v999l184 41v-200q82 109 164 156.5t178 47.5q113 0 196 -59t122 -168q90 121 176 174t192 53q156 0 251.5 -108.5t95.5 -290.5v-645h-187v627q0 119 -57 185.5t-158 66.5q-72 0 -138.5 -41t-150.5 -138q2 -8 2 -19v-36v-645h-184v627q0 119 -57.5 185.5 t-157.5 66.5q-72 0 -136.5 -40t-150.5 -137v-702h-184z" />
<glyph unicode="n" horiz-adv-x="1236" d="M174 0v999l184 41v-209q88 113 174 163t191 50q162 0 261 -108.5t99 -290.5v-645h-184v627q0 119 -60.5 185.5t-166.5 66.5q-80 0 -150.5 -42t-163.5 -143v-694h-184z" />
<glyph unicode="o" horiz-adv-x="1257" d="M88 510q0 223 155.5 383t387.5 160q238 0 388 -155t150 -382q0 -225 -154.5 -385t-387.5 -160q-236 0 -387.5 157t-151.5 382zM279 510q0 -160 99 -266.5t249 -106.5q154 0 254 108.5t100 270.5q0 160 -99.5 265.5t-250.5 105.5q-154 0 -253 -107.5t-99 -269.5z" />
<glyph unicode="p" horiz-adv-x="1269" d="M174 -391v1390l184 41v-166q86 90 170 130t185 40q197 0 332 -146.5t135 -365.5q0 -236 -150.5 -392t-363.5 -156q-82 0 -157 26.5t-151 81.5v-483h-184zM358 236q70 -45 136.5 -67t140.5 -22q154 0 254 105.5t100 265.5t-93 260.5t-232 100.5q-80 0 -152 -31t-154 -98 v-514z" />
<glyph unicode="q" horiz-adv-x="1261" d="M90 483q0 244 163 400.5t402 156.5q70 0 137.5 -14t139.5 -45l133 43h22v-1415h-184v541q-90 -90 -175 -130t-185 -40q-193 0 -323 144t-130 359zM281 496q0 -156 89 -253.5t228 -97.5q80 0 151.5 31t153.5 98v553q-63 25 -123 37.5t-123 12.5q-162 0 -269 -109 t-107 -272z" />
<glyph unicode="r" horiz-adv-x="849" d="M174 0v999l184 41v-260q127 158 200 209t157 51q18 0 31.5 -2t33.5 -6l15 -194q-14 4 -28 5t-28 1q-90 0 -177 -43t-204 -146v-655h-184z" />
<glyph unicode="s" horiz-adv-x="1032" d="M84 326l4 2q115 -90 231.5 -137.5t225.5 -47.5q92 0 152.5 36t60.5 93q0 61 -56.5 96t-222.5 74q-199 47 -276.5 117t-77.5 182q0 135 111.5 220.5t287.5 85.5q86 0 172 -25t164 -70v-196h-4q-96 61 -185 93t-167 32q-92 0 -146.5 -33t-54.5 -86q0 -57 55 -91t217 -73 q203 -47 282 -118.5t79 -196.5q0 -133 -115.5 -219.5t-296.5 -86.5q-109 0 -207 31t-194 94z" />
<glyph unicode="t" horiz-adv-x="915" d="M70 866v158h174v229l182 68v-297h401v-158h-401v-538q0 -92 43 -138.5t127 -46.5q57 0 114.5 26t116.5 79l4 -2l-40 -197q-45 -33 -106.5 -52.5t-127.5 -19.5q-145 0 -229 90.5t-84 251.5v547h-174z" />
<glyph unicode="u" horiz-adv-x="1236" d="M154 379v645h186v-627q0 -119 60.5 -185.5t166.5 -66.5q78 0 148.5 42t163.5 143v694h186v-1024h-186v193q-88 -113 -174.5 -163t-190.5 -50q-162 0 -261 108.5t-99 290.5z" />
<glyph unicode="v" horiz-adv-x="1165" d="M43 1024h203l327 -723l353 723h200l-540 -1053h-39z" />
<glyph unicode="w" horiz-adv-x="1800" d="M53 1024h199l264 -793l373 805h35l346 -805l291 793h188l-401 -1038h-154l-297 680l-315 -680h-156z" />
<glyph unicode="x" horiz-adv-x="1142" d="M57 0l408 524l-385 500h219l274 -367l277 367h211l-383 -496l405 -528h-217l-297 397l-301 -397h-211z" />
<glyph unicode="y" horiz-adv-x="1122" d="M37 -174l4 2q49 -29 90 -42t86 -13q74 0 126 42t91 132l47 110l-434 967h205l323 -756l304 756h200l-475 -1139q-59 -143 -149 -214.5t-209 -71.5q-45 0 -88 9t-84 30z" />
<glyph unicode="z" horiz-adv-x="1095" d="M55 31l643 833h-571v160h877l8 -29l-643 -835h651l-57 -160h-897z" />
<glyph unicode="{" horiz-adv-x="1007" d="M74 584v82l151 22q111 16 156 49t45 94q0 27 -10 59t-43 99q-43 88 -56.5 135t-13.5 90q0 139 103.5 220.5t279.5 81.5h225l27 -115h-213q-113 0 -172 -45t-59 -129q0 -31 10 -67t43 -111q39 -84 50 -127t11 -80q0 -78 -46 -129t-152 -88q106 -37 152 -88.5t46 -128.5 q0 -37 -11 -80t-50 -127q-33 -76 -43 -112t-10 -66q0 -84 60 -129.5t171 -45.5h213l-27 -114h-225q-176 0 -279.5 81t-103.5 220q0 43 13.5 90t56.5 135q33 68 43 99.5t10 58.5q0 61 -45 94t-156 49z" />
<glyph unicode="|" horiz-adv-x="774" d="M307 -266v1782h160v-1782h-160z" />
<glyph unicode="}" horiz-adv-x="1007" d="M70 -152h213q113 0 172 45.5t59 129.5q0 31 -10 66.5t-43 111.5q-39 84 -50.5 127t-11.5 80q0 78 46.5 129t152.5 88q-106 37 -152.5 88t-46.5 129q0 37 11.5 80t50.5 127q33 76 43 111.5t10 66.5q0 84 -60.5 129t-170.5 45h-213l26 115h226q176 0 279.5 -81t103.5 -221 q0 -43 -13.5 -90t-56.5 -135q-33 -68 -43 -99.5t-10 -58.5q0 -61 45 -93.5t155 -49.5l152 -22v-82l-152 -23q-111 -16 -155.5 -49t-44.5 -94q0 -27 10 -58.5t43 -99.5q43 -88 56.5 -135t13.5 -90q0 -139 -103.5 -220t-279.5 -81h-226z" />
<glyph unicode="~" horiz-adv-x="1228" d="M113 592q86 193 147 267.5t135 74.5q35 0 87.5 -23.5t168.5 -97.5q92 -59 129 -76.5t58 -17.5q39 0 73.5 44t96.5 163l108 -56q-86 -193 -147.5 -267.5t-134.5 -74.5q-35 0 -87.5 23.5t-168.5 99.5q-92 59 -129 76.5t-58 17.5q-39 0 -73.5 -44t-96.5 -164z" />
<glyph unicode="&#xa1;" horiz-adv-x="530" d="M127 1313q0 57 41 98t98 41t97 -41t40 -98t-39.5 -98t-97.5 -41q-57 0 -98 40.5t-41 98.5zM166 0v227l59 748h80l62 -748v-227h-201z" />
<glyph unicode="&#xa2;" horiz-adv-x="1116" d="M98 715q0 207 139.5 353t354.5 163l22 213h142l-23 -217q68 -10 130.5 -37t121.5 -72v-215h-4q-74 70 -138.5 108t-129.5 52l-68 -703q88 6 180.5 45t175.5 107l5 -2l-33 -203q-76 -49 -163 -77.5t-175 -30.5l-23 -209h-141l23 221q-180 37 -288 173t-108 331zM274 717 q0 -125 66 -217t176 -125l68 694q-137 -16 -223.5 -114.5t-86.5 -237.5z" />
<glyph unicode="&#xa3;" horiz-adv-x="1185" d="M98 623v133h228q-59 94 -83 165.5t-24 145.5q0 174 124 282.5t329 108.5q92 0 183 -25.5t183 -78.5l29 -213l-4 -2q-106 76 -204.5 112.5t-190.5 36.5q-119 0 -190.5 -60.5t-71.5 -158.5q0 -59 24.5 -120.5t104.5 -192.5h417v-133h-348q14 -35 21.5 -71t7.5 -71 q0 -72 -38 -139.5t-136 -171.5h622l-39 -170h-919l-8 37q221 213 278.5 291t57.5 145q0 39 -10.5 73t-34.5 77h-308z" />
<glyph unicode="&#xa5;" horiz-adv-x="1280" d="M49 1434h215l379 -621l379 621h209l-443 -701h342v-117h-397v-170h397v-116h-397v-330h-186v330h-400v116h400v170h-400v117h342z" />
<glyph unicode="&#xa7;" horiz-adv-x="1288" d="M80 553q0 109 75.5 191.5t219.5 129.5q-70 49 -102.5 113t-32.5 146q0 145 115.5 235t301.5 90q111 0 213.5 -23.5t184.5 -66.5v-199h-4q-117 63 -213.5 92t-186.5 29q-102 0 -163.5 -45t-61.5 -117t55.5 -114.5t208.5 -91.5q295 -92 406.5 -181.5t111.5 -230.5 q0 -109 -77 -193t-220 -131q70 -49 104 -111.5t34 -146.5q0 -145 -115 -234t-301 -89q-117 0 -220.5 26.5t-203.5 85.5l-39 222l4 2q127 -84 242.5 -126t222.5 -42q100 0 161.5 44t61.5 115q0 72 -56 116t-206 93q-295 90 -407.5 180.5t-112.5 231.5zM266 569q0 -86 80 -141 t316 -129q49 -16 78.5 -26.5t41.5 -16.5q123 49 181.5 107.5t58.5 130.5q0 84 -80 140t-315 128q-33 10 -64 21.5t-59 21.5q-121 -49 -179.5 -106.5t-58.5 -129.5z" />
<glyph unicode="&#xa8;" horiz-adv-x="1024" d="M174 1360q0 53 37 90t90 37t90 -37t37 -90t-37 -90t-90 -37t-90 37t-37 90zM596 1360q0 53 37 90t90 37t90 -37t37 -90t-37 -90t-90 -37t-90 37t-37 90z" />
<glyph unicode="&#xa9;" horiz-adv-x="1822" d="M86 715q0 164 63.5 313.5t180.5 263.5q117 113 268.5 174.5t314.5 61.5q166 0 315.5 -60.5t266.5 -173.5t179.5 -262t62.5 -313t-63.5 -313.5t-180.5 -264.5q-117 -113 -268.5 -174t-315.5 -61q-166 0 -315 60t-266 173t-179.5 262.5t-62.5 313.5zM152 719 q0 -313 222 -531.5t539 -218.5t537.5 217t220.5 529q0 313 -222.5 531t-539.5 218t-537 -217t-220 -528zM434 717q0 205 147.5 342t364.5 137q94 0 178 -29.5t156 -91.5v-151h-4q-82 74 -165 111.5t-167 37.5q-156 0 -264.5 -102.5t-108.5 -251.5q0 -154 106.5 -255.5 t258.5 -101.5q92 0 180 34t172 102l4 -2l-24 -146q-78 -57 -159 -83.5t-179 -26.5q-211 0 -353.5 134t-142.5 343z" />
<glyph unicode="&#xaa;" horiz-adv-x="1015" d="M143 399v115h715v-115h-715zM152 895q0 123 131 184.5t399 65.5q-2 88 -44 132t-126 44q-68 0 -136.5 -25.5t-139.5 -78.5l-5 2l31 149q63 41 130 59.5t143 18.5q141 0 215.5 -76t74.5 -219v-438h-139v127q-80 -70 -157.5 -105t-153.5 -35q-98 0 -160.5 54.5t-62.5 140.5 zM295 905q0 -41 28.5 -64.5t79.5 -23.5q53 0 123 25.5t156 79.5v135q-195 -12 -291 -48t-96 -104z" />
<glyph unicode="&#xab;" horiz-adv-x="1280" d="M96 496v32l473 510l70 -37l-322 -487l322 -491l-70 -37zM614 496v32l473 510l68 -37l-321 -487l321 -491l-68 -37z" />
<glyph unicode="&#xad;" horiz-adv-x="796" d="M131 475v174h535v-174h-535z" />
<glyph unicode="&#xae;" horiz-adv-x="1120" d="M104 1042q0 186 133.5 316.5t323.5 130.5t321.5 -129.5t131.5 -315.5t-133 -316t-322 -130q-190 0 -322.5 129t-132.5 315zM158 1042q0 -170 115.5 -283.5t287.5 -113.5q168 0 285 115.5t117 281.5q0 170 -116 285t-288 115q-170 0 -285.5 -116t-115.5 -284zM391 799v514 h166q84 0 134 -44t50 -116q0 -53 -32.5 -93t-87.5 -56l190 -205h-106l-179 188h-49v-188h-86zM477 1059h68q51 0 80.5 24.5t29.5 65.5q0 43 -28.5 66.5t-79.5 23.5h-70v-180z" />
<glyph unicode="&#xaf;" horiz-adv-x="1024" d="M168 1286v139h688v-139h-688z" />
<glyph unicode="&#xb0;" horiz-adv-x="1077" d="M106 1022q0 184 125 312t310 128q182 0 306 -127t124 -309q0 -186 -125 -313t-309 -127q-182 0 -306.5 127t-124.5 309zM264 1026q0 -127 80 -215t197 -88q115 0 194.5 88t79.5 211q0 125 -81 214t-197 89q-113 0 -193 -88t-80 -211z" />
<glyph unicode="&#xb1;" horiz-adv-x="1228" d="M113 0v158h1003v-158h-1003zM113 793v168h413v428h176v-428h414v-168h-414v-431h-176v431h-413z" />
<glyph unicode="&#xb2;" horiz-adv-x="735" d="M68 887l301 348q68 78 91 122t23 87q0 53 -34.5 87t-92.5 34q-61 0 -120.5 -39t-131.5 -127l-4 2l-18 154q59 72 131 106.5t154 34.5q119 0 191.5 -64.5t72.5 -170.5q0 -70 -30 -130.5t-114 -152.5l-188 -213h387l-59 -127h-543z" />
<glyph unicode="&#xb3;" horiz-adv-x="722" d="M66 1045l4 2q74 -49 137 -72.5t123 -23.5q70 0 114.5 32.5t44.5 85.5q0 63 -64.5 100.5t-219.5 63.5v62q152 49 209 87t57 93q0 45 -35 70.5t-96 25.5q-53 0 -111.5 -24.5t-132.5 -77.5h-4v147q70 43 131.5 61.5t130.5 18.5q121 0 194 -57.5t73 -151.5 q0 -63 -44.5 -116.5t-130.5 -92.5q92 -27 142.5 -82t50.5 -131q0 -104 -87 -171.5t-214 -67.5q-70 0 -128 15t-124 52z" />
<glyph unicode="&#xb4;" horiz-adv-x="1024" d="M465 1235l172 346h250v-4l-334 -342h-88z" />
<glyph unicode="&#xb5;" horiz-adv-x="1257" d="M174 -391v1415h184v-627q0 -119 60.5 -185.5t167.5 -66.5q80 0 150.5 42t162.5 145v692h184v-1024h-145l-29 209q-84 -115 -163.5 -166t-170.5 -51q-78 0 -141 32t-108 91l22 -424v-82h-174z" />
<glyph unicode="&#xb6;" horiz-adv-x="1398" d="M90 952q0 217 166 349.5t424 132.5h500v-1434h-123v1266h-197v-1266h-123v483h-80q-254 0 -410.5 126t-156.5 343zM281 928q0 -150 105.5 -240t277.5 -90h73v668h-65q-180 0 -285.5 -89t-105.5 -249z" />
<glyph unicode="&#xb7;" horiz-adv-x="450" d="M86 561q0 57 41 98t98 41t97 -41t40 -98t-40 -97t-97 -40t-98 40t-41 97z" />
<glyph unicode="&#xb8;" horiz-adv-x="1024" d="M283 -287l6 6q47 -16 82 -22t71 -6q55 0 87 16.5t32 46.5q0 29 -25.5 43.5t-76.5 14.5q-16 0 -33.5 -1t-60.5 -8l-9 9l117 198h115l-72 -112q92 -4 139 -38.5t47 -97.5q0 -74 -65.5 -117.5t-173.5 -43.5q-33 0 -64.5 4t-62.5 12z" />
<glyph unicode="&#xb9;" horiz-adv-x="600" d="M63 1336v149l365 215l21 -6v-856h-146v637l-235 -141z" />
<glyph unicode="&#xba;" horiz-adv-x="1021" d="M117 1075q0 158 113.5 269.5t283.5 111.5q172 0 281.5 -109.5t109.5 -269.5t-112.5 -271.5t-282.5 -111.5q-172 0 -282.5 110.5t-110.5 270.5zM150 399v115h722v-115h-722zM266 1075q0 -106 70 -178t174 -72q106 0 176 73t70 179q0 104 -70 176t-174 72 q-106 0 -176 -71.5t-70 -178.5z" />
<glyph unicode="&#xbb;" horiz-adv-x="1280" d="M123 23l321 487l-321 491l70 37l473 -510v-32l-473 -510zM641 23l322 487l-322 491l70 37l473 -510v-32l-473 -510z" />
<glyph unicode="&#xbc;" horiz-adv-x="1650" d="M63 1086v149l365 215l21 -6v-856h-146v637l-235 -141zM235 -4l516 749l455 693h152l-516 -750l-455 -692h-152zM873 221l409 631h174v-553h142v-113h-142v-186h-137v186h-440zM1053 299h266v418z" />
<glyph unicode="&#xbd;" horiz-adv-x="1724" d="M63 1086v149l365 215l21 -6v-856h-146v637l-235 -141zM235 -4l516 749l455 693h152l-516 -750l-455 -692h-152zM1057 49l301 348q68 78 91 122t23 87q0 53 -34.5 87t-92.5 34q-61 0 -120.5 -39t-131.5 -127l-4 2l-18 154q59 72 131 106.5t154 34.5q119 0 191.5 -64.5 t72.5 -170.5q0 -70 -30 -130.5t-114 -152.5l-188 -213h387l-59 -127h-543z" />
<glyph unicode="&#xbe;" horiz-adv-x="1734" d="M66 795l4 2q74 -49 137 -72.5t123 -23.5q70 0 114.5 32.5t44.5 85.5q0 63 -64.5 100.5t-219.5 63.5v62q152 49 209 87t57 93q0 45 -35 70.5t-96 25.5q-53 0 -111.5 -24.5t-132.5 -77.5h-4v147q70 43 131.5 61.5t130.5 18.5q121 0 194 -57.5t73 -151.5q0 -63 -44.5 -116.5 t-130.5 -92.5q92 -27 142.5 -82t50.5 -131q0 -104 -87 -171.5t-214 -67.5q-70 0 -128 15t-124 52zM319 -4l516 749l455 693h152l-516 -750l-455 -692h-152zM957 221l409 631h174v-553h142v-113h-142v-186h-137v186h-440zM1137 299h266v418z" />
<glyph unicode="&#xbf;" horiz-adv-x="989" d="M100 319q0 109 53.5 184t200.5 154q109 61 142.5 93t33.5 69q0 31 -12 65t-43 89h113q68 -82 87 -123t19 -88q0 -61 -42 -107.5t-173 -115.5q-117 -63 -156.5 -109.5t-39.5 -112.5q0 -74 56 -119.5t146 -45.5q100 0 194.5 50t213.5 169h4v-213q-96 -90 -199.5 -134 t-220.5 -44q-170 0 -273.5 92t-103.5 247zM410 1313q0 57 40 98t97 41t98 -41t41 -98t-41 -98t-98 -41t-97 40.5t-40 98.5z" />
<glyph unicode="&#xc0;" d="M59 0l668 1442h182l643 -1442h-213l-159 369h-750l-166 -369h-205zM430 1866v4h272l168 -289h-100zM508 543h596l-293 674z" />
<glyph unicode="&#xc1;" d="M59 0l668 1442h182l643 -1442h-213l-159 369h-750l-166 -369h-205zM508 543h596l-293 674zM756 1581l168 289h272v-4l-340 -285h-100z" />
<glyph unicode="&#xc2;" d="M59 0l668 1442h182l643 -1442h-213l-159 369h-750l-166 -369h-205zM465 1573v2l258 287h180l258 -287v-2h-104l-242 154l-242 -154h-108zM508 543h596l-293 674z" />
<glyph unicode="&#xc3;" d="M59 0l668 1442h182l643 -1442h-213l-159 369h-750l-166 -369h-205zM424 1630q88 137 136 180t106 43q27 0 62.5 -13t113.5 -58q61 -35 87.5 -45.5t43.5 -10.5q29 0 52.5 20.5t96.5 113.5l80 -58q-88 -137 -136 -180t-106 -43q-27 0 -62.5 13.5t-113.5 58.5 q-61 35 -87.5 45t-43.5 10q-29 0 -52.5 -20.5t-96.5 -112.5zM508 543h596l-293 674z" />
<glyph unicode="&#xc4;" d="M59 0l668 1442h182l643 -1442h-213l-159 369h-750l-166 -369h-205zM471 1706q0 55 37 92t92 37q53 0 91 -38t38 -91t-38 -91t-91 -38q-55 0 -92 37t-37 92zM508 543h596l-293 674zM897 1706q0 53 38 91t91 38q55 0 92 -37t37 -92t-37 -92t-92 -37q-53 0 -91 38t-38 91z " />
<glyph unicode="&#xc5;" d="M59 0l619 1337q-55 37 -87 93.5t-32 119.5q0 104 75 178t183 74q109 0 183.5 -73.5t74.5 -178.5q0 -63 -31.5 -119.5t-87.5 -93.5l596 -1337h-213l-159 369h-750l-166 -369h-205zM508 543h596l-293 671zM651 1550q0 -70 48.5 -118t117.5 -48q70 0 119 49t49 117 q0 70 -49 119t-119 49t-118 -49t-48 -119z" />
<glyph unicode="&#xc6;" horiz-adv-x="2035" d="M16 0l947 1434h890l60 -179h-670v-438h559v-176h-559v-463h676l-59 -178h-813v369h-582l-242 -369h-207zM580 543h467v708z" />
<glyph unicode="&#xc7;" horiz-adv-x="1476" d="M113 717q0 152 56 287t161 239q104 102 240.5 158.5t285.5 56.5q139 0 259 -45t220 -133v-240h-4q-119 119 -238.5 176.5t-246.5 57.5q-217 0 -374 -162t-157 -389q0 -242 154 -402.5t371 -160.5q137 0 267 58t251 175l4 -2l-29 -231q-106 -84 -215.5 -128t-230.5 -55 l-58 -90q90 -4 137.5 -38t47.5 -97q0 -74 -64.5 -118t-173.5 -44q-33 0 -63.5 4.5t-63.5 12.5l-53 96l6 6q47 -16 82 -22t72 -6q55 0 85.5 16t30.5 47q0 29 -25.5 43t-74.5 14q-16 0 -33.5 -1t-60.5 -7l-8 8l102 176q-287 18 -473 224.5t-186 515.5z" />
<glyph unicode="&#xc8;" horiz-adv-x="1196" d="M205 0v1434h807l59 -179h-668v-438h560v-176h-560v-463h674l-59 -178h-813zM248 1866v4h272l168 -289h-100z" />
<glyph unicode="&#xc9;" horiz-adv-x="1196" d="M205 0v1434h807l59 -179h-668v-438h560v-176h-560v-463h674l-59 -178h-813zM574 1581l168 289h272v-4l-340 -285h-100z" />
<glyph unicode="&#xca;" horiz-adv-x="1196" d="M205 0v1434h807l59 -179h-668v-438h560v-176h-560v-463h674l-59 -178h-813zM283 1581v2l258 287h180l258 -287v-2h-104l-242 154l-242 -154h-108z" />
<glyph unicode="&#xcb;" horiz-adv-x="1196" d="M205 0v1434h807l59 -179h-668v-438h560v-176h-560v-463h674l-59 -178h-813zM289 1706q0 55 37 92t92 37q53 0 91 -38t38 -91t-38 -91t-91 -38q-55 0 -92 37t-37 92zM715 1706q0 53 38 91t91 38q55 0 92 -37t37 -92t-37 -92t-92 -37q-53 0 -91 38t-38 91z" />
<glyph unicode="&#xcc;" horiz-adv-x="628" d="M-68 1866v4h272l168 -289h-100zM215 0v1434h199v-1434h-199z" />
<glyph unicode="&#xcd;" horiz-adv-x="628" d="M215 0v1434h199v-1434h-199zM258 1581l168 289h272v-4l-340 -285h-100z" />
<glyph unicode="&#xce;" horiz-adv-x="628" d="M-33 1573v2l258 287h180l258 -287v-2h-104l-242 154l-242 -154h-108zM215 0v1434h199v-1434h-199z" />
<glyph unicode="&#xcf;" horiz-adv-x="628" d="M-27 1706q0 55 37 92t92 37q53 0 91 -38t38 -91t-38 -91t-91 -38q-55 0 -92 37t-37 92zM215 0v1434h199v-1434h-199zM399 1706q0 53 38 91t91 38q55 0 92 -37t37 -92t-37 -92t-92 -37q-53 0 -91 38t-38 91z" />
<glyph unicode="&#xd0;" horiz-adv-x="1644" d="M49 662v141h197v631h473q373 0 592 -192.5t219 -520.5q0 -322 -226.5 -521.5t-584.5 -199.5h-473v662h-197zM444 180h279q266 0 435 148.5t169 388.5q0 248 -166 392t-446 144h-271v-450h387v-141h-387v-482z" />
<glyph unicode="&#xd1;" horiz-adv-x="1685" d="M205 0v1434h182l905 -1031v1031h187v-1444h-68l-1018 1159v-1149h-188zM457 1630q88 137 136 180t106 43q27 0 62.5 -13t113.5 -58q61 -35 87.5 -45.5t43.5 -10.5q29 0 52.5 20.5t96.5 113.5l80 -58q-88 -137 -136 -180t-106 -43q-27 0 -62.5 13.5t-113.5 58.5 q-61 35 -87.5 45t-43.5 10q-29 0 -52.5 -20.5t-96.5 -112.5z" />
<glyph unicode="&#xd2;" horiz-adv-x="1722" d="M113 715q0 315 217 531t534 216q315 0 530.5 -215t215.5 -528q0 -315 -217.5 -531.5t-532.5 -216.5q-317 0 -532 215t-215 529zM315 719q0 -238 158 -400.5t387 -162.5q225 0 386 162.5t161 396.5q0 236 -161 399.5t-390 163.5q-225 0 -383 -163t-158 -396zM479 1876v4 h272l168 -289h-100z" />
<glyph unicode="&#xd3;" horiz-adv-x="1722" d="M113 715q0 315 217 531t534 216q315 0 530.5 -215t215.5 -528q0 -315 -217.5 -531.5t-532.5 -216.5q-317 0 -532 215t-215 529zM315 719q0 -238 158 -400.5t387 -162.5q225 0 386 162.5t161 396.5q0 236 -161 399.5t-390 163.5q-225 0 -383 -163t-158 -396zM805 1591 l168 289h272v-4l-340 -285h-100z" />
<glyph unicode="&#xd4;" horiz-adv-x="1722" d="M113 715q0 315 217 531t534 216q315 0 530.5 -215t215.5 -528q0 -315 -217.5 -531.5t-532.5 -216.5q-317 0 -532 215t-215 529zM315 719q0 -238 158 -400.5t387 -162.5q225 0 386 162.5t161 396.5q0 236 -161 399.5t-390 163.5q-225 0 -383 -163t-158 -396zM514 1581v2 l258 287h180l258 -287v-2h-104l-242 154l-242 -154h-108z" />
<glyph unicode="&#xd5;" horiz-adv-x="1722" d="M113 715q0 315 217 531t534 216q315 0 530.5 -215t215.5 -528q0 -315 -217.5 -531.5t-532.5 -216.5q-317 0 -532 215t-215 529zM315 719q0 -238 158 -400.5t387 -162.5q225 0 386 162.5t161 396.5q0 236 -161 399.5t-390 163.5q-225 0 -383 -163t-158 -396zM473 1640 q88 137 136 180t106 43q27 0 62.5 -13t113.5 -58q61 -35 87.5 -45.5t43.5 -10.5q29 0 52.5 20.5t96.5 113.5l80 -58q-88 -137 -136 -180t-106 -43q-27 0 -62.5 13.5t-113.5 58.5q-61 35 -87.5 45t-43.5 10q-29 0 -52.5 -20.5t-96.5 -112.5z" />
<glyph unicode="&#xd6;" horiz-adv-x="1722" d="M113 715q0 315 217 531t534 216q315 0 530.5 -215t215.5 -528q0 -315 -217.5 -531.5t-532.5 -216.5q-317 0 -532 215t-215 529zM315 719q0 -238 158 -400.5t387 -162.5q225 0 386 162.5t161 396.5q0 236 -161 399.5t-390 163.5q-225 0 -383 -163t-158 -396zM520 1716 q0 55 37 92t92 37q53 0 91 -38t38 -91t-38 -91t-91 -38q-55 0 -92 37t-37 92zM946 1716q0 53 38 91t91 38q55 0 92 -37t37 -92t-37 -92t-92 -37q-53 0 -91 38t-38 91z" />
<glyph unicode="&#xd7;" horiz-adv-x="1228" d="M145 379l359 354l-359 350l119 119l350 -356l351 354l118 -119l-354 -348l354 -350l-118 -119l-349 354l-352 -356z" />
<glyph unicode="&#xd8;" horiz-adv-x="1722" d="M76 -88l243 287q-100 102 -153 236t-53 280q0 315 217 531t534 216q115 0 222.5 -32.5t201.5 -96.5l162 189h197l-246 -285q100 -104 154.5 -237.5t54.5 -280.5q0 -315 -217 -531.5t-533 -216.5q-117 0 -224.5 33t-201.5 96l-160 -188h-198zM307 709q0 -106 34 -202.5 t99 -172.5l729 864q-66 43 -142.5 65.5t-160.5 22.5q-236 0 -397.5 -166t-161.5 -411zM551 236q68 -43 145.5 -66t159.5 -23q236 0 397.5 166t161.5 412q0 109 -33.5 205t-99.5 170z" />
<glyph unicode="&#xd9;" d="M186 627v807h199v-811q0 -219 112.5 -342t313.5 -123t313.5 122.5t112.5 348.5v805h190v-807q0 -305 -164.5 -478.5t-455.5 -173.5q-289 0 -455 174.5t-166 477.5zM426 1843v4h272l168 -289h-100z" />
<glyph unicode="&#xda;" d="M186 627v807h199v-811q0 -219 112.5 -342t313.5 -123t313.5 122.5t112.5 348.5v805h190v-807q0 -305 -164.5 -478.5t-455.5 -173.5q-289 0 -455 174.5t-166 477.5zM752 1558l168 289h272v-4l-340 -285h-100z" />
<glyph unicode="&#xdb;" d="M186 627v807h199v-811q0 -219 112.5 -342t313.5 -123t313.5 122.5t112.5 348.5v805h190v-807q0 -305 -164.5 -478.5t-455.5 -173.5q-289 0 -455 174.5t-166 477.5zM461 1581v2l258 287h180l258 -287v-2h-104l-242 154l-242 -154h-108z" />
<glyph unicode="&#xdc;" d="M186 627v807h199v-811q0 -219 112.5 -342t313.5 -123t313.5 122.5t112.5 348.5v805h190v-807q0 -305 -164.5 -478.5t-455.5 -173.5q-289 0 -455 174.5t-166 477.5zM467 1706q0 55 37 92t92 37q53 0 91 -38t38 -91t-38 -91t-91 -38q-55 0 -92 37t-37 92zM893 1706 q0 53 38 91t91 38q55 0 92 -37t37 -92t-37 -92t-92 -37q-53 0 -91 38t-38 91z" />
<glyph unicode="&#xdd;" horiz-adv-x="1368" d="M27 1434h235l426 -619l426 619h227l-559 -793v-641h-196v641zM627 1571l168 289h272v-4l-340 -285h-100z" />
<glyph unicode="&#xde;" horiz-adv-x="1245" d="M205 0v1434h198v-263h248q229 0 363.5 -116.5t134.5 -317.5q0 -205 -146.5 -328.5t-379.5 -123.5h-220v-285h-198zM401 461h224q147 0 235 72.5t88 199.5q0 119 -84 190.5t-223 71.5h-240v-534z" />
<glyph unicode="&#xdf;" horiz-adv-x="1363" d="M82 866v158h182v78q0 207 116 327.5t314 120.5q180 0 294 -107.5t114 -271.5q0 -111 -47 -199.5t-160 -180.5q201 -72 287 -174.5t86 -260.5q0 -166 -112 -270t-290 -104q-72 0 -124 10t-115 37l-33 198l4 2q82 -45 143.5 -64.5t124.5 -19.5q94 0 154.5 59.5t60.5 149.5 q0 123 -108.5 208t-333.5 138l-21 62q176 121 235.5 203t59.5 186q0 100 -63.5 164.5t-161.5 64.5q-111 0 -175 -74.5t-64 -197.5v-1108h-185v866h-182z" />
<glyph unicode="&#xe0;" horiz-adv-x="1161" d="M106 258q0 176 176.5 261t540.5 89v4q0 127 -60.5 193.5t-174.5 66.5q-86 0 -177.5 -36.5t-187.5 -110.5l-4 2l39 207q82 55 171 81.5t187 26.5q188 0 290 -108t102 -311v-598l-185 -41v182q-115 -92 -216 -137t-197 -45q-135 0 -219.5 74.5t-84.5 199.5zM229 1577v4h250 l172 -346h-88zM293 266q0 -57 41 -91t112 -34q72 0 164 35t213 109v204q-266 -16 -398 -70.5t-132 -152.5z" />
<glyph unicode="&#xe1;" horiz-adv-x="1161" d="M106 258q0 176 176.5 261t540.5 89v4q0 127 -60.5 193.5t-174.5 66.5q-86 0 -177.5 -36.5t-187.5 -110.5l-4 2l39 207q82 55 171 81.5t187 26.5q188 0 290 -108t102 -311v-598l-185 -41v182q-115 -92 -216 -137t-197 -45q-135 0 -219.5 74.5t-84.5 199.5zM293 266 q0 -57 41 -91t112 -34q72 0 164 35t213 109v204q-266 -16 -398 -70.5t-132 -152.5zM557 1235l172 346h250v-4l-334 -342h-88z" />
<glyph unicode="&#xe2;" horiz-adv-x="1161" d="M106 258q0 176 176.5 261t540.5 89v4q0 127 -60.5 193.5t-174.5 66.5q-86 0 -177.5 -36.5t-187.5 -110.5l-4 2l39 207q82 55 171 81.5t187 26.5q188 0 290 -108t102 -311v-598l-185 -41v182q-115 -92 -216 -137t-197 -45q-135 0 -219.5 74.5t-84.5 199.5zM258 1235v4 l262 342h168l262 -342v-4h-86l-258 197l-258 -197h-90zM293 266q0 -57 41 -91t112 -34q72 0 164 35t213 109v204q-266 -16 -398 -70.5t-132 -152.5z" />
<glyph unicode="&#xe3;" horiz-adv-x="1161" d="M106 258q0 176 176.5 261t540.5 89v4q0 127 -60.5 193.5t-174.5 66.5q-86 0 -177.5 -36.5t-187.5 -110.5l-4 2l39 207q82 55 171 81.5t187 26.5q188 0 290 -108t102 -311v-598l-185 -41v182q-115 -92 -216 -137t-197 -45q-135 0 -219.5 74.5t-84.5 199.5zM207 1282 q94 162 142 210t108 48q27 0 63.5 -16.5t116.5 -67.5q61 -39 86.5 -51t40.5 -12q25 0 47 22.5t98 130.5l92 -57q-94 -162 -142 -209t-108 -47q-27 0 -63.5 16.5t-116.5 67.5q-61 39 -86.5 51t-40.5 12q-23 0 -44 -20.5t-101 -132.5zM293 266q0 -57 41 -91t112 -34 q72 0 164 35t213 109v204q-266 -16 -398 -70.5t-132 -152.5z" />
<glyph unicode="&#xe4;" horiz-adv-x="1161" d="M106 258q0 176 176.5 261t540.5 89v4q0 127 -60.5 193.5t-174.5 66.5q-86 0 -177.5 -36.5t-187.5 -110.5l-4 2l39 207q82 55 171 81.5t187 26.5q188 0 290 -108t102 -311v-598l-185 -41v182q-115 -92 -216 -137t-197 -45q-135 0 -219.5 74.5t-84.5 199.5zM266 1360 q0 53 37 90t90 37t90 -37t37 -90t-37 -90t-90 -37t-90 37t-37 90zM293 266q0 -57 41 -91t112 -34q72 0 164 35t213 109v204q-266 -16 -398 -70.5t-132 -152.5zM688 1360q0 53 37 90t90 37t90 -37t37 -90t-37 -90t-90 -37t-90 37t-37 90z" />
<glyph unicode="&#xe5;" horiz-adv-x="1161" d="M106 258q0 176 176.5 261t540.5 89v4q0 127 -60.5 193.5t-174.5 66.5q-86 0 -177.5 -36.5t-187.5 -110.5l-4 2l39 207q82 55 171 81.5t187 26.5q188 0 290 -108t102 -311v-598l-185 -41v182q-115 -92 -216 -137t-197 -45q-135 0 -219.5 74.5t-84.5 199.5zM293 266 q0 -57 41 -91t112 -34q72 0 164 35t213 109v204q-266 -16 -398 -70.5t-132 -152.5zM354 1470q0 102 73 176t177 74t177 -73.5t73 -176.5q0 -102 -73 -175.5t-177 -73.5t-177 73.5t-73 175.5zM444 1470q0 -70 46 -117.5t114 -47.5t114 47.5t46 117.5q0 68 -46 116t-114 48 t-114 -48t-46 -116z" />
<glyph unicode="&#xe6;" horiz-adv-x="1869" d="M106 258q0 176 176.5 261t538.5 89v8q0 125 -59.5 190.5t-173.5 65.5q-86 0 -177.5 -36.5t-187.5 -110.5l-4 2l39 207q82 55 171 81.5t187 26.5q117 0 200 -42t132 -123q68 84 163 130t204 46q213 0 339 -148.5t126 -382.5q0 -20 -2 -44.5t-4 -37.5h-768 q20 -139 115.5 -217t242.5 -78q88 0 185.5 33t193.5 92l4 -2l-66 -200q-90 -49 -167.5 -70t-170.5 -21q-141 0 -253.5 55.5t-180.5 157.5q-135 -106 -251.5 -156t-229.5 -50q-145 0 -233.5 73.5t-88.5 200.5zM293 266q0 -57 42 -91t111 -34q80 0 178.5 41t227.5 127 q-14 41 -21.5 86t-9.5 94q-266 -16 -397 -70t-131 -153zM1001 578h592q-12 147 -87.5 230t-198.5 83t-208 -88t-98 -225z" />
<glyph unicode="&#xe7;" horiz-adv-x="1103" d="M90 510q0 229 154.5 384t390.5 155q102 0 186 -30t158 -93v-228h-4q-92 94 -175 137.5t-169 43.5q-150 0 -250 -106.5t-100 -260.5q0 -160 95 -263.5t245 -103.5q90 0 190 44t186 118l4 -2l-32 -213q-76 -51 -154 -79.5t-160 -35.5l-55 -88q92 -4 139 -38t47 -97 q0 -74 -64.5 -118t-174.5 -44q-33 0 -62.5 4.5t-64.5 12.5l-51 96l4 6q47 -16 81.5 -23t73.5 -7q55 0 86 17t31 48q0 29 -24.5 42t-75.5 13q-29 0 -50.5 -2t-45.5 -6l-9 8l105 179q-205 23 -330 168t-125 362z" />
<glyph unicode="&#xe8;" horiz-adv-x="1144" d="M88 512q0 225 143.5 383t356.5 158t340 -148.5t127 -382.5q0 -20 -2 -44.5t-4 -37.5h-770q20 -139 115 -217t245 -78q90 0 189.5 34t191.5 93l4 -2l-68 -202q-90 -49 -167.5 -70t-170.5 -21q-244 0 -387 145.5t-143 389.5zM217 1585v4h250l172 -346h-88zM274 578h594 q-12 147 -87.5 230t-198.5 83q-125 0 -210 -88t-98 -225z" />
<glyph unicode="&#xe9;" horiz-adv-x="1144" d="M88 512q0 225 143.5 383t356.5 158t340 -148.5t127 -382.5q0 -20 -2 -44.5t-4 -37.5h-770q20 -139 115 -217t245 -78q90 0 189.5 34t191.5 93l4 -2l-68 -202q-90 -49 -167.5 -70t-170.5 -21q-244 0 -387 145.5t-143 389.5zM274 578h594q-12 147 -87.5 230t-198.5 83 q-125 0 -210 -88t-98 -225zM545 1243l172 346h250v-4l-334 -342h-88z" />
<glyph unicode="&#xea;" horiz-adv-x="1144" d="M88 512q0 225 143.5 383t356.5 158t340 -148.5t127 -382.5q0 -20 -2 -44.5t-4 -37.5h-770q20 -139 115 -217t245 -78q90 0 189.5 34t191.5 93l4 -2l-68 -202q-90 -49 -167.5 -70t-170.5 -21q-244 0 -387 145.5t-143 389.5zM246 1225v4l262 342h168l262 -342v-4h-86 l-258 197l-258 -197h-90zM274 578h594q-12 147 -87.5 230t-198.5 83q-125 0 -210 -88t-98 -225z" />
<glyph unicode="&#xeb;" horiz-adv-x="1144" d="M88 512q0 225 143.5 383t356.5 158t340 -148.5t127 -382.5q0 -20 -2 -44.5t-4 -37.5h-770q20 -139 115 -217t245 -78q90 0 189.5 34t191.5 93l4 -2l-68 -202q-90 -49 -167.5 -70t-170.5 -21q-244 0 -387 145.5t-143 389.5zM254 1368q0 53 37 90t90 37t90 -37t37 -90 t-37 -90t-90 -37t-90 37t-37 90zM274 578h594q-12 147 -87.5 230t-198.5 83q-125 0 -210 -88t-98 -225zM676 1368q0 53 37 90t90 37t90 -37t37 -90t-37 -90t-90 -37t-90 37t-37 90z" />
<glyph unicode="&#xec;" horiz-adv-x="552" d="M-99 1577v4h250l172 -346h-88zM184 0v1024h185v-1024h-185z" />
<glyph unicode="&#xed;" horiz-adv-x="552" d="M184 0v1024h185v-1024h-185zM229 1235l172 346h250v-4l-334 -342h-88z" />
<glyph unicode="&#xee;" horiz-adv-x="552" d="M-70 1219v4l262 342h168l262 -342v-4h-86l-258 197l-258 -197h-90zM184 0v1024h185v-1024h-185z" />
<glyph unicode="&#xef;" horiz-adv-x="552" d="M-62 1360q0 53 37 90t90 37t90 -37t37 -90t-37 -90t-90 -37t-90 37t-37 90zM184 0v1024h185v-1024h-185zM360 1360q0 53 37 90t90 37t90 -37t37 -90t-37 -90t-90 -37t-90 37t-37 90z" />
<glyph unicode="&#xf0;" horiz-adv-x="1230" d="M88 459q0 201 139.5 345t341.5 144q109 0 199 -39t164 -121q-37 109 -118 211.5t-224 223.5l-152 -144l-90 82l148 137q-18 12 -40 28.5t-67 51.5q-29 20 -42 30.5t-25 18.5l100 127q59 -41 107.5 -75.5t88.5 -67.5l154 143l88 -81l-151 -140q213 -188 314 -376.5 t101 -411.5q0 -143 -37.5 -246.5t-121.5 -187.5q-68 -66 -163 -103t-202 -37q-223 0 -367.5 142.5t-144.5 345.5zM279 461q0 -139 91 -231.5t230 -92.5q145 0 241.5 95.5t96.5 236.5t-91 230t-237 89q-147 0 -239 -92t-92 -235z" />
<glyph unicode="&#xf1;" horiz-adv-x="1236" d="M174 0v999l184 41v-209q88 113 174 163t191 50q162 0 261 -108.5t99 -290.5v-645h-184v627q0 119 -60.5 185.5t-166.5 66.5q-80 0 -150.5 -42t-163.5 -143v-694h-184zM232 1282q94 162 142 210t108 48q27 0 63.5 -16.5t116.5 -67.5q61 -39 86.5 -51t40.5 -12 q25 0 47 22.5t98 130.5l92 -57q-94 -162 -142 -209t-108 -47q-27 0 -63.5 16.5t-116.5 67.5q-61 39 -86.5 51t-40.5 12q-23 0 -44 -20.5t-101 -132.5z" />
<glyph unicode="&#xf2;" horiz-adv-x="1257" d="M88 510q0 223 155.5 383t387.5 160q238 0 388 -155t150 -382q0 -225 -154.5 -385t-387.5 -160q-236 0 -387.5 157t-151.5 382zM254 1585v4h250l172 -346h-88zM279 510q0 -160 99 -266.5t249 -106.5q154 0 254 108.5t100 270.5q0 160 -99.5 265.5t-250.5 105.5 q-154 0 -253 -107.5t-99 -269.5z" />
<glyph unicode="&#xf3;" horiz-adv-x="1257" d="M88 510q0 223 155.5 383t387.5 160q238 0 388 -155t150 -382q0 -225 -154.5 -385t-387.5 -160q-236 0 -387.5 157t-151.5 382zM279 510q0 -160 99 -266.5t249 -106.5q154 0 254 108.5t100 270.5q0 160 -99.5 265.5t-250.5 105.5q-154 0 -253 -107.5t-99 -269.5zM582 1243 l172 346h250v-4l-334 -342h-88z" />
<glyph unicode="&#xf4;" horiz-adv-x="1257" d="M88 510q0 223 155.5 383t387.5 160q238 0 388 -155t150 -382q0 -225 -154.5 -385t-387.5 -160q-236 0 -387.5 157t-151.5 382zM279 510q0 -160 99 -266.5t249 -106.5q154 0 254 108.5t100 270.5q0 160 -99.5 265.5t-250.5 105.5q-154 0 -253 -107.5t-99 -269.5zM283 1225 v4l262 342h168l262 -342v-4h-86l-258 197l-258 -197h-90z" />
<glyph unicode="&#xf5;" horiz-adv-x="1257" d="M88 510q0 223 155.5 383t387.5 160q238 0 388 -155t150 -382q0 -225 -154.5 -385t-387.5 -160q-236 0 -387.5 157t-151.5 382zM232 1290q94 162 142 210t108 48q27 0 63.5 -16.5t116.5 -67.5q61 -39 86.5 -51t40.5 -12q25 0 47 22.5t98 130.5l92 -57q-94 -162 -142 -209 t-108 -47q-27 0 -63.5 16.5t-116.5 67.5q-61 39 -86.5 51t-40.5 12q-23 0 -44 -20.5t-101 -132.5zM279 510q0 -160 99 -266.5t249 -106.5q154 0 254 108.5t100 270.5q0 160 -99.5 265.5t-250.5 105.5q-154 0 -253 -107.5t-99 -269.5z" />
<glyph unicode="&#xf6;" horiz-adv-x="1257" d="M88 510q0 223 155.5 383t387.5 160q238 0 388 -155t150 -382q0 -225 -154.5 -385t-387.5 -160q-236 0 -387.5 157t-151.5 382zM279 510q0 -160 99 -266.5t249 -106.5q154 0 254 108.5t100 270.5q0 160 -99.5 265.5t-250.5 105.5q-154 0 -253 -107.5t-99 -269.5zM291 1368 q0 53 37 90t90 37t90 -37t37 -90t-37 -90t-90 -37t-90 37t-37 90zM713 1368q0 53 37 90t90 37t90 -37t37 -90t-37 -90t-90 -37t-90 37t-37 90z" />
<glyph unicode="&#xf7;" horiz-adv-x="1228" d="M102 649v166h1024v-166h-1024zM475 313q0 55 41 96.5t98 41.5t98.5 -41t41.5 -97q0 -57 -41.5 -98t-98.5 -41t-98 41t-41 98zM475 1149q0 57 41 98t98 41t98.5 -41t41.5 -98t-41.5 -98t-98.5 -41t-98 41t-41 98z" />
<glyph unicode="&#xf8;" horiz-adv-x="1257" d="M55 -90l183 223q-72 76 -111 174.5t-39 202.5q0 223 155.5 383t387.5 160q76 0 146.5 -18.5t133.5 -55.5l109 135h182l-180 -223q70 -76 108.5 -173.5t38.5 -201.5q0 -225 -154.5 -385t-387.5 -160q-78 0 -148.5 19.5t-132.5 56.5l-108 -137h-183zM270 502 q0 -66 19.5 -127.5t56.5 -110.5l463 586q-39 23 -81 34t-87 11q-164 0 -267.5 -110.5t-103.5 -282.5zM451 172q39 -20 81.5 -31.5t85.5 -11.5q164 0 266.5 111.5t102.5 283.5q0 68 -19.5 128.5t-56.5 107.5z" />
<glyph unicode="&#xf9;" horiz-adv-x="1236" d="M154 379v645h186v-627q0 -119 60.5 -185.5t166.5 -66.5q78 0 148.5 42t163.5 143v694h186v-1024h-186v193q-88 -113 -174.5 -163t-190.5 -50q-162 0 -261 108.5t-99 290.5zM235 1565v4h250l172 -346h-88z" />
<glyph unicode="&#xfa;" horiz-adv-x="1236" d="M154 379v645h186v-627q0 -119 60.5 -185.5t166.5 -66.5q78 0 148.5 42t163.5 143v694h186v-1024h-186v193q-88 -113 -174.5 -163t-190.5 -50q-162 0 -261 108.5t-99 290.5zM563 1223l172 346h250v-4l-334 -342h-88z" />
<glyph unicode="&#xfb;" horiz-adv-x="1236" d="M154 379v645h186v-627q0 -119 60.5 -185.5t166.5 -66.5q78 0 148.5 42t163.5 143v694h186v-1024h-186v193q-88 -113 -174.5 -163t-190.5 -50q-162 0 -261 108.5t-99 290.5zM264 1235v4l262 342h168l262 -342v-4h-86l-258 197l-258 -197h-90z" />
<glyph unicode="&#xfc;" horiz-adv-x="1236" d="M154 379v645h186v-627q0 -119 60.5 -185.5t166.5 -66.5q78 0 148.5 42t163.5 143v694h186v-1024h-186v193q-88 -113 -174.5 -163t-190.5 -50q-162 0 -261 108.5t-99 290.5zM272 1360q0 53 37 90t90 37t90 -37t37 -90t-37 -90t-90 -37t-90 37t-37 90zM694 1360q0 53 37 90 t90 37t90 -37t37 -90t-37 -90t-90 -37t-90 37t-37 90z" />
<glyph unicode="&#xfd;" horiz-adv-x="1122" d="M37 -174l4 2q49 -29 90 -42t86 -13q74 0 126 42t91 132l47 110l-434 967h205l323 -756l304 756h200l-475 -1139q-59 -143 -149 -214.5t-209 -71.5q-45 0 -88 9t-84 30zM514 1225l172 346h250v-4l-334 -342h-88z" />
<glyph unicode="&#xfe;" horiz-adv-x="1269" d="M174 -391v1878l184 67v-680q86 90 170 130t185 40q197 0 332 -146.5t135 -365.5q0 -236 -150.5 -392t-363.5 -156q-82 0 -157 26.5t-151 81.5v-483h-184zM358 236q70 -45 136.5 -67t140.5 -22q154 0 254 105.5t100 265.5t-93 260.5t-232 100.5q-80 0 -152 -31t-154 -98 v-514z" />
<glyph unicode="&#xff;" horiz-adv-x="1122" d="M37 -174l4 2q49 -29 90 -42t86 -13q74 0 126 42t91 132l47 110l-434 967h205l323 -756l304 756h200l-475 -1139q-59 -143 -149 -214.5t-209 -71.5q-45 0 -88 9t-84 30zM223 1360q0 53 37 90t90 37t90 -37t37 -90t-37 -90t-90 -37t-90 37t-37 90zM645 1360q0 53 37 90 t90 37t90 -37t37 -90t-37 -90t-90 -37t-90 37t-37 90z" />
<glyph unicode="&#x152;" horiz-adv-x="2070" d="M115 713q0 322 226 521.5t583 199.5h964l60 -179h-670v-438h559v-176h-559v-463h676l-60 -178h-970q-371 0 -590 192.5t-219 520.5zM317 717q0 -248 165 -392.5t446 -144.5h153v1073h-161q-266 0 -434.5 -148t-168.5 -388z" />
<glyph unicode="&#x153;" horiz-adv-x="2023" d="M88 510q0 225 152.5 384t380.5 159q143 0 258.5 -61.5t185.5 -176.5q68 113 174.5 175.5t235.5 62.5q209 0 333.5 -148.5t124.5 -382.5q0 -20 -2 -44.5t-4 -37.5h-770q20 -139 115.5 -217t243.5 -78q88 0 187 33t193 94l5 -2l-66 -202q-88 -49 -164 -70t-166 -21 q-152 0 -266.5 59.5t-179.5 172.5q-72 -113 -187.5 -175.5t-257.5 -62.5q-229 0 -377.5 157t-148.5 382zM279 510q0 -160 98 -266.5t248 -106.5q152 0 251 108.5t99 270.5q0 160 -98.5 265.5t-247.5 105.5q-152 0 -251 -107.5t-99 -269.5zM1153 578h594q-12 145 -89 229 t-200 84t-208 -88t-97 -225z" />
<glyph unicode="&#x178;" horiz-adv-x="1368" d="M27 1434h235l426 -619l426 619h227l-559 -793v-641h-196v641zM342 1706q0 55 37 92t92 37q53 0 91 -38t38 -91t-38 -91t-91 -38q-55 0 -92 37t-37 92zM768 1706q0 53 38 91t91 38q55 0 92 -37t37 -92t-37 -92t-92 -37q-53 0 -91 38t-38 91z" />
<glyph unicode="&#x2c6;" horiz-adv-x="1024" d="M166 1235v4l262 342h168l262 -342v-4h-86l-258 197l-258 -197h-90z" />
<glyph unicode="&#x2dc;" horiz-adv-x="1024" d="M115 1282q94 162 142 210t108 48q27 0 63.5 -16.5t116.5 -67.5q61 -39 86.5 -51t40.5 -12q25 0 47 22.5t98 130.5l92 -57q-94 -162 -142 -209t-108 -47q-27 0 -63.5 16.5t-116.5 67.5q-61 39 -86.5 51t-40.5 12q-23 0 -44 -20.5t-101 -132.5z" />
<glyph unicode="&#x2000;" horiz-adv-x="940" />
<glyph unicode="&#x2001;" horiz-adv-x="1880" />
<glyph unicode="&#x2002;" horiz-adv-x="940" />
<glyph unicode="&#x2003;" horiz-adv-x="1880" />
<glyph unicode="&#x2004;" horiz-adv-x="626" />
<glyph unicode="&#x2005;" horiz-adv-x="470" />
<glyph unicode="&#x2006;" horiz-adv-x="313" />
<glyph unicode="&#x2007;" horiz-adv-x="313" />
<glyph unicode="&#x2008;" horiz-adv-x="235" />
<glyph unicode="&#x2009;" horiz-adv-x="376" />
<glyph unicode="&#x200a;" horiz-adv-x="104" />
<glyph unicode="&#x2010;" horiz-adv-x="796" d="M131 475v174h535v-174h-535z" />
<glyph unicode="&#x2011;" horiz-adv-x="796" d="M131 475v174h535v-174h-535z" />
<glyph unicode="&#x2012;" horiz-adv-x="796" d="M131 475v174h535v-174h-535z" />
<glyph unicode="&#x2013;" horiz-adv-x="1130" d="M131 477v168h868v-168h-868z" />
<glyph unicode="&#x2014;" horiz-adv-x="1908" d="M131 477v168h1647v-168h-1647z" />
<glyph unicode="&#x2018;" horiz-adv-x="444" d="M76 1090q0 66 43 136t203 224l61 -45q-76 -102 -106.5 -168t-30.5 -119q0 -49 19.5 -95t94.5 -161h-194q-49 66 -69.5 117t-20.5 111z" />
<glyph unicode="&#x2019;" horiz-adv-x="444" d="M61 891q72 98 104 166t32 123q0 49 -20.5 97t-94.5 157h197q49 -68 69.5 -119t20.5 -107q0 -47 -21.5 -95t-68.5 -105q-14 -16 -53.5 -57.5t-102.5 -104.5z" />
<glyph unicode="&#x201a;" horiz-adv-x="405" d="M22 -315q72 98 104 166t32 123q0 49 -20.5 97t-94.5 157h197q49 -68 69.5 -119t20.5 -107q0 -47 -21.5 -95t-68.5 -105q-14 -16 -53.5 -57.5t-102.5 -104.5z" />
<glyph unicode="&#x201c;" horiz-adv-x="833" d="M76 1090q0 66 43 136t203 224l61 -45q-76 -102 -106.5 -168t-30.5 -119q0 -49 19.5 -95t94.5 -161h-194q-49 66 -69.5 117t-20.5 111zM465 1090q0 66 43 136t203 224l61 -45q-76 -102 -106.5 -168t-30.5 -119q0 -47 18.5 -91t96.5 -165h-195q-49 68 -69.5 120t-20.5 108z " />
<glyph unicode="&#x201d;" horiz-adv-x="833" d="M61 891q72 98 104 166t32 123q0 49 -20.5 97t-94.5 157h197q49 -68 69.5 -119t20.5 -107q0 -47 -21.5 -95t-68.5 -105q-14 -16 -53.5 -57.5t-102.5 -104.5zM451 891q74 100 105.5 168t31.5 121q0 47 -19.5 92t-95.5 162h195q49 -68 69.5 -119t20.5 -107q0 -47 -21.5 -96 t-66.5 -104q-18 -20 -40 -44t-118 -118z" />
<glyph unicode="&#x201e;" horiz-adv-x="794" d="M22 -315q72 98 104 166t32 123q0 49 -20.5 97t-94.5 157h197q49 -68 69.5 -119t20.5 -107q0 -47 -21.5 -95t-68.5 -105q-14 -16 -53.5 -57.5t-102.5 -104.5zM412 -315q74 100 105.5 168t31.5 121q0 47 -19.5 92t-95.5 162h195q49 -68 69.5 -119t20.5 -107 q0 -47 -21.5 -96t-66.5 -104q-18 -20 -40 -44t-118 -118z" />
<glyph unicode="&#x2022;" horiz-adv-x="1019" d="M215 731q0 121 87 208t208 87t208 -87t87 -208q0 -119 -87 -206t-208 -87t-208 87t-87 206z" />
<glyph unicode="&#x2026;" horiz-adv-x="1226" d="M72 113q0 55 37.5 94t93.5 39q55 0 93 -39t38 -94q0 -53 -39 -92t-92 -39t-92 38.5t-39 92.5zM481 113q0 53 39 93t92 40q55 0 93 -39t38 -94q0 -53 -39 -92t-92 -39t-92 38.5t-39 92.5zM893 113q0 55 38 94t93 39t93 -39t38 -94q0 -53 -39 -92t-92 -39t-92 38.5 t-39 92.5z" />
<glyph unicode="&#x202f;" horiz-adv-x="376" />
<glyph unicode="&#x2039;" horiz-adv-x="782" d="M96 496v32l494 510l69 -37l-342 -487l342 -491l-69 -37z" />
<glyph unicode="&#x203a;" horiz-adv-x="782" d="M123 23l342 487l-342 491l70 37l493 -510v-32l-493 -510z" />
<glyph unicode="&#x205f;" horiz-adv-x="470" />
<glyph unicode="&#x20ac;" horiz-adv-x="1386" d="M66 508v119h217q-2 14 -2 32.5v55.5q0 16 1 36.5l3 61.5h-219v117h235q51 246 207 387t379 141q104 0 190 -22.5t183 -73.5v-203h-5q-113 72 -191.5 99.5t-162.5 27.5q-154 0 -261.5 -93t-147.5 -263h581v-117h-600l-3 -58.5t-1 -35.5q0 -18 1 -39t3 -53h600v-119h-581 q39 -172 143 -266.5t256 -94.5q100 0 181 26t194 93l4 -2l-29 -201q-92 -51 -169 -69.5t-191 -18.5q-231 0 -384 139.5t-198 393.5h-233z" />
<glyph unicode="&#x2122;" horiz-adv-x="2076" d="M57 1311v123h731v-123h-296v-684h-138v684h-297zM942 627v807h201l284 -572l285 572h201v-807h-133v663l-342 -676h-23l-342 672v-659h-131z" />
<glyph unicode="&#x25fc;" horiz-adv-x="1024" d="M0 0v1024h1024v-1024h-1024z" />
</font>
</defs>
</svg>
